<?xml version="1.0" encoding="UTF-8"?>
<svg version="1.1" xmlns="http://www.w3.org/2000/svg" width="350" height="200"  viewBox="0 0 350 200" preserveAspectRatio="xMidYMid meet">
<path d="M0 0 C115.5 0 231 0 350 0 C350 66 350 132 350 200 C234.5 200 119 200 0 200 C0 134 0 68 0 0 Z " fill="#FEFEFE" transform="translate(0,0)"/>
<path d="M0 0 C2.75154006 0.00316717 5.50200954 -0.02039177 8.25341797 -0.0456543 C27.56131999 -0.11640481 42.04149724 4.58548069 56.25732422 18.31567383 C66.7520533 30.84040525 68.43071528 43.44967832 67.25732422 59.31567383 C65.05278568 71.99528085 56.65279791 82.97677971 46.25732422 90.31567383 C35.91206548 96.28039958 25.92461018 100.80455691 13.86669922 100.71411133 C13.00022766 100.71698151 12.1337561 100.71985168 11.24102783 100.72280884 C9.41914206 100.72483684 7.59723389 100.71939614 5.77539062 100.70678711 C3.02797139 100.69079402 0.28204067 100.70663833 -2.46533203 100.72583008 C-19.89001637 100.74851077 -35.50889281 98.46845838 -48.68017578 86.00317383 C-58.69547238 75.18078373 -64.15297276 62.02059052 -63.95361328 47.30786133 C-62.99538386 33.71519956 -56.79509456 21.46993835 -46.74267578 12.31567383 C-31.91813586 1.33611544 -17.84361482 -0.04294684 0 0 Z " fill="#F9FBFC" transform="translate(172.74267578125,49.684326171875)"/>
<path d="M0 0 C2.75154006 0.00316717 5.50200954 -0.02039177 8.25341797 -0.0456543 C27.56131999 -0.11640481 42.04149724 4.58548069 56.25732422 18.31567383 C66.7520533 30.84040525 68.43071528 43.44967832 67.25732422 59.31567383 C65.05278568 71.99528085 56.65279791 82.97677971 46.25732422 90.31567383 C35.91206548 96.28039958 25.92461018 100.80455691 13.86669922 100.71411133 C13.00022766 100.71698151 12.1337561 100.71985168 11.24102783 100.72280884 C9.41914206 100.72483684 7.59723389 100.71939614 5.77539062 100.70678711 C3.02797139 100.69079402 0.28204067 100.70663833 -2.46533203 100.72583008 C-19.89001637 100.74851077 -35.50889281 98.46845838 -48.68017578 86.00317383 C-58.69547238 75.18078373 -64.15297276 62.02059052 -63.95361328 47.30786133 C-62.99538386 33.71519956 -56.79509456 21.46993835 -46.74267578 12.31567383 C-31.91813586 1.33611544 -17.84361482 -0.04294684 0 0 Z M-49.11767578 22.12817383 C-53.94199181 28.55729314 -58.23252833 36.15331462 -58.74267578 44.31567383 C-58.79294922 45.11360352 -58.84322266 45.9115332 -58.89501953 46.73364258 C-59.37883695 60.45470455 -54.52957583 72.48580366 -45.24267578 82.56567383 C-35.4040553 91.91310751 -22.66954317 96.81375855 -9.14892578 96.56567383 C5.13113036 95.51759631 16.47446191 89.62322252 26.25732422 79.31567383 C35.52484548 68.3179501 37.55771579 55.47971203 36.52783203 41.51586914 C35.29273529 31.47011839 29.27037148 22.51943991 21.64404297 16.12426758 C-1.01602243 -0.89428776 -29.80892539 -0.56681264 -49.11767578 22.12817383 Z " fill="#074F99" transform="translate(172.74267578125,49.684326171875)"/>
<path d="M0 0 C0 17.49 0 34.98 0 53 C-7.15351274 51.56929745 -10.97008455 47.61752256 -15.375 41.9375 C-19.46568661 34.54279728 -19.91264955 27.30697347 -19 19 C-16.60505948 12.07248609 -8.14577127 0 0 0 Z " fill="#054D98" transform="translate(151,73)"/>
<path d="M0 0 C9.32377053 4.66188526 14.82016746 8.38102943 18.34765625 18.3125 C20.20541229 25.96600991 19.62584791 33.24928832 15.8125 40.1484375 C12.48496529 45.59185026 8.66517222 49.91978909 3 53 C2.01 53 1.02 53 0 53 C0 35.51 0 18.02 0 0 Z " fill="#044C98" transform="translate(173,73)"/>
</svg>
