<?xml version="1.0" encoding="UTF-8"?>
<svg version="1.1" xmlns="http://www.w3.org/2000/svg" width="350" height="200" viewBox="0 0 350 200" preserveAspectRatio="xMidYMid meet">
<path d="M0 0 C115.5 0 231 0 350 0 C350 66 350 132 350 200 C234.5 200 119 200 0 200 C0 134 0 68 0 0 Z " fill="#FEFEFE" transform="translate(0,0)"/>
<path d="M0 0 C7.86010812 2.47184396 12.04903319 1.57890781 19.640625 -1.2265625 C32.24066889 -5.8192739 43.75954814 -7.29250028 57.140625 -7.2265625 C57.84767578 -7.22573669 58.55472656 -7.22491089 59.28320312 -7.22406006 C69.63591953 -7.19619548 79.40844322 -6.60700668 89.453125 -3.9140625 C90.55527344 -3.68203125 90.55527344 -3.68203125 91.6796875 -3.4453125 C108.74265083 0.20602122 126.48001409 8.30289876 136.9453125 22.7109375 C141.9070629 30.52633709 143.55336496 37.854039 142.453125 47.0859375 C141.68038456 49.95611628 140.70466156 52.37427496 139.453125 55.0859375 C138.793125 55.0859375 138.133125 55.0859375 137.453125 55.0859375 C137.2675 55.7459375 137.081875 56.4059375 136.890625 57.0859375 C130.75049377 69.90012442 116.4432607 76.71820413 103.76171875 81.46875 C75.41214548 91.16738219 39.5651093 92.77400393 11.91015625 79.90234375 C8.86286718 78.8898105 7.53158655 79.20193483 4.453125 80.0859375 C3.53345947 80.34673096 3.53345947 80.34673096 2.59521484 80.61279297 C0.43828248 81.23262454 -1.71079545 81.87527322 -3.859375 82.5234375 C-6.75062416 83.39417116 -9.64495411 84.25141118 -12.546875 85.0859375 C-13.19833496 85.27430176 -13.84979492 85.46266602 -14.52099609 85.65673828 C-41.17572158 92.88116651 -75.41250693 89.27200354 -99.55859375 75.8984375 C-111.30971895 69.11299664 -121.81456603 60.74725979 -125.546875 47.0859375 C-126.99311998 36.50803002 -124.97644268 29.40298107 -118.9609375 20.82421875 C-105.82404446 4.38876087 -83.29377821 -3.71413123 -62.99047852 -6.23095703 C-41.26520539 -8.39786357 -20.67182626 -7.03553029 0 0 Z " fill="#F99E1B" transform="translate(166.546875,56.9140625)"/>
<path d="M0 0 C-3.01287839 2.33391988 -6.13554036 4.36962023 -9.375 6.375 C-19.14559378 12.60326695 -27.36274949 20.19830396 -30 32 C-30.76275322 38.62112166 -29.96197751 44.05352043 -27 50 C-26.60941406 50.804375 -26.21882813 51.60875 -25.81640625 52.4375 C-20.0533262 63.14735981 -10.6077063 68.67598011 0 74 C-3.14017633 77.51416534 -6.76217372 78.35628467 -11.1875 79.5625 C-11.91775391 79.77068359 -12.64800781 79.97886719 -13.40039062 80.19335938 C-15.59570866 80.81364853 -17.79674783 81.40859289 -20 82 C-20.65436035 82.18546387 -21.3087207 82.37092773 -21.98291016 82.56201172 C-48.63002407 89.80140105 -82.86945316 86.18394961 -107.01171875 72.8125 C-118.76284395 66.02705914 -129.26769103 57.66132229 -133 44 C-134.44624498 33.42209252 -132.42956768 26.31704357 -126.4140625 17.73828125 C-113.27716946 1.30282337 -90.74690321 -6.80006873 -70.44360352 -9.31689453 C-47.52681081 -11.60264475 -20.83554402 -11.36008304 0 0 Z " fill="#E41B26" transform="translate(174,60)"/>
<path d="M0 0 C0 0.66 0 1.32 0 2 C0.71542969 2.08378906 1.43085938 2.16757812 2.16796875 2.25390625 C5.62579976 3.16486587 7.55556363 4.67885435 10.3125 6.9375 C11.19550781 7.64777344 12.07851562 8.35804687 12.98828125 9.08984375 C13.65214844 9.72019531 14.31601563 10.35054687 15 11 C15 11.66 15 12.32 15 13 C15.99 13 16.98 13 18 13 C22 18.25714286 22 18.25714286 22 21 C22.66 21 23.32 21 24 21 C24 22.32 24 23.64 24 25 C24.66 25 25.32 25 26 25 C28.52594136 33.35021938 28.1273569 42.73447608 24.375 50.5625 C21.77435208 55.12904054 19.06616565 58.67313719 15 62 C14.34 62 13.68 62 13 62 C13 62.66 13 63.32 13 64 C11.02 64.495 11.02 64.495 9 65 C9 65.66 9 66.32 9 67 C6.5859375 68.796875 6.5859375 68.796875 3.375 70.75 C2.33085937 71.40484375 1.28671875 72.0596875 0.2109375 72.734375 C-3 74 -3 74 -6.05859375 73.40625 C-19.51769724 66.97161885 -29.76412552 58.49760196 -35.4375 44.4375 C-37.06376857 34.49919206 -35.79536361 27.0520663 -30.41015625 18.46484375 C-24.60354099 10.52217975 -10.46897799 -3.38702229 0 0 Z " fill="#F36425" transform="translate(179,61)"/>
<path d="M0 0 C-6.15234375 0.09765625 -6.15234375 0.09765625 -8 0 C-8.495 -0.495 -8.495 -0.495 -9 -1 C-10.34267413 -1.08631874 -11.68974322 -1.10706473 -13.03515625 -1.09765625 C-13.84404297 -1.09443359 -14.65292969 -1.09121094 -15.48632812 -1.08789062 C-16.7615332 -1.07532227 -16.7615332 -1.07532227 -18.0625 -1.0625 C-18.91650391 -1.05798828 -19.77050781 -1.05347656 -20.65039062 -1.04882812 C-22.76695663 -1.03700373 -24.88348685 -1.01906769 -27 -1 C-27 -0.34 -27 0.32 -27 1 C-27.66 1 -28.32 1 -29 1 C-29 0.34 -29 -0.32 -29 -1 C-34.28 -1 -39.56 -1 -45 -1 C-45 -1.66 -45 -2.32 -45 -3 C-47.64 -3 -50.28 -3 -53 -3 C-53.33 -1.68 -53.66 -0.36 -54 1 C-54.81984375 0.95359375 -55.6396875 0.9071875 -56.484375 0.859375 C-57.56203125 0.82328125 -58.6396875 0.7871875 -59.75 0.75 C-60.81734375 0.70359375 -61.8846875 0.6571875 -62.984375 0.609375 C-66.1083296 0.69891104 -66.1083296 0.69891104 -67.96875 3 C-70 5 -70 5 -73.234375 5.390625 C-74.39453125 5.34421875 -75.5546875 5.2978125 -76.75 5.25 C-77.92046875 5.21390625 -79.0909375 5.1778125 -80.296875 5.140625 C-81.18890625 5.09421875 -82.0809375 5.0478125 -83 5 C-79.41150826 1.76091403 -75.3155402 0.66438657 -70.75 -0.5625 C-69.94643066 -0.77865967 -69.14286133 -0.99481934 -68.31494141 -1.2175293 C-50.19943866 -5.90786382 -16.70064061 -11.13376041 0 0 Z " fill="#D8292E" transform="translate(157,55)"/>
<path d="M0 0 C2.82884324 1.07037312 4.57056155 2.18473794 6 4.8984375 C8.82417821 13.07226097 10.10851176 24.08233027 6.5625 32.1875 C6.046875 33.115625 5.53125 34.04375 5 35 C4.87367188 35.66515625 4.74734375 36.3303125 4.6171875 37.015625 C3.82152554 39.57382929 2.80024101 40.15286273 0.5625 41.5625 C-2.16848 43.30143299 -3.1193068 44.17896019 -5 47 C-5.66 47 -6.32 47 -7 47 C-7 47.66 -7 48.32 -7 49 C-7.61875 49.268125 -8.2375 49.53625 -8.875 49.8125 C-11.2995233 50.95556848 -11.2995233 50.95556848 -13 54 C-14.485 54.495 -14.485 54.495 -16 55 C-16.33 55.66 -16.66 56.32 -17 57 C-18.65 56.67 -20.3 56.34 -22 56 C-18.80009492 53.25722422 -15.99500618 51.3697164 -12 50 C-12 49.34 -12 48.68 -12 48 C-10.02 47.505 -10.02 47.505 -8 47 C-8 46.34 -8 45.68 -8 45 C-6.96875 44.21625 -5.9375 43.4325 -4.875 42.625 C0.65604192 37.90502736 4.47880504 31.9498458 5.25341797 24.59326172 C5.50467981 19.04777742 5.31288461 13.53921651 5 8 C4.34 8 3.68 8 3 8 C3 6.68 3 5.36 3 4 C2.34 4 1.68 4 1 4 C0.67 2.68 0.34 1.36 0 0 Z " fill="#FC9226" transform="translate(200,78)"/>
<path d="M0 0 C2.08859394 0.01070949 4.17632475 0.00005032 6.26489258 -0.01269531 C14.40919197 -0.0199132 22.17535877 0.59981215 30.1574707 2.26074219 C30.1574707 2.59074219 30.1574707 2.92074219 30.1574707 3.26074219 C29.17689697 3.25026855 28.19632324 3.23979492 27.18603516 3.22900391 C6.63239853 3.02871464 -13.46625454 3.27293968 -33.8425293 6.26074219 C-24.08018889 -0.24748475 -11.31939327 -0.06886726 0 0 Z " fill="#EBAC4E" transform="translate(221.842529296875,49.7392578125)"/>
<path d="M0 0 C1.49900891 -0.08293697 2.99944875 -0.14004281 4.5 -0.1875 C5.3353125 -0.22230469 6.170625 -0.25710937 7.03125 -0.29296875 C10 0 10 0 13.6171875 1.48632812 C18.15377463 3.22818969 22.27169115 3.4727112 27.09375 3.51171875 C27.92588013 3.52966995 28.75801025 3.54762115 29.61535645 3.56611633 C32.24352114 3.61980627 34.87150865 3.65398071 37.5 3.6875 C39.29429528 3.72070969 41.08856729 3.75520267 42.8828125 3.79101562 C47.25507956 3.87550824 51.62729786 3.94251459 56 4 C50.739011 7.16241621 44.82806724 6.33822361 38.875 6.3125 C37.61993652 6.30976074 36.36487305 6.30702148 35.07177734 6.30419922 C23.01661677 6.16965156 11.4171434 5.06492722 0 1 C0 0.67 0 0.34 0 0 Z " fill="#E8AC4F" transform="translate(188,139)"/>
<path d="M0 0 C0 0.33 0 0.66 0 1 C-1.95626713 1.48753366 -3.91516463 1.96451433 -5.875 2.4375 C-7.51082031 2.83775391 -7.51082031 2.83775391 -9.1796875 3.24609375 C-18.26829087 5.03965249 -27.32079901 5.18237994 -36.5625 5.1875 C-37.72974609 5.19974609 -38.89699219 5.21199219 -40.09960938 5.22460938 C-46.73105005 5.23581744 -52.59295423 4.72997074 -59 3 C-59 2.67 -59 2.34 -59 2 C-37.22 2.495 -37.22 2.495 -15 3 C-15 2.34 -15 1.68 -15 1 C-9.92928099 0.28832014 -5.11791642 -0.10662326 0 0 Z " fill="#C83B45" transform="translate(159,140)"/>
<path d="M0 0 C1.18529297 0.01353516 1.18529297 0.01353516 2.39453125 0.02734375 C3.28205078 0.04474609 3.28205078 0.04474609 4.1875 0.0625 C4.1875 0.3925 4.1875 0.7225 4.1875 1.0625 C2.2075 1.0625 0.2275 1.0625 -1.8125 1.0625 C-2.1425 2.3825 -2.4725 3.7025 -2.8125 5.0625 C-3.63234375 5.01609375 -4.4521875 4.9696875 -5.296875 4.921875 C-6.37453125 4.88578125 -7.4521875 4.8496875 -8.5625 4.8125 C-9.62984375 4.76609375 -10.6971875 4.7196875 -11.796875 4.671875 C-14.9208296 4.76141104 -14.9208296 4.76141104 -16.78125 7.0625 C-18.8125 9.0625 -18.8125 9.0625 -22.046875 9.453125 C-23.20703125 9.40671875 -24.3671875 9.3603125 -25.5625 9.3125 C-26.73296875 9.27640625 -27.9034375 9.2403125 -29.109375 9.203125 C-30.00140625 9.15671875 -30.8934375 9.1103125 -31.8125 9.0625 C-28.05480001 5.57975367 -23.70113047 4.69345684 -18.875 3.4375 C-18.07642578 3.2209375 -17.27785156 3.004375 -16.45507812 2.78125 C-10.94561998 1.30232337 -5.74206655 -0.08570249 0 0 Z " fill="#D3323D" transform="translate(105.8125,50.9375)"/>
<path d="M0 0 C5.4850059 6.26857818 6.48835767 13.03745294 6.3046875 21.078125 C5.8798959 25.15176755 4.71134931 28.29207649 3 32 C2.34 32 1.68 32 1 32 C0.566875 33.2065625 0.566875 33.2065625 0.125 34.4375 C-1 37 -1 37 -3 38 C-3.66 36.02 -4.32 34.04 -5 32 C-3.35 32 -1.7 32 0 32 C0 31.01 0 30.02 0 29 C0.66 29 1.32 29 2 29 C2.24970296 26.27131829 2.47531211 23.54413986 2.6875 20.8125 C2.76033203 20.04357422 2.83316406 19.27464844 2.90820312 18.48242188 C3.26462982 13.59727954 2.88923026 11.1274718 0 7 C-0.1875 3.1875 -0.1875 3.1875 0 0 Z " fill="#E7A63F" transform="translate(303,80)"/>
<path d="M0 0 C1.58468677 0.45363171 3.16769924 0.91311452 4.75 1.375 C5.63171875 1.63023438 6.5134375 1.88546875 7.421875 2.1484375 C9.76080572 2.9209934 11.83442562 3.83625676 14 5 C10.98712161 7.33391988 7.86445964 9.36962023 4.625 11.375 C-5.44150754 17.79189723 -11.68679059 24.73773098 -16 36 C-16.33 36 -16.66 36 -17 36 C-16.40971893 26.55550284 -11.17345976 20.61273242 -4.55859375 14.1875 C-0.36604471 10.60303059 4.24036108 7.76681814 9 5 C6.03 4.01 3.06 3.02 0 2 C0 1.34 0 0.68 0 0 Z " fill="#DC2419" transform="translate(160,55)"/>
<path d="M0 0 C2.97 0.495 2.97 0.495 6 1 C2.12162393 5.34037699 -2.94692984 6.70147758 -8.63671875 7.2578125 C-13.17245013 7.35273065 -16.90839211 7.18219088 -21 5 C-18.27835324 2.27835324 -15.70485455 1.89427524 -12 1 C-10.68 1 -9.36 1 -8 1 C-8 1.66 -8 2.32 -8 3 C-7.01 3 -6.02 3 -5 3 C-5 2.34 -5 1.68 -5 1 C-4.01 1 -3.02 1 -2 1 C-1.67 1.33 -1.34 1.66 -1 2 C-0.67 1.34 -0.34 0.68 0 0 Z " fill="#E01D23" transform="translate(168,133)"/>
<path d="M0 0 C0.33 1.32 0.66 2.64 1 4 C0.34 4 -0.32 4 -1 4 C-1.12375 4.94875 -1.2475 5.8975 -1.375 6.875 C-2 10 -2 10 -4 12 C-4 12.99 -4 13.98 -4 15 C-1.525 15.495 -1.525 15.495 1 16 C1 16.66 1 17.32 1 18 C-1.31 18 -3.62 18 -6 18 C-6.33 17.01 -6.66 16.02 -7 15 C-8.299375 16.2065625 -8.299375 16.2065625 -9.625 17.4375 C-12.62876093 19.96924136 -15.03203262 20.71657376 -19 21 C-17.19956825 18.99952028 -15.59190881 17.75885521 -13.25 16.375 C-8.4346917 13.28547889 -4.54275343 8.08550686 -2 3 C-1.34 3 -0.68 3 0 3 C0 2.01 0 1.02 0 0 Z " fill="#E1DCC6" transform="translate(306,109)"/>
<path d="M0 0 C6.780933 -0.07596188 13.5617566 -0.1285625 20.34301758 -0.16479492 C22.65067648 -0.17989676 24.95830661 -0.20037969 27.26586914 -0.22631836 C30.57966199 -0.26263975 33.89307592 -0.27971236 37.20703125 -0.29296875 C38.2414888 -0.30845261 39.27594635 -0.32393646 40.3417511 -0.33988953 C41.3025206 -0.34011612 42.2632901 -0.34034271 43.25317383 -0.34057617 C44.09922684 -0.34723801 44.94527985 -0.35389984 45.81697083 -0.36076355 C48.46203716 0.07635545 49.33536812 0.95440318 51 3 C50.3208252 2.9292627 49.64165039 2.85852539 48.94189453 2.78564453 C40.9465384 2.02855389 32.99765254 1.8452125 24.97216797 1.86962891 C22.8706955 1.87501102 20.76943498 1.869636 18.66796875 1.86328125 C11.39144265 1.86006979 4.22124422 2.05000713 -3 3 C-2.01 2.67 -1.02 2.34 0 2 C0 1.34 0 0.68 0 0 Z " fill="#FEF7DC" transform="translate(201,49)"/>
<path d="M0 0 C0.66 1.32 1.32 2.64 2 4 C1.34 4 0.68 4 0 4 C-1.1804489 7.54134669 -1.14618724 10.75445214 -1.125 14.4375 C-1.12757812 15.75621094 -1.13015625 17.07492188 -1.1328125 18.43359375 C-1.0297031 21.20238454 -0.84082567 23.39077114 0 26 C0.66 26 1.32 26 2 26 C2.33 28.64 2.66 31.28 3 34 C-1.62808002 29.71670532 -3.67470983 24.8213286 -4.39453125 18.578125 C-4.60707459 11.24144385 -3.97034 6.20365624 0 0 Z " fill="#C73844" transform="translate(45,82)"/>
<path d="M0 0 C0.33 0.99 0.66 1.98 1 3 C-0.36328125 5.04296875 -0.36328125 5.04296875 -2.3125 7.1875 C-2.94800781 7.90292969 -3.58351562 8.61835937 -4.23828125 9.35546875 C-6 11 -6 11 -8 11 C-8 11.66 -8 12.32 -8 13 C-9.32 13.33 -10.64 13.66 -12 14 C-12 14.66 -12 15.32 -12 16 C-13.609375 17.32421875 -13.609375 17.32421875 -15.75 18.6875 C-16.44609375 19.14511719 -17.1421875 19.60273438 -17.859375 20.07421875 C-20 21 -20 21 -22.203125 20.76953125 C-24 20 -24 20 -25 18 C-24.319375 17.87625 -23.63875 17.7525 -22.9375 17.625 C-19.5722588 16.90899123 -16.29986575 15.97054875 -13 15 C-13 14.01 -13 13.02 -13 12 C-7.74285714 8 -7.74285714 8 -5 8 C-4.34 6.35 -3.68 4.7 -3 3 C-2.34 3 -1.68 3 -1 3 C-0.67 2.01 -0.34 1.02 0 0 Z " fill="#EC6C15" transform="translate(200,112)"/>
<path d="M0 0 C0.66 0.33 1.32 0.66 2 1 C-0.76699775 3.43160408 -3.06997013 5.02873773 -6.5 6.4375 C-12.30639848 9.02964218 -14.75380228 12.22406302 -17 18 C-17.99 18.33 -18.98 18.66 -20 19 C-20.99 18.34 -21.98 17.68 -23 17 C-19.31156458 12.13667685 -15.49759638 8.96416077 -10.375 5.6875 C-9.70726562 5.24599609 -9.03953125 4.80449219 -8.3515625 4.34960938 C-5.59996943 2.5528191 -3.13005319 1.04335106 0 0 Z " fill="#CD2833" transform="translate(72,60)"/>
<path d="M0 0 C-0.556875 0.2475 -1.11375 0.495 -1.6875 0.75 C-4.15464798 1.99199765 -4.15464798 1.99199765 -6.625 4.125 C-9 6 -9 6 -11 6 C-11.33 6.99 -11.66 7.98 -12 9 C-12.99 8.67 -13.98 8.34 -15 8 C-15 8.99 -15 9.98 -15 11 C-15.66 11 -16.32 11 -17 11 C-17 11.66 -17 12.32 -17 13 C-19.375 14.6875 -19.375 14.6875 -22 16 C-22.66 15.67 -23.32 15.34 -24 15 C-21.02887432 10.88557351 -17.68507598 8.09780567 -13.5 5.3125 C-12.64728516 4.72758789 -12.64728516 4.72758789 -11.77734375 4.13085938 C-3.81613907 -1.27204636 -3.81613907 -1.27204636 0 0 Z " fill="#F85930" transform="translate(175,62)"/>
<path d="M0 0 C0.33 0.66 0.66 1.32 1 2 C1.66 2 2.32 2 3 2 C5.13241699 8.79277992 5.38093716 18.83308745 2.5 25.4375 C2.005 26.283125 1.51 27.12875 1 28 C0.67 28 0.34 28 0 28 C0.14204741 26.41632253 0.28880153 24.83306682 0.4375 23.25 C0.51871094 22.36828125 0.59992188 21.4865625 0.68359375 20.578125 C1 18 1 18 1.59375 15.984375 C2.12050523 13.41137828 1.65676066 11.54794112 1.0625 9 C0.32234934 5.78451104 0 3.35568407 0 0 Z " fill="#EB6C17" transform="translate(202,84)"/>
<path d="M0 0 C0.66 1.32 1.32 2.64 2 4 C0.68 5.65 -0.64 7.3 -2 9 C-1.67 9.66 -1.34 10.32 -1 11 C-5.3177458 10.49202991 -9.03302114 9.80317221 -13 8 C-13 7.34 -13 6.68 -13 6 C-10.69 6.33 -8.38 6.66 -6 7 C-5.67 6.01 -5.34 5.02 -5 4 C-4.01 3.67 -3.02 3.34 -2 3 C-1.34 2.01 -0.68 1.02 0 0 Z " fill="#F99D21" transform="translate(189,128)"/>
<path d="M0 0 C0.763125 0.061875 1.52625 0.12375 2.3125 0.1875 C-0.19302926 2.19550914 -2.70178455 4.19876916 -5.22265625 6.1875 C-6.47369141 7.1775 -6.47369141 7.1775 -7.75 8.1875 C-8.58660156 8.8475 -9.42320313 9.5075 -10.28515625 10.1875 C-12.55782674 12.07954438 -14.63358561 14.06243384 -16.6875 16.1875 C-17.3475 15.8575 -18.0075 15.5275 -18.6875 15.1875 C-18.3575 14.1975 -18.0275 13.2075 -17.6875 12.1875 C-16.6975 12.1875 -15.7075 12.1875 -14.6875 12.1875 C-14.44 11.61 -14.1925 11.0325 -13.9375 10.4375 C-11.86195909 6.70152637 -9.75576056 4.54358685 -5.6875 3.1875 C-5.23375 2.671875 -4.78 2.15625 -4.3125 1.625 C-2.6875 0.1875 -2.6875 0.1875 0 0 Z " fill="#FBDAD6" transform="translate(63.6875,62.8125)"/>
<path d="M0 0 C0.33 0.66 0.66 1.32 1 2 C0.67 2.66 0.34 3.32 0 4 C-1.65 4 -3.3 4 -5 4 C-5 3.34 -5 2.68 -5 2 C-5.81984375 2.22816406 -6.6396875 2.45632812 -7.484375 2.69140625 C-8.56203125 2.97886719 -9.6396875 3.26632813 -10.75 3.5625 C-11.81734375 3.85253906 -12.8846875 4.14257812 -13.984375 4.44140625 C-16.84335927 4.97098494 -18.31597383 4.98370862 -21 4 C-18.81877494 3.12569481 -16.63250158 2.27591499 -14.4375 1.4375 C-13.21933594 0.96183594 -12.00117188 0.48617187 -10.74609375 -0.00390625 C-6.67335348 -1.08685596 -4.06670702 -1.02052295 0 0 Z " fill="#FCE1DA" transform="translate(180,136)"/>
<path d="M0 0 C-3.29464982 2.19643321 -6.59970744 3.42103723 -10.3125 4.6875 C-11.28993164 5.04424805 -11.28993164 5.04424805 -12.28710938 5.40820312 C-16.58095812 6.87387121 -19.60592456 7.12406581 -24 6 C-20.696686 5.11064623 -17.37705625 4.53725895 -14 4 C-14 3.01 -14 2.02 -14 1 C-9.27685687 0.22887459 -4.78478822 -0.09764874 0 0 Z " fill="#FCE8CE" transform="translate(194,53)"/>
<path d="M0 0 C-2.03831848 1.13105506 -4.08081376 2.25458472 -6.125 3.375 C-7.26195312 4.00148437 -8.39890625 4.62796875 -9.5703125 5.2734375 C-14.22447593 7.61642182 -17.76680395 9 -23 9 C-23 8.34 -23 7.68 -23 7 C-21.89591797 6.70996094 -21.89591797 6.70996094 -20.76953125 6.4140625 C-19.79371094 6.15367187 -18.81789063 5.89328125 -17.8125 5.625 C-16.84957031 5.36976563 -15.88664062 5.11453125 -14.89453125 4.8515625 C-12.17789793 4.05233704 -9.60862825 3.0968638 -7 2 C-7 1.34 -7 0.68 -7 0 C-3.98968256 -0.93423645 -3.13349732 -1.04449911 0 0 Z " fill="#E5A543" transform="translate(287,130)"/>
<path d="M0 0 C0.33 0 0.66 0 1 0 C1 4.29 1 8.58 1 13 C1.66 13 2.32 13 3 13 C3.66 14.98 4.32 16.96 5 19 C4.34 19.66 3.68 20.32 3 21 C0.21409061 15.6704342 -1.14273117 11.81449952 -1.125 5.8125 C-1.12757813 4.93207031 -1.13015625 4.05164063 -1.1328125 3.14453125 C-1 1 -1 1 0 0 Z " fill="#FA5430" transform="translate(144,91)"/>
<path d="M0 0 C-6.91284647 4.04654428 -14.25824503 3.26901851 -22 3 C-18.4545337 0.89931122 -15.05365912 0.38361935 -11 -0.1875 C-9.1746875 -0.45626953 -9.1746875 -0.45626953 -7.3125 -0.73046875 C-4.45458405 -0.96301144 -2.66256967 -0.93855581 0 0 Z " fill="#FCEDC7" transform="translate(262,142)"/>
<path d="M0 0 C2.97 0.495 2.97 0.495 6 1 C3.48933531 4.05906926 1.09940067 4.75191278 -2.6875 5.6875 C-3.68136719 5.93886719 -4.67523438 6.19023437 -5.69921875 6.44921875 C-6.45847656 6.63097656 -7.21773437 6.81273437 -8 7 C-7 5 -6 3 -5 1 C-4.01 1 -3.02 1 -2 1 C-1.67 1.33 -1.34 1.66 -1 2 C-0.67 1.34 -0.34 0.68 0 0 Z " fill="#D1292F" transform="translate(168,133)"/>
<path d="M0 0 C0.66 0.33 1.32 0.66 2 1 C1.46890625 1.61746094 0.9378125 2.23492187 0.390625 2.87109375 C-4.13521739 8.29714932 -7.56057978 13.35578967 -10 20 C-10.33 20 -10.66 20 -11 20 C-10.46553088 11.44849404 -6.19759961 5.66637678 0 0 Z " fill="#DA2116" transform="translate(154,71)"/>
<path d="M0 0 C1.37478516 0.01740234 1.37478516 0.01740234 2.77734375 0.03515625 C3.69644531 0.04417969 4.61554688 0.05320313 5.5625 0.0625 C6.27277344 0.07410156 6.98304687 0.08570313 7.71484375 0.09765625 C7.71484375 0.42765625 7.71484375 0.75765625 7.71484375 1.09765625 C0.78484375 2.74765625 -6.14515625 4.39765625 -13.28515625 6.09765625 C-12.28515625 3.09765625 -12.28515625 3.09765625 -9.28515625 1.09765625 C-7.28555613 1.05766425 -5.28468383 1.05418826 -3.28515625 1.09765625 C-2.28515625 0.09765625 -2.28515625 0.09765625 0 0 Z " fill="#FDE8E3" transform="translate(93.28515625,50.90234375)"/>
<path d="M0 0 C7.01078585 1.95649838 11.00667198 5.86400547 16 11 C14.68 11.33 13.36 11.66 12 12 C12 10.68 12 9.36 12 8 C10.68 7.67 9.36 7.34 8 7 C7.67 7.66 7.34 8.32 7 9 C6.67 8.34 6.34 7.68 6 7 C6.33 6.34 6.66 5.68 7 5 C6.34 5 5.68 5 5 5 C5 4.34 5 3.68 5 3 C3.35 2.67 1.7 2.34 0 2 C0 1.34 0 0.68 0 0 Z " fill="#EAA843" transform="translate(282,63)"/>
<path d="M0 0 C2.475 0.495 2.475 0.495 5 1 C5 1.66 5 2.32 5 3 C5.70125 3.061875 6.4025 3.12375 7.125 3.1875 C11.08915867 4.30780571 13.02216113 6.16066526 16 9 C16 9.66 16 10.32 16 11 C13.11811076 10.03937025 11.25783852 9.26643313 9.125 7.0625 C6.32186312 4.34180832 3.63361774 3.39754528 0 2 C0 1.34 0 0.68 0 0 Z " fill="#EB6F1A" transform="translate(174,60)"/>
<path d="M0 0 C2 0 2 0 4.4375 2.1875 C6.73214343 4.70601108 8.2722051 7.09416312 10 10 C10.99 10.66 11.98 11.32 13 12 C13 12.66 13 13.32 13 14 C7.02178659 11.34301626 3.30233847 7.62620628 0 2 C0 1.34 0 0.68 0 0 Z " fill="#FB5733" transform="translate(148,112)"/>
<path d="M0 0 C2.64 0 5.28 0 8 0 C9.0625 1.8125 9.0625 1.8125 10 4 C9.67 4.99 9.34 5.98 9 7 C7.4972763 6.02501855 5.99788037 5.04490611 4.5 4.0625 C3.6646875 3.51722656 2.829375 2.97195312 1.96875 2.41015625 C1.3190625 1.94480469 0.669375 1.47945313 0 1 C0 0.67 0 0.34 0 0 Z " fill="#CE2B35" transform="translate(54,123)"/>
<path d="M0 0 C2.3121965 2.3121965 3.51956308 4.61884015 5.0625 7.5 C5.85333984 8.96953125 5.85333984 8.96953125 6.66015625 10.46875 C7.45541443 11.97116196 8.23977934 13.47955868 9 15 C7.68 14.67 6.36 14.34 5 14 C5 13.34 5 12.68 5 12 C4.34 12 3.68 12 3 12 C3 10.68 3 9.36 3 8 C2.34 8 1.68 8 1 8 C0.67 5.36 0.34 2.72 0 0 Z " fill="#DE2519" transform="translate(143,104)"/>
<path d="M0 0 C3.3 0.33 6.6 0.66 10 1 C5.85444988 4.10916259 2.81249612 5.31562636 -2 7 C-1.67 6.01 -1.34 5.02 -1 4 C0.32 4 1.64 4 3 4 C3 3.34 3 2.68 3 2 C2.01 2 1.02 2 0 2 C0 1.34 0 0.68 0 0 Z " fill="#FDE8EA" transform="translate(68,56)"/>
<path d="M0 0 C0.66 0.33 1.32 0.66 2 1 C1.79375 1.78375 1.5875 2.5675 1.375 3.375 C1.25125 4.24125 1.1275 5.1075 1 6 C1.66 6.66 2.32 7.32 3 8 C2.34 8.66 1.68 9.32 1 10 C-0.65 8.02 -2.3 6.04 -4 4 C-3.34 3.67 -2.68 3.34 -2 3 C-2 2.34 -2 1.68 -2 1 C-1.34 0.67 -0.68 0.34 0 0 Z " fill="#D22934" transform="translate(52,113)"/>
<path d="M0 0 C2.31 0.33 4.62 0.66 7 1 C7 1.66 7 2.32 7 3 C7.99 3 8.98 3 10 3 C10 3.66 10 4.32 10 5 C11.65 5 13.3 5 15 5 C13.32421875 6.140625 13.32421875 6.140625 11 7 C8.45703125 6.171875 8.45703125 6.171875 5.8125 4.75 C4.93207031 4.29109375 4.05164063 3.8321875 3.14453125 3.359375 C1 2 1 2 0 0 Z " fill="#CC303F" transform="translate(65,130)"/>
<path d="M0 0 C0.33 1.32 0.66 2.64 1 4 C0.34 4 -0.32 4 -1 4 C-1.061875 4.928125 -1.12375 5.85625 -1.1875 6.8125 C-2 10 -2 10 -4.4375 11.9375 C-5.283125 12.288125 -6.12875 12.63875 -7 13 C-7.66 12.67 -8.32 12.34 -9 12 C-8.57847656 11.51789063 -8.15695312 11.03578125 -7.72265625 10.5390625 C-7.17480469 9.90742187 -6.62695312 9.27578125 -6.0625 8.625 C-5.51722656 7.99851562 -4.97195313 7.37203125 -4.41015625 6.7265625 C-2.93041376 5.04367666 -2.93041376 5.04367666 -2 3 C-1.34 3 -0.68 3 0 3 C0 2.01 0 1.02 0 0 Z " fill="#FAEAC0" transform="translate(306,109)"/>
<path d="M0 0 C0.99 0 1.98 0 3 0 C3 0.99 3 1.98 3 3 C2.34 3 1.68 3 1 3 C0.566875 4.2065625 0.566875 4.2065625 0.125 5.4375 C-1 8 -1 8 -3 9 C-3.66 7.02 -4.32 5.04 -5 3 C-3.35 3 -1.7 3 0 3 C0 2.01 0 1.02 0 0 Z " fill="#EDA237" transform="translate(303,109)"/>
<path d="M0 0 C0 0.33 0 0.66 0 1 C-2.08047297 1.5321441 -4.16452293 2.05031786 -6.25 2.5625 C-7.41015625 2.85253906 -8.5703125 3.14257812 -9.765625 3.44140625 C-12.72090983 3.95179964 -14.24434101 4.02996165 -17 3 C-16.34 3 -15.68 3 -15 3 C-15 2.34 -15 1.68 -15 1 C-9.92928099 0.28832014 -5.11791642 -0.10662326 0 0 Z " fill="#D03C4B" transform="translate(159,140)"/>
<path d="M0 0 C-0.66 0 -1.32 0 -2 0 C-1.67 0.99 -1.34 1.98 -1 3 C-4.63 3 -8.26 3 -12 3 C-8.61613364 -0.38386636 -4.56431325 -1.75550509 0 0 Z " fill="#FCF1CE" transform="translate(274,138)"/>
<path d="M0 0 C0.99 0.33 1.98 0.66 3 1 C3 1.66 3 2.32 3 3 C3.99 3 4.98 3 6 3 C9 6.33333333 9 6.33333333 9 9 C5.19902189 8.45700313 3.42542103 6.92723228 1 4 C0.25 1.75 0.25 1.75 0 0 Z " fill="#EA6E16" transform="translate(191,71)"/>
<path d="M0 0 C0.33 0.99 0.66 1.98 1 3 C-0.21484375 4.82421875 -0.21484375 4.82421875 -1.9375 6.6875 C-2.50339844 7.31011719 -3.06929687 7.93273437 -3.65234375 8.57421875 C-4.09707031 9.04472656 -4.54179688 9.51523438 -5 10 C-5.99 9.67 -6.98 9.34 -8 9 C-7.67 8.01 -7.34 7.02 -7 6 C-6.01 6 -5.02 6 -4 6 C-3.71125 5.38125 -3.4225 4.7625 -3.125 4.125 C-2 2 -2 2 0 0 Z " fill="#FCE2E0" transform="translate(53,69)"/>
<path d="M0 0 C4.77576339 0.4682121 8.04476345 1.24331998 12 4 C8.69564916 5.12377697 6.9493138 4.89554742 3.75 3.5625 C3.04359375 3.27503906 2.3371875 2.98757812 1.609375 2.69140625 C1.07828125 2.46324219 0.5471875 2.23507813 0 2 C0 1.34 0 0.68 0 0 Z " fill="#E8A83A" transform="translate(176,134)"/>
<path d="M0 0 C0.88492145 2.47778006 1.11637742 3.66056586 0.25 6.1875 C-1 8 -1 8 -4 9 C-3.46930939 5.17902761 -2.50298434 2.93828597 0 0 Z " fill="#F8592F" transform="translate(150,78)"/>
<path d="M0 0 C1.58468677 0.45363171 3.16769924 0.91311452 4.75 1.375 C5.63171875 1.63023438 6.5134375 1.88546875 7.421875 2.1484375 C9.76080572 2.9209934 11.83442562 3.83625676 14 5 C12.02 5.99 12.02 5.99 10 7 C9.649375 6.54625 9.29875 6.0925 8.9375 5.625 C6.22903794 3.35338666 3.39204672 2.83201146 0 2 C0 1.34 0 0.68 0 0 Z " fill="#CA2A31" transform="translate(160,55)"/>
<path d="M0 0 C5.94 0.99 5.94 0.99 12 2 C9 4 9 4 6 3.6875 C3 3 3 3 0 2 C0 1.34 0 0.68 0 0 Z " fill="#FCE6E3" transform="translate(81,139)"/>
<path d="M0 0 C0.99 0.33 1.98 0.66 3 1 C1.87926138 1.83905565 0.75325453 2.67107831 -0.375 3.5 C-1.00148438 3.9640625 -1.62796875 4.428125 -2.2734375 4.90625 C-4 6 -4 6 -6 6 C-6 4.68 -6 3.36 -6 2 C-4.02 2 -2.04 2 0 2 C0 1.34 0 0.68 0 0 Z " fill="#E8A844" transform="translate(294,122)"/>
<path d="M0 0 C1.98 0 3.96 0 6 0 C6 0.99 6 1.98 6 3 C7.32 3.33 8.64 3.66 10 4 C3.49618902 4.36814024 3.49618902 4.36814024 1.0625 2.5625 C0 1 0 1 0 0 Z " fill="#EEA527" transform="translate(256,54)"/>
<path d="M0 0 C3.53600465 1.91135386 5.78972846 3.62642766 8 7 C6.68 7 5.36 7 4 7 C4 6.01 4 5.02 4 4 C3.01 4.33 2.02 4.66 1 5 C0.67 3.35 0.34 1.7 0 0 Z " fill="#DE231C" transform="translate(152,120)"/>
<path d="M0 0 C0.33 1.32 0.66 2.64 1 4 C1.66 4 2.32 4 3 4 C3.33 6.64 3.66 9.28 4 12 C2.29159719 10.36587557 1.06546953 9.13093906 0 7 C-0.04022391 4.6670134 -0.04320247 2.33293334 0 0 Z " fill="#D02738" transform="translate(44,104)"/>
<path d="M0 0 C0.66 0 1.32 0 2 0 C0.66666667 3.33333333 -0.66666667 6.66666667 -2 10 C-3.10773342 6.67679974 -2.93312508 5.30835256 -2 2 C-1.34 1.34 -0.68 0.68 0 0 Z " fill="#FDE2E1" transform="translate(44,80)"/>
<path d="M0 0 C1.60495567 0.11442461 3.20898119 0.24194694 4.8125 0.375 C5.70582031 0.44460937 6.59914062 0.51421875 7.51953125 0.5859375 C10 1 10 1 13 3 C8.07872966 3.16682272 4.49656104 3.24828052 0 1 C0 0.67 0 0.34 0 0 Z " fill="#C12B36" transform="translate(144,52)"/>
<path d="M0 0 C2.64752004 2.57784846 4.94432065 4.91648098 7 8 C5.68 8 4.36 8 3 8 C0 2.25 0 2.25 0 0 Z " fill="#FCE1DC" transform="translate(47,116)"/>
<path d="M0 0 C2.31 0 4.62 0 7 0 C7 0.66 7 1.32 7 2 C7.66 2 8.32 2 9 2 C9 2.66 9 3.32 9 4 C6.03 3.01 3.06 2.02 0 1 C0 0.67 0 0.34 0 0 Z " fill="#FDEECC" transform="translate(271,57)"/>
<path d="M0 0 C-3.99560608 2.83022097 -7.42737323 1.76210446 -12 1 C-12 0.67 -12 0.34 -12 0 C-7.6835078 -0.76173392 -4.25566547 -1.16063604 0 0 Z " fill="#FBE9CC" transform="translate(264,52)"/>
<path d="M0 0 C-4.625 4 -4.625 4 -8 4 C-7 1 -7 1 -4.5625 -0.25 C-2 -1 -2 -1 0 0 Z " fill="#CC3842" transform="translate(74,61)"/>
</svg>
