<?xml version="1.0" encoding="UTF-8"?>
<svg version="1.1" xmlns="http://www.w3.org/2000/svg" viewBox="0 0 350 200" role="img" aria-label="PayPal grayscale logo" preserveAspectRatio="xMidYMid meet">
<path d="M0 0 C115.5 0 231 0 350 0 C350 66 350 132 350 200 C234.5 200 119 200 0 200 C0 134 0 68 0 0 Z " fill="#FDFDFD" transform="translate(0,0)"/>
<path d="M0 0 C1.01503098 -0.00945648 2.03006195 -0.01891296 3.07585144 -0.02865601 C4.72113579 -0.01954697 4.72113579 -0.01954697 6.3996582 -0.01025391 C7.53063431 -0.01312408 8.66161041 -0.01599426 9.82685852 -0.01895142 C12.22344461 -0.02099478 14.62004728 -0.01544601 17.01660156 -0.00292969 C20.66876064 0.01304503 24.31980042 -0.00273148 27.97192383 -0.02197266 C30.30200438 -0.01998882 32.63208424 -0.01614224 34.9621582 -0.01025391 C36.04889328 -0.0163266 37.13562836 -0.02239929 38.2552948 -0.02865601 C48.17501596 0.0623475 54.76302685 2.28266393 62.02856445 9.24755859 C68.11660072 15.81496779 68.22983014 21.62833798 68.44506836 30.23510742 C68.68870937 35.6714225 69.57602604 38.3679947 73.51293945 42.02099609 C74.00793945 42.47216797 74.50293945 42.92333984 75.01293945 43.38818359 C80.24354723 51.75715603 78.76794842 62.77635352 76.88793945 72.07568359 C74.00736096 83.10884273 69.11597209 93.39970395 59.32543945 99.63818359 C53.41174949 102.74894654 47.59716307 103.3485366 41.03173828 103.80712891 C36.55495883 103.93356223 36.55495883 103.93356223 33.01293945 106.38818359 C32.52495748 108.91094778 32.14444705 111.37048346 31.8293457 113.91552734 C31.62186422 115.44485148 31.41417551 116.9741475 31.20629883 118.50341797 C30.88848634 120.91687566 30.5747869 123.3307801 30.265625 125.74536133 C29.96428631 128.07449294 29.64760965 130.40115729 29.3293457 132.72802734 C29.24173477 133.44997787 29.15412384 134.17192841 29.06385803 134.91575623 C28.67830928 137.69743029 28.28574941 139.96015234 26.76342773 142.34863281 C24.31974658 143.79984542 22.52010816 143.72808142 19.6887207 143.68115234 C18.66069336 143.67148438 17.63266602 143.66181641 16.57348633 143.65185547 C15.50163086 143.62671875 14.42977539 143.60158203 13.32543945 143.57568359 C12.24198242 143.56214844 11.15852539 143.54861328 10.04223633 143.53466797 C7.36530541 143.49929003 4.68937108 143.44992548 2.01293945 143.38818359 C0.76966167 137.54477801 1.43992984 133.12121864 3.01293945 127.38818359 C2.26085205 127.39342041 1.50876465 127.39865723 0.73388672 127.40405273 C-2.65225397 127.42475586 -6.03838139 127.43782236 -9.42456055 127.45068359 C-11.20056641 127.46325195 -11.20056641 127.46325195 -13.01245117 127.47607422 C-14.1371582 127.47929687 -15.26186523 127.48251953 -16.4206543 127.48583984 C-17.98384399 127.49369507 -17.98384399 127.49369507 -19.57861328 127.50170898 C-21.98706055 127.38818359 -21.98706055 127.38818359 -22.98706055 126.38818359 C-22.99871435 113.01252971 -20.32579335 99.47230209 -18.48706055 86.26318359 C-18.00254635 82.77187399 -17.51944686 79.280392 -17.04016113 75.7883606 C-16.74391301 73.63076026 -16.44473425 71.47355931 -16.14196777 69.31686401 C-15.30751758 63.24953659 -14.67808688 57.20226992 -14.24171448 51.09292603 C-13.99070853 48.42692969 -13.56530234 45.85756766 -13.0456543 43.23193359 C-12.12627861 38.49642591 -11.53364425 33.77454489 -11.0222168 28.98193359 C-10.942164 28.24330078 -10.86211121 27.50466797 -10.77963257 26.74365234 C-10.44897378 23.67544351 -10.12202844 20.60704121 -9.8125 17.53662109 C-9.58169123 15.26696197 -9.33453057 12.99956858 -9.0847168 10.73193359 C-9.01897964 10.03821655 -8.95324249 9.34449951 -8.88551331 8.62976074 C-8.34458549 3.87663166 -8.34458549 3.87663166 -6.75650024 1.70700073 C-4.40089802 -0.04870114 -2.92344826 0.00781384 0 0 Z " fill="#2C2C2C" transform="translate(25.987060546875,27.61181640625)"/>
<path d="M0 0 C5.40072075 3.80505326 8.38279416 7.51290311 10 14 C11.56532706 29.5829188 7.95754081 44.57194286 -1.1875 57.375 C-8.9548159 64.62449484 -16.64761395 66.69714837 -26.98120117 67.41894531 C-31.45798063 67.54537864 -31.45798063 67.54537864 -35 70 C-35.48798198 72.52276418 -35.8684924 74.98229987 -36.18359375 77.52734375 C-36.39107523 79.05666788 -36.59876395 80.58596391 -36.80664062 82.11523438 C-37.12445311 84.52869206 -37.43815255 86.9425965 -37.74731445 89.35717773 C-38.04865314 91.68630935 -38.3653298 94.0129737 -38.68359375 96.33984375 C-38.77120468 97.06179428 -38.85881561 97.78374481 -38.94908142 98.52757263 C-39.33463017 101.30924669 -39.72719004 103.57196875 -41.24951172 105.96044922 C-43.69319288 107.41166182 -45.49283129 107.33989782 -48.32421875 107.29296875 C-49.35224609 107.28330078 -50.38027344 107.27363281 -51.43945312 107.26367188 C-52.51130859 107.23853516 -53.58316406 107.21339844 -54.6875 107.1875 C-55.77095703 107.17396484 -56.85441406 107.16042969 -57.97070312 107.14648438 C-60.64763405 107.11110643 -63.32356838 107.06174189 -66 107 C-66.98785904 101.80039059 -66.82639337 97.85313289 -65.75 92.6875 C-64.0344037 83.95951559 -63.02689668 75.19230818 -62.09082031 66.3503418 C-61.53175636 61.1829596 -60.91500407 56.03195536 -60.09765625 50.8984375 C-59.95980713 50.02622559 -59.82195801 49.15401367 -59.67993164 48.25537109 C-58.88850203 45.63015502 -58.24473089 44.57093415 -56 43 C-53.70678711 42.61523438 -53.70678711 42.61523438 -51.02734375 42.59375 C-50.04443359 42.57183594 -49.06152344 42.54992187 -48.04882812 42.52734375 C-46.5087207 42.51380859 -46.5087207 42.51380859 -44.9375 42.5 C-32.06870523 42.38384067 -22.85289669 40.40734227 -13.34765625 31.44140625 C-5.23924428 22.83782408 -2.69448147 11.15425011 0 0 Z " fill="#767676" transform="translate(94,64)"/>
<path d="M0 0 C1.00095703 0.00322266 2.00191406 0.00644531 3.03320312 0.00976562 C4.01482422 -0.00634766 4.99644531 -0.02246094 6.0078125 -0.0390625 C12.91485672 -0.04369499 17.95284682 0.54514991 23.45507812 5.04882812 C29.43574241 11.96931109 31.96857557 18.58786565 31.62695312 27.78320312 C30.40668204 38.7995393 25.13136863 47.89160113 16.50195312 54.81445312 C6.57411704 61.7567443 -4.01490298 60.7627667 -15.65429688 60.32226562 C-15.98994844 52.2930953 -15.0751232 44.48456001 -14.00024414 36.54296875 C-13.71462284 34.43119165 -13.43858918 32.31832349 -13.1640625 30.20507812 C-11.78142057 19.71453711 -11.78142057 19.71453711 -10.65429688 15.32226562 C-10.3925329 11.95672877 -10.21121862 8.59163489 -10.03320312 5.22070312 C-9.22603071 -0.95374976 -5.13161307 0.03811461 0 0 Z " fill="#323231" transform="translate(247.654296875,111.677734375)"/>
<path d="M0 0 C0.67629456 -0.00233643 1.35258911 -0.00467285 2.04937744 -0.00708008 C12.93998922 -0.02132845 23.36197986 0.82833688 34 3.25 C35.05640821 14.96439326 31.18263503 25.95964015 24 35.25 C18.08221314 42.31644819 11.08895598 46.47114381 2 48.25 C-1.91312305 48.59601225 -5.82379259 48.71125817 -9.75 48.8125 C-11.80740862 48.87241215 -13.86471326 48.93604386 -15.921875 49.00390625 C-16.82518555 49.02783447 -17.72849609 49.0517627 -18.65917969 49.07641602 C-21.15447069 49.16526539 -21.15447069 49.16526539 -24 50.25 C-23.33023467 41.1054564 -22.30713321 32.02909705 -21.125 22.9375 C-21.00390869 21.94689575 -21.00390869 21.94689575 -20.88037109 20.9362793 C-19.15774737 6.84632191 -19.15774737 6.84632191 -16 1.25 C-11.37881227 -1.06059387 -5.11065168 0.00790534 0 0 Z " fill="#202020" transform="translate(59,58.75)"/>
<path d="M0 0 C4.04142215 -0.11662261 8.08240865 -0.1873935 12.125 -0.25 C13.26710937 -0.28351563 14.40921875 -0.31703125 15.5859375 -0.3515625 C22.03967491 -0.42660596 26.15395487 -0.45836152 31 4 C34.23437579 7.7450667 35.67310109 10.68708114 35.3828125 15.71875 C34.36154781 21.80465389 32.72517761 28.02374687 27.875 32.125 C25 34 25 34 23 35 C24.73990349 40.83325538 27.44210144 45.97601711 30.25390625 51.34179688 C33 56.68812958 33 56.68812958 33 60 C28.05 60 23.1 60 18 60 C14.93973671 52.68937104 11.92319681 45.36641917 9 38 C8.91435791 38.63091553 8.82871582 39.26183105 8.74047852 39.91186523 C8.35216286 42.75435681 7.95741919 45.59591869 7.5625 48.4375 C7.42779297 49.43072266 7.29308594 50.42394531 7.15429688 51.44726562 C7.02216797 52.39150391 6.89003906 53.33574219 6.75390625 54.30859375 C6.63345947 55.18314209 6.5130127 56.05769043 6.38891602 56.95874023 C6 59 6 59 5 60 C1.00015522 60.14346646 -2.99829982 60.04212316 -7 60 C-6.36467642 47.28515046 -4.62467651 34.73360558 -2.9375 22.125 C-2.6526138 19.97270665 -2.36810567 17.82036321 -2.08398438 15.66796875 C-1.39367811 10.44472748 -0.69871703 5.22212246 0 0 Z " fill="#333332" transform="translate(164,112)"/>
<path d="M0 0 C0.97324219 -0.02449219 1.94648438 -0.04898437 2.94921875 -0.07421875 C9.22799267 -0.09957046 14.25084654 0.53030044 19.375 4.375 C23.7903478 9.63676823 22.94297718 15.86692818 22.375 22.375 C21.07280775 28.98362569 17.21730481 34.75014458 11.63671875 38.5625 C8.41946297 39.71826719 5.52982406 39.5630523 2.125 39.5 C0.23007812 39.47292969 0.23007812 39.47292969 -1.703125 39.4453125 C-3.14945312 39.41050781 -3.14945312 39.41050781 -4.625 39.375 C-4.75777344 40.66277344 -4.89054687 41.95054688 -5.02734375 43.27734375 C-5.20549899 44.95575362 -5.38389692 46.63413773 -5.5625 48.3125 C-5.69301758 49.58770508 -5.69301758 49.58770508 -5.82617188 50.88867188 C-5.91318359 51.69755859 -6.00019531 52.50644531 -6.08984375 53.33984375 C-6.168396 54.0887085 -6.24694824 54.83757324 -6.32788086 55.60913086 C-6.625 57.375 -6.625 57.375 -7.625 58.375 C-9.47787502 58.44726502 -11.33333878 58.4588122 -13.1875 58.4375 C-14.19941406 58.42847656 -15.21132812 58.41945312 -16.25390625 58.41015625 C-17.03636719 58.39855469 -17.81882813 58.38695312 -18.625 58.375 C-18.83602096 52.46641314 -18.41544426 46.79253271 -17.6875 40.9375 C-17.60064941 40.22722656 -17.51379883 39.51695313 -17.42431641 38.78515625 C-16.75438977 33.63377954 -16.75438977 33.63377954 -15.625 31.375 C-15.35606088 29.22348703 -15.1365921 27.06570336 -14.94140625 24.90625 C-14.81830078 23.61332031 -14.69519531 22.32039063 -14.56835938 20.98828125 C-14.37619551 18.92787122 -14.18681187 16.86729692 -14.00268555 14.80615234 C-13.82343033 12.81796265 -13.63258579 10.83082853 -13.44140625 8.84375 C-13.33256104 7.65201172 -13.22371582 6.46027344 -13.11157227 5.23242188 C-11.93343115 -1.6862754 -5.6505896 0.00730995 0 0 Z " fill="#7B7C7B" transform="translate(267.625,26.625)"/>
<path d="M0 0 C3.52067351 -0.08782542 7.04106144 -0.14066643 10.5625 -0.1875 C11.55314453 -0.21263672 12.54378906 -0.23777344 13.56445312 -0.26367188 C19.52261731 -0.32305557 23.76997097 0.06115546 29 3 C33.45871746 7.81072147 34.29792024 10.81546604 34.21484375 17.203125 C33.63765354 24.71709208 31.47386123 30.78073697 26 36 C20.41027133 40.05255329 13.66489907 39.71323135 7 40 C6.87882813 41.13179687 6.75765625 42.26359375 6.6328125 43.4296875 C6.46399724 44.91151031 6.29470145 46.39327842 6.125 47.875 C6.00705078 48.99455078 6.00705078 48.99455078 5.88671875 50.13671875 C5.2265625 55.7734375 5.2265625 55.7734375 3 58 C0.6171875 58.1953125 0.6171875 58.1953125 -2.125 58.125 C-3.73375 58.08375 -5.3425 58.0425 -7 58 C-7 53.05 -7 48.1 -7 43 C-6.34 43 -5.68 43 -5 43 C-4.95101562 42.10023437 -4.90203125 41.20046875 -4.8515625 40.2734375 C-4.36747016 31.94371065 -3.76856994 23.62643899 -3.0625 15.3125 C-2.98789551 14.36874512 -2.91329102 13.42499023 -2.83642578 12.45263672 C-2.44247893 7.97421029 -2.05329914 4.08082465 0 0 Z " fill="#343433" transform="translate(134,27)"/>
<path d="M0 0 C1.29808594 -0.02578125 2.59617188 -0.0515625 3.93359375 -0.078125 C7.5625 0.25 7.5625 0.25 12.5625 3.25 C11.9025 8.53 11.2425 13.81 10.5625 19.25 C5.5625 17.25 5.5625 17.25 3.5625 16.25 C-1.35604054 15.56140432 -4.54692431 15.68926716 -8.8125 18.375 C-14.3326998 24.42093311 -14.79254962 29.14580822 -14.93359375 37.12890625 C-14.33452484 40.89785162 -13.06946879 42.53961129 -10.4375 45.25 C-7.2538567 46.84182165 -3.90323357 46.64912479 -0.4375 46.25 C2.38030534 44.86114752 2.38030534 44.86114752 4.5625 43.25 C5.2225 43.25 5.8825 43.25 6.5625 43.25 C6.50231983 45.50073828 6.41348794 47.75072325 6.3125 50 C6.26609375 51.25296875 6.2196875 52.5059375 6.171875 53.796875 C5.48460642 57.69139695 4.63887286 58.86754583 1.5625 61.25 C-3.20683919 63.6346696 -10.61613996 63.0804003 -15.640625 61.6015625 C-23.09516296 57.67281952 -27.21441283 50.98433988 -29.7421875 43.19921875 C-32.21303747 32.71892814 -30.3135893 21.89332267 -24.89453125 12.60546875 C-18.26591487 3.45888826 -11.08825112 0.13187216 0 0 Z " fill="#313030" transform="translate(147.4375,110.75)"/>
<path d="M0 0 C1.59134766 -0.03867187 1.59134766 -0.03867187 3.21484375 -0.078125 C6.0625 0.25 6.0625 0.25 7.94140625 1.765625 C8.31136719 2.25546875 8.68132812 2.7453125 9.0625 3.25 C9.3925 2.59 9.7225 1.93 10.0625 1.25 C13.6925 1.25 17.3225 1.25 21.0625 1.25 C21.39850227 9.42605519 20.71979471 17.20485611 19.6875 25.3125 C19.56141357 26.33609619 19.43532715 27.35969238 19.30541992 28.41430664 C19.17627197 29.38231201 19.04712402 30.35031738 18.9140625 31.34765625 C18.79885254 32.21914307 18.68364258 33.09062988 18.56494141 33.98852539 C18.0625 36.25 18.0625 36.25 16.0625 39.25 C13.6796875 39.54296875 13.6796875 39.54296875 10.9375 39.4375 C10.02742188 39.41042969 9.11734375 39.38335937 8.1796875 39.35546875 C7.48101562 39.32066406 6.78234375 39.28585938 6.0625 39.25 C5.7325 38.26 5.4025 37.27 5.0625 36.25 C4.44375 36.91 3.825 37.57 3.1875 38.25 C-1.19704125 41.0561064 -4.8639949 41.30105324 -9.9375 40.25 C-14.70361547 37.62252609 -17.30374734 34.43372925 -18.9375 29.25 C-19.85776864 21.58822855 -19.23906261 14.77091955 -14.9375 8.25 C-10.26798731 2.72770326 -7.3588437 0.10703773 0 0 Z " fill="#343433" transform="translate(183.9375,45.75)"/>
<path d="M0 0 C0.96808594 -0.01417969 1.93617188 -0.02835938 2.93359375 -0.04296875 C5.5625 0.1875 5.5625 0.1875 8.5625 2.1875 C8.5625 2.8475 8.5625 3.5075 8.5625 4.1875 C9.2225 4.1875 9.8825 4.1875 10.5625 4.1875 C10.5625 3.1975 10.5625 2.2075 10.5625 1.1875 C14.1925 1.1875 17.8225 1.1875 21.5625 1.1875 C21.01674004 6.4391596 20.46528151 11.69017686 19.90844727 16.94067383 C19.71968906 18.72826772 19.53251096 20.51602918 19.34692383 22.30395508 C19.08045461 24.86845487 18.8083761 27.43230552 18.53515625 29.99609375 C18.4116555 31.20234657 18.4116555 31.20234657 18.28565979 32.43296814 C17.67637171 38.07362829 17.67637171 38.07362829 16.5625 39.1875 C14.70962498 39.25976502 12.85416122 39.2713122 11 39.25 C9.98808594 39.24097656 8.97617187 39.23195312 7.93359375 39.22265625 C6.75990234 39.20525391 6.75990234 39.20525391 5.5625 39.1875 C5.2325 38.5275 4.9025 37.8675 4.5625 37.1875 C3.94375 37.6825 3.325 38.1775 2.6875 38.6875 C-1.72905566 40.80744672 -5.62147319 41.01200379 -10.4375 40.1875 C-13.76463073 38.53414056 -15.86876053 36.30726733 -17.56640625 32.96484375 C-19.5541572 26.62721627 -19.58369998 18.71956689 -17.52734375 12.3828125 C-13.70814329 5.08826242 -8.44723422 0.05609053 0 0 Z " fill="#7B7B7A" transform="translate(306.4375,45.8125)"/>
<path d="M0 0 C1.12591553 0.00523682 2.25183105 0.01047363 3.41186523 0.01586914 C4.62680664 0.0190918 5.84174805 0.02231445 7.09350586 0.02563477 C8.37290039 0.03401367 9.65229492 0.04239258 10.97045898 0.05102539 C12.2537207 0.05553711 13.53698242 0.06004883 14.85913086 0.06469727 C18.04211921 0.07652994 21.22501661 0.09301471 24.40795898 0.11352539 C24.43520048 1.53008332 24.45446365 2.94679584 24.47045898 4.36352539 C24.48206055 5.15243164 24.49366211 5.94133789 24.50561523 6.75415039 C24.40795898 9.11352539 24.40795898 9.11352539 23.40795898 13.11352539 C18.45795898 13.11352539 13.50795898 13.11352539 8.40795898 13.11352539 C8.07795898 16.41352539 7.74795898 19.71352539 7.40795898 23.11352539 C12.02795898 23.11352539 16.64795898 23.11352539 21.40795898 23.11352539 C20.53295898 34.98852539 20.53295898 34.98852539 19.40795898 36.11352539 C17.05808636 36.34880312 14.7023986 36.52738956 12.34545898 36.67602539 C11.05510742 36.75981445 9.76475586 36.84360352 8.43530273 36.92993164 C7.4362793 36.99051758 6.43725586 37.05110352 5.40795898 37.11352539 C5.07795898 40.08352539 4.74795898 43.05352539 4.40795898 46.11352539 C9.35795898 46.11352539 14.30795898 46.11352539 19.40795898 46.11352539 C18.88490465 50.52212618 18.28047083 54.75096617 17.40795898 59.11352539 C8.16795898 59.11352539 -1.07204102 59.11352539 -10.59204102 59.11352539 C-9.70064189 51.57503512 -8.8084647 44.03671868 -7.90824127 36.49929047 C-7.48930113 32.98953631 -7.0719088 29.47961363 -6.65820312 25.96923828 C-6.18388339 21.94514241 -5.70261613 17.92190451 -5.22094727 13.89868164 C-4.99901451 12.00340477 -4.99901451 12.00340477 -4.77259827 10.06983948 C-4.63252853 8.9087114 -4.4924588 7.74758331 -4.34814453 6.55126953 C-4.22601089 5.52312637 -4.10387726 4.49498322 -3.9780426 3.4356842 C-3.43734694 0.18289654 -3.33818195 0.14620463 0 0 Z " fill="#30302F" transform="translate(209.592041015625,111.886474609375)"/>
<path d="M0 0 C10.89 0 21.78 0 33 0 C32.67 4.29 32.34 8.58 32 13 C28.37 13.33 24.74 13.66 21 14 C20.86722656 15.423125 20.73445313 16.84625 20.59765625 18.3125 C20.41933473 20.20833934 20.24094573 22.10417234 20.0625 24 C19.97548828 24.93457031 19.88847656 25.86914062 19.79882812 26.83203125 C18.30088682 42.69911318 18.30088682 42.69911318 17 44 C16.79031249 46.32986123 16.63184611 48.66444036 16.5 51 C16.11111111 57.88888889 16.11111111 57.88888889 15 59 C12.81360547 59.07258946 10.62499611 59.08373783 8.4375 59.0625 C6.64119141 59.04896484 6.64119141 59.04896484 4.80859375 59.03515625 C3.88175781 59.02355469 2.95492188 59.01195312 2 59 C2.43313019 53.31231678 3.01133016 47.6924458 3.9375 42.0625 C5.03554991 35.27753491 5.69092909 28.47008747 6.30249023 21.62719727 C6.37927002 20.79760498 6.4560498 19.9680127 6.53515625 19.11328125 C6.600979 18.36860596 6.66680176 17.62393066 6.73461914 16.85668945 C7 15 7 15 8 13 C4.7 13 1.4 13 -2 13 C-2.2062504 7.84374012 -1.69930719 5.09792156 0 0 Z " fill="#313131" transform="translate(303,112)"/>
<path d="M0 0 C3.63 0 7.26 0 11 0 C12.64476495 4.11191236 13.93281042 8.06035715 15.125 12.3125 C15.47820312 13.56675781 15.83140625 14.82101563 16.1953125 16.11328125 C16.46085937 17.06589844 16.72640625 18.01851562 17 19 C17.29769287 18.45996338 17.59538574 17.91992676 17.90209961 17.36352539 C19.24547302 14.92887423 20.59145055 12.4956726 21.9375 10.0625 C22.40607422 9.21236328 22.87464844 8.36222656 23.35742188 7.48632812 C24.0293457 6.27299805 24.0293457 6.27299805 24.71484375 5.03515625 C25.12855225 4.2862915 25.54226074 3.53742676 25.96850586 2.76586914 C27 1 27 1 28 0 C29.85287502 -0.07226502 31.70833878 -0.0838122 33.5625 -0.0625 C34.57441406 -0.05347656 35.58632812 -0.04445312 36.62890625 -0.03515625 C37.41136719 -0.02355469 38.19382813 -0.01195312 39 0 C38.40719689 3.89650006 37.23325492 6.76113299 35.296875 10.18359375 C34.73524658 11.18398682 34.17361816 12.18437988 33.5949707 13.21508789 C31.04213222 17.67385659 28.48739049 22.13150517 25.92529297 26.58496094 C24.07221162 29.87191273 22.30960405 33.19281331 20.56640625 36.5390625 C19.48216004 38.5470852 18.39754158 40.55490697 17.3125 42.5625 C16.60335449 43.98937134 16.60335449 43.98937134 15.87988281 45.44506836 C14.42501115 48.06779452 13.26170716 50.02529087 11 52 C7.20807429 52.77063187 3.80927393 52.57860772 0 52 C0.28911896 46.50673979 2.65383896 43.24318592 5.8203125 38.953125 C8.83768725 31.39969682 5.23403851 22.5886415 2.9375 15.1875 C2.3778975 13.37039258 1.82429275 11.55142485 1.27734375 9.73046875 C1.03234131 8.94051514 0.78733887 8.15056152 0.53491211 7.33666992 C0 5 0 5 0 0 Z " fill="#343333" transform="translate(210,47)"/>
<path d="M0 0 C3.35286458 0.03255208 6.70572917 0.06510417 10.05859375 0.09765625 C8.80886812 12.44824767 7.40922035 24.7713375 5.82641602 37.08374023 C5.48875278 39.71741364 5.15738854 42.35183704 4.82617188 44.98632812 C4.61105235 46.67062089 4.39557216 48.35486764 4.1796875 50.0390625 C4.081754 50.82221329 3.9838205 51.60536407 3.88291931 52.4122467 C3.17314742 57.86854892 3.17314742 57.86854892 2.05859375 60.09765625 C-1.90140625 60.09765625 -5.86140625 60.09765625 -9.94140625 60.09765625 C-10.09828136 52.80296355 -9.85945717 46.29362291 -8.48046875 39.15112305 C-7.50147736 33.6057221 -6.96702221 28.00814888 -6.37890625 22.41015625 C-5.90264075 17.97233879 -5.42434088 13.53475315 -4.94140625 9.09765625 C-4.85004395 8.2473584 -4.75868164 7.39706055 -4.66455078 6.52099609 C-3.93458917 0.13063045 -3.93458917 0.13063045 0 0 Z " fill="#363635" transform="translate(288.94140625,111.90234375)"/>
<path d="M0 0 C0.8146875 0.00257812 1.629375 0.00515625 2.46875 0.0078125 C3.2834375 0.00523438 4.098125 0.00265625 4.9375 0 C6.96875 0.1328125 6.96875 0.1328125 7.96875 1.1328125 C8.19527166 6.11628894 7.63525542 10.75559099 6.71875 15.6328125 C5.61514788 21.7790481 4.71283206 27.93532437 3.94921875 34.1328125 C3.86272064 34.83055786 3.77622253 35.52830322 3.68710327 36.24719238 C3.25136247 39.7787461 2.82711573 43.31131347 2.41503906 46.84570312 C2.25616211 48.14701172 2.09728516 49.44832031 1.93359375 50.7890625 C1.7955835 51.96275391 1.65757324 53.13644531 1.51538086 54.34570312 C0.96875 57.1328125 0.96875 57.1328125 -1.03125 59.1328125 C-3.74579956 59.46033484 -6.28355759 59.263655 -9.03125 59.1328125 C-10.03125 58.1328125 -10.03125 58.1328125 -10.21875 54.7578125 C-10.18172512 51.43950335 -9.75917635 48.36963224 -9.11328125 45.1171875 C-7.96848847 39.02349268 -7.22723473 32.91656719 -6.53125 26.7578125 C-3.43387213 0.22452241 -3.43387213 0.22452241 0 0 Z " fill="#7B7B7A" transform="translate(339.03125,26.8671875)"/>
<path d="M0 0 C5.74508317 -0.19082127 8.50752966 0.23886204 13 4 C16.15057481 9.06878192 15.60314995 14.78657925 14.53515625 20.4765625 C12.9516636 26.07969034 10.83471243 28.77685838 6 32 C2.52674819 33.1577506 -0.36067448 33.06866652 -4 33 C-3.33432507 21.91306929 -1.63964829 10.97623447 0 0 Z " fill="#F7F7F8" transform="translate(250,125)"/>
<path d="M0 0 C2.06640625 0.48046875 2.06640625 0.48046875 4.19140625 2.54296875 C5.62119601 7.34297724 4.84389738 10.92548649 2.62890625 15.35546875 C1.06640625 17.48046875 1.06640625 17.48046875 -0.93359375 18.48046875 C-2.80859375 18.68359375 -2.80859375 18.68359375 -4.93359375 18.73046875 C-5.63484375 18.75625 -6.33609375 18.78203125 -7.05859375 18.80859375 C-7.67734375 18.7003125 -8.29609375 18.59203125 -8.93359375 18.48046875 C-11.77705375 14.21527874 -11.54696515 10.48303029 -10.93359375 5.48046875 C-8.51562711 0.22401954 -5.41794297 -0.33025353 0 0 Z " fill="#F7F7F7" transform="translate(187.93359375,56.51953125)"/>
<path d="M0 0 C3.875 0.6875 3.875 0.6875 5.875 2.75 C7.12276118 6.41529846 7.41569251 8.83506587 6.875 12.6875 C4.875 16.125 4.875 16.125 1.875 18.6875 C-1.19173462 19.46909968 -2.87625894 19.21149049 -6.125 18.6875 C-8.125 17.1875 -8.125 17.1875 -9.125 14.6875 C-9.71823795 10.0899059 -9.83030867 7.04439276 -7.125 3.1875 C-4.19781884 0.74818237 -3.5554856 0.24271765 0 0 Z " fill="#FBFBFB" transform="translate(308.125,56.3125)"/>
<path d="M0 0 C3.6875 0.25 3.6875 0.25 6.125 1.3125 C7.6875 3.25 7.6875 3.25 8.25 6.625 C7.6875 10.25 7.6875 10.25 5.6875 13.1875 C1.65718211 15.95834355 -0.51089142 15.65691598 -5.3125 15.25 C-5.17223717 12.93715544 -5.02514442 10.62472409 -4.875 8.3125 C-4.79378906 7.02472656 -4.71257812 5.73695312 -4.62890625 4.41015625 C-4.21922808 0.31843231 -4.21922808 0.31843231 0 0 Z " fill="#EFEFF0" transform="translate(147.3125,38.75)"/>
<path d="M0 0 C4.34263862 -0.16702456 7.20960634 -0.12999997 11 2 C11.61189802 9.95467422 11.61189802 9.95467422 9.5 13.5625 C5.85665449 15.65742367 3.16543193 15.27769546 -1 15 C-1.10251672 9.87416389 -1.03590199 5.05002222 0 0 Z " fill="#F8F8F8" transform="translate(266,39)"/>
<path d="M0 0 C3.5625 0.1875 3.5625 0.1875 5.5625 2.1875 C6.14105736 6.5680057 6.0584561 8.50191362 3.4375 12.125 C0.07480379 14.53736902 -1.41746523 14.3712412 -5.4375 14.1875 C-5.29720581 12.0412974 -5.15011836 9.89553782 -5 7.75 C-4.91878906 6.55503906 -4.83757812 5.36007813 -4.75390625 4.12890625 C-4.3023593 -0.068808 -4.320645 0.23567155 0 0 Z " fill="#F4F4F5" transform="translate(179.4375,123.8125)"/>
<path d="M0 0 C0.33 0 0.66 0 1 0 C1 1.98 1 3.96 1 6 C1.66 6 2.32 6 3 6 C3 6.66 3 7.32 3 8 C4.98 8 6.96 8 9 8 C9 8.33 9 8.66 9 9 C2.84765625 9.09765625 2.84765625 9.09765625 1 9 C0 8 0 8 -0.09765625 6.15234375 C-0.06510417 4.1015625 -0.03255208 2.05078125 0 0 Z " fill="#B0B2AF" transform="translate(329,77)"/>
</svg>
