<?xml version="1.0" encoding="UTF-8"?>
<svg version="1.1" xmlns="http://www.w3.org/2000/svg" width="350" height="200" viewBox="0 0 350 200" preserveAspectRatio="xMidYMid meet">
<path d="M0 0 C115.5 0 231 0 350 0 C350 66 350 132 350 200 C234.5 200 119 200 0 200 C0 134 0 68 0 0 Z " fill="#FDFDFD" transform="translate(0,0)"/>
<path d="M0 0 C0 28.38 0 56.76 0 86 C-85.14 86 -170.28 86 -258 86 C-254.23466817 84.11733408 -251.71486453 83.45421508 -247.625 82.75 C-246.18196981 82.49137277 -244.73929079 82.23078216 -243.296875 81.96875 C-242.47123047 81.81921875 -241.64558594 81.6696875 -240.79492188 81.515625 C-207.09520599 75.29848664 -172.93418678 68.44927746 -140.51953125 57.1875 C-135.74378696 55.5761501 -130.91495307 54.17383413 -126.07006836 52.78662109 C-117.89991511 50.43462239 -109.9054066 47.64719889 -101.9375 44.6875 C-101.10951904 44.38046143 -100.28153809 44.07342285 -99.4284668 43.75708008 C-97.74278725 43.13159871 -96.05731863 42.50554856 -94.37207031 41.87890625 C-92.26879633 41.09959518 -90.16264355 40.32902947 -88.0546875 39.5625 C-71.45513921 33.46329228 -55.05411564 26.69688606 -39.12207031 19.01611328 C-36.55426317 17.78656734 -33.97633062 16.57934702 -31.3984375 15.37109375 C-17.42014069 8.79377077 -17.42014069 8.79377077 -4.01171875 1.14453125 C-2 0 -2 0 0 0 Z " fill="#F48121" transform="translate(350,114)"/>
<path d="M0 0 C0.04898438 0.85464844 0.09796875 1.70929687 0.1484375 2.58984375 C0.22320312 3.69457031 0.29796875 4.79929687 0.375 5.9375 C0.47941406 7.59072266 0.47941406 7.59072266 0.5859375 9.27734375 C0.79089844 10.62505859 0.79089844 10.62505859 1 12 C1.66 12.33 2.32 12.66 3 13 C3.33 12.34 3.66 11.68 4 11 C4.66 11.33 5.32 11.66 6 12 C6.26296875 11.40316406 6.5259375 10.80632813 6.796875 10.19140625 C8.05857955 7.89330153 9.2580727 6.61987103 11.25 4.9375 C11.81203125 4.45152344 12.3740625 3.96554688 12.953125 3.46484375 C18.56284278 -0.54974436 23.07709434 -1.55619277 29.8125 -1.5 C31.01289917 -1.49033203 31.01289917 -1.49033203 32.23754883 -1.48046875 C39.88239523 -1.24358838 44.5643334 0.6363188 50.05078125 6.0078125 C55.48031507 11.90522198 56.28988057 16.03269782 56.22265625 23.984375 C55.81984843 29.43994761 53.73496366 33.94025689 50 38 C49.34 38 48.68 38 48 38 C48 38.66 48 39.32 48 40 C46.75264433 40.6509259 45.50198168 41.29551669 44.25 41.9375 C43.20585937 42.47697266 43.20585937 42.47697266 42.140625 43.02734375 C35.56760275 46.01399072 27.34887143 46.15661474 20.4296875 44.31640625 C16.39285997 42.62150131 13.16205391 40.41333077 9.75 37.6875 C6.80496652 35.25823086 6.80496652 35.25823086 3 35.125 C2.34 35.41375 1.68 35.7025 1 36 C0.67 38.31 0.34 40.62 0 43 C-7.76935971 45.95069098 -16.23119856 46.5257844 -24.2109375 43.97265625 C-30.77469742 40.7267421 -34.74055793 36.53132477 -38 30 C-39.86782568 24.39652297 -39.58429086 18.84512904 -37.8125 13.25 C-33.9782836 6.37485334 -29.44321208 2.06661027 -22.3125 -1.25 C-14.66526704 -2.98144897 -7.43929636 -2.24582532 0 0 Z " fill="#F79746" transform="translate(153,51)"/>
<path d="M0 0 C0.04898438 0.85464844 0.09796875 1.70929687 0.1484375 2.58984375 C0.22320312 3.69457031 0.29796875 4.79929687 0.375 5.9375 C0.47941406 7.59072266 0.47941406 7.59072266 0.5859375 9.27734375 C0.79089844 10.62505859 0.79089844 10.62505859 1 12 C1.66 12.33 2.32 12.66 3 13 C3.33 12.34 3.66 11.68 4 11 C4.93423645 14.01031744 5.04449911 14.86650268 4 18 C3.49643283 24.16869788 5.05067698 29.23325274 7 35 C4.03 35.495 4.03 35.495 1 36 C0.67 38.31 0.34 40.62 0 43 C-7.76935971 45.95069098 -16.23119856 46.5257844 -24.2109375 43.97265625 C-30.77469742 40.7267421 -34.74055793 36.53132477 -38 30 C-39.86782568 24.39652297 -39.58429086 18.84512904 -37.8125 13.25 C-33.9782836 6.37485334 -29.44321208 2.06661027 -22.3125 -1.25 C-14.66526704 -2.98144897 -7.43929636 -2.24582532 0 0 Z " fill="#F6F7F6" transform="translate(153,51)"/>
<path d="M0 0 C27.90377475 0 27.90377475 0 36.62890625 8.453125 C41.16074995 13.5659743 41.54029327 18.41429315 41.34375 25.03125 C40.54073326 31.96639457 37.30473986 36.25580095 32.07421875 40.67578125 C25.00761333 45.18722991 19.30000572 45.38536824 11.0625 45.1875 C7.411875 45.125625 3.76125 45.06375 0 45 C0 30.15 0 15.3 0 0 Z " fill="#090909" transform="translate(17,50)"/>
<path d="M0 0 C23.7 0 23.7 0 28.875 4.5 C32.13267238 8.33255574 32.34439448 10.77419123 32.28125 15.67578125 C31.84395785 19.28951498 30.40621755 21.33365082 28 24 C25.25 25.375 25.25 25.375 23 26 C24.525337 29.42212913 26.55445212 32.0574291 28.9375 34.9375 C31.6071683 38.16605213 33.92229122 41.35912473 36 45 C31.65434294 46.10952946 28.31837949 46.31302079 24 45 C19.10386445 40.68712892 15.0802057 34.73288016 12 29 C12 28.34 12 27.68 12 27 C11.34 27 10.68 27 10 27 C10 32.94 10 38.88 10 45 C6.7 45 3.4 45 0 45 C0 30.15 0 15.3 0 0 Z " fill="#0A0A0A" transform="translate(294,50)"/>
<path d="M0 0 C9.24 0 18.48 0 28 0 C28 2.64 28 5.28 28 8 C22.06 8 16.12 8 10 8 C10 11.3 10 14.6 10 18 C15.61 18 21.22 18 27 18 C27 20.31 27 22.62 27 25 C21.39 25 15.78 25 10 25 C10 29.29 10 33.58 10 38 C15.94 38 21.88 38 28 38 C28 40.31 28 42.62 28 45 C18.76 45 9.52 45 0 45 C0 30.15 0 15.3 0 0 Z " fill="#0A0A0A" transform="translate(260,50)"/>
<path d="M0 0 C2.18359375 1.1015625 2.18359375 1.1015625 5.37109375 3.1015625 C3.60546875 6.9296875 3.60546875 6.9296875 1.49609375 8.4765625 C-1.32363903 9.30589567 -2.08225553 8.44978935 -4.62890625 7.1015625 C-8.72749871 6.76698352 -10.1408653 6.77620187 -13.62890625 9.1015625 C-13.29890625 11.0815625 -12.96890625 13.0615625 -12.62890625 15.1015625 C-11.90445313 15.27171875 -11.18 15.441875 -10.43359375 15.6171875 C-3.6001375 17.3301072 0.99208242 19.0604523 6.24609375 23.7890625 C8.05809729 27.51373644 7.99146434 31.04800468 7.37109375 35.1015625 C5.39398318 39.2930369 2.87451923 42.2486552 -1.3046875 44.40625 C-7.00617353 46.11190464 -14.14267895 46.41049399 -19.76171875 44.30078125 C-21.31640625 43.2890625 -21.31640625 43.2890625 -23.62890625 41.1015625 C-24.55703125 40.2353125 -24.55703125 40.2353125 -25.50390625 39.3515625 C-26.06078125 38.7328125 -26.06078125 38.7328125 -26.62890625 38.1015625 C-25.58015627 35.47968756 -24.97959312 34.30784889 -22.50390625 32.8515625 C-21.88515625 32.6040625 -21.26640625 32.3565625 -20.62890625 32.1015625 C-20.03078125 32.7615625 -19.43265625 33.4215625 -18.81640625 34.1015625 C-14.18728956 37.00610631 -9.95621651 36.43743495 -4.62890625 36.1015625 C-4.29890625 33.7915625 -3.96890625 31.4815625 -3.62890625 29.1015625 C-7.60851535 25.80116553 -11.96363459 24.29478414 -16.75390625 22.48046875 C-20.39374463 20.73473105 -22.81311402 18.73314695 -24.62890625 15.1015625 C-25.09471901 10.44343489 -25.3794051 7.46338008 -22.37890625 3.7265625 C-16.26898301 -2.10563696 -7.96815566 -2.72314384 0 0 Z " fill="#0B0B0B" transform="translate(103.62890625,50.8984375)"/>
<path d="M0 0 C3.3 0 6.6 0 10 0 C14.7233751 9.19520951 19.03849431 18.45175551 23 28 C25.4044295 25.0312834 26.95650162 22.12555719 28.4453125 18.61328125 C29.10080078 17.0828418 29.10080078 17.0828418 29.76953125 15.52148438 C30.44048828 13.93303711 30.44048828 13.93303711 31.125 12.3125 C32.02139557 10.20355801 32.91972704 8.09543744 33.8203125 5.98828125 C34.21492676 5.05540283 34.60954102 4.12252441 35.01611328 3.16137695 C36 1 36 1 37 0 C38.68608966 -0.07205511 40.37500659 -0.08386068 42.0625 -0.0625 C42.98160156 -0.05347656 43.90070313 -0.04445312 44.84765625 -0.03515625 C45.55792969 -0.02355469 46.26820313 -0.01195312 47 0 C46.36727668 4.36362689 44.73343795 8.0045692 42.796875 11.91796875 C42.47720764 12.57525467 42.15754028 13.23254059 41.82818604 13.90974426 C40.80750761 16.005008 39.77885259 18.09624004 38.75 20.1875 C38.07370033 21.57331483 37.39791427 22.95938043 36.72265625 24.34570312 C33.19131866 31.5852038 29.62162919 38.8051879 26 46 C24.02 46 22.04 46 20 46 C16.92382812 39.23242188 13.84765625 32.46484375 10.77148438 25.69726562 C10.43929901 24.96661896 10.10711365 24.23597229 9.76486206 23.48318481 C9.10366549 22.028228 8.44295634 20.57304958 7.78274536 19.11764526 C6.33168411 15.92016506 4.8733685 12.72696167 3.39599609 9.54150391 C2.93918457 8.55456543 2.48237305 7.56762695 2.01171875 6.55078125 C1.61815186 5.70813721 1.22458496 4.86549316 0.8190918 3.99731445 C0 2 0 2 0 0 Z " fill="#0B0B0B" transform="translate(208,50)"/>
<path d="M0 0 C1.87365234 -0.00386719 1.87365234 -0.00386719 3.78515625 -0.0078125 C6.9375 0.125 6.9375 0.125 8.9375 1.125 C8.9375 2.115 8.9375 3.105 8.9375 4.125 C9.55625 3.91875 10.175 3.7125 10.8125 3.5 C11.864375 3.314375 11.864375 3.314375 12.9375 3.125 C14.9375 5.125 14.9375 5.125 15.1328125 7.9453125 C15.10960937 9.03585938 15.08640625 10.12640625 15.0625 11.25 C15.04445312 12.34570312 15.02640625 13.44140625 15.0078125 14.5703125 C14.98460937 15.41335937 14.96140625 16.25640625 14.9375 17.125 C15.5975 17.455 16.2575 17.785 16.9375 18.125 C15.9475 21.095 14.9575 24.065 13.9375 27.125 C9.9775 27.62 9.9775 27.62 5.9375 28.125 C5.9375 28.785 5.9375 29.445 5.9375 30.125 C4.04239301 30.20660748 2.14625496 30.26446459 0.25 30.3125 C-1.33361328 30.36470703 -1.33361328 30.36470703 -2.94921875 30.41796875 C-7.20139939 30.01782628 -9.69694456 28.30220296 -12.875 25.5625 C-14.0625 24.125 -14.0625 24.125 -14.0625 22.125 C-15.0525 22.455 -16.0425 22.785 -17.0625 23.125 C-17.0625 18.175 -17.0625 13.225 -17.0625 8.125 C-15.7425 7.465 -14.4225 6.805 -13.0625 6.125 C-13.0625 5.465 -13.0625 4.805 -13.0625 4.125 C-12.4025 4.125 -11.7425 4.125 -11.0625 4.125 C-10.7325 3.135 -10.4025 2.145 -10.0625 1.125 C-6.54512679 -0.04745774 -3.7049868 -0.00766285 0 0 Z " fill="#FCBE8C" transform="translate(183.0625,57.875)"/>
<path d="M0 0 C0 2.97 0 5.94 0 9 C-1.7634375 8.2575 -1.7634375 8.2575 -3.5625 7.5 C-9.17567048 5.43822033 -13.65423465 5.18054451 -19.1875 7.625 C-23.03999113 9.76444168 -25.12096502 11.92875754 -27 16 C-27.80122526 22.20949579 -26.73658209 26.90466079 -23 32 C-18.02339706 35.8841779 -12.06039085 35.72059525 -6 35 C-3.02015833 33.66829691 -3.02015833 33.66829691 -1 32 C-0.34 32 0.32 32 1 32 C1 35.3 1 38.6 1 42 C-6.76935971 44.95069098 -15.23119856 45.5257844 -23.2109375 42.97265625 C-29.77469742 39.7267421 -33.74055793 35.53132477 -37 29 C-38.86782568 23.39652297 -38.58429086 17.84512904 -36.8125 12.25 C-32.9782836 5.37485334 -28.44321208 1.06661027 -21.3125 -2.25 C-13.65836147 -3.9830125 -6.94323629 -3.70305935 0 0 Z " fill="#0B0B0B" transform="translate(152,52)"/>
<path d="M0 0 C12.56097561 0 12.56097561 0 18.9375 5.5625 C21.55875887 9.03155877 21.59572408 12.36532733 21.34765625 16.6015625 C20.85132375 20.02569906 20.06364413 22.20409505 18 25 C11.98036831 29.42578122 7.57512947 30 0 30 C0 20.1 0 10.2 0 0 Z " fill="#F6F6F6" transform="translate(27,58)"/>
<path d="M0 0 C3.3 0 6.6 0 10 0 C10 14.85 10 29.7 10 45 C6.7 45 3.4 45 0 45 C0 30.15 0 15.3 0 0 Z " fill="#0C0C0C" transform="translate(63,50)"/>
<path d="M0 0 C0.79809082 0.00354492 1.59618164 0.00708984 2.41845703 0.01074219 C10.26152625 0.23185425 14.97668891 2.60243878 20.75 7.8125 C21.224375 8.369375 21.69875 8.92625 22.1875 9.5 C21.8575 10.49 21.5275 11.48 21.1875 12.5 C18.18000373 12.75778539 16.5939162 12.75546161 14 11.125 C9.94955106 8.78474061 5.75517081 8.28506842 1.1875 7.5 C0.31738281 7.31824219 -0.55273438 7.13648438 -1.44921875 6.94921875 C-3.95408783 6.47308661 -6.26889344 6.42732553 -8.8125 6.5 C-9.1425 7.49 -9.4725 8.48 -9.8125 9.5 C-11.4625 9.5 -13.1125 9.5 -14.8125 9.5 C-15.10125 10.139375 -15.39 10.77875 -15.6875 11.4375 C-16.8125 13.5 -16.8125 13.5 -18.8125 14.5 C-19.56078401 17.58852986 -19.75092078 20.77817836 -20.0625 23.9375 C-20.165625 24.82244141 -20.26875 25.70738281 -20.375 26.61914062 C-20.46265625 27.46541016 -20.5503125 28.31167969 -20.640625 29.18359375 C-20.7221582 29.96275146 -20.80369141 30.74190918 -20.88769531 31.54467773 C-21.02499199 33.74044905 -21.02499199 33.74044905 -18.8125 35.5 C-18.8125 36.49 -18.8125 37.48 -18.8125 38.5 C-18.131875 38.768125 -17.45125 39.03625 -16.75 39.3125 C-13.41539191 40.66053306 -10.11506763 42.07536298 -6.8125 43.5 C-6.8125 44.16 -6.8125 44.82 -6.8125 45.5 C-13.78019144 44.38019245 -18.25905463 41.98025283 -22.8125 36.5 C-25.88458584 31.11522032 -27.71796663 25.72508308 -26.8125 19.5 C-24.41231278 11.11434591 -19.39299343 6.31571458 -12.10546875 1.8359375 C-7.94660059 0.14870985 -4.44734536 -0.03525957 0 0 Z " fill="#E59351" transform="translate(182.8125,49.5)"/>
<path d="M0 0 C0.80179688 0.13019531 1.60359375 0.26039062 2.4296875 0.39453125 C8.08770321 1.36163617 12.42390691 2.45119312 17 6 C20.1557188 11.07169092 20.31177193 16.18025737 20 22 C19.34 22 18.68 22 18 22 C17.814375 22.86625 17.814375 22.86625 17.625 23.75 C16.40239044 28.15139442 16.40239044 28.15139442 15 30 C11.375 30.75 11.375 30.75 8 31 C8 31.66 8 32.32 8 33 C-5.52063276 35.17144416 -5.52063276 35.17144416 -11.40625 32.390625 C-14.12041988 30.39147836 -16.58479704 28.34897253 -19 26 C-19.58652344 25.505 -20.17304688 25.01 -20.77734375 24.5 C-23.18487571 21.54635057 -22.23969095 17.61334112 -22 14 C-21.9175 12.700625 -21.835 11.40125 -21.75 10.0625 C-21 7 -21 7 -19 5.6875 C-18.34 5.460625 -17.68 5.23375 -17 5 C-16.67 4.34 -16.34 3.68 -16 3 C-14.33333333 2.66666667 -12.66666667 2.33333333 -11 2 C-10.67 1.34 -10.34 0.68 -10 0 C-6.28030038 -1.13657488 -3.73842876 -0.80980801 0 0 Z M-12 4 C-12 4.66 -12 5.32 -12 6 C-12.66 6 -13.32 6 -14 6 C-14 6.66 -14 7.32 -14 8 C-15.98 8.99 -15.98 8.99 -18 10 C-18 14.95 -18 19.9 -18 25 C-17.01 24.67 -16.02 24.34 -15 24 C-14.731875 24.598125 -14.46375 25.19625 -14.1875 25.8125 C-12.28837651 29.31088537 -10.79963639 30.73345454 -7 32 C-4.93854893 32.068991 -2.87498599 32.08467727 -0.8125 32.0625 C0.27417969 32.05347656 1.36085937 32.04445313 2.48046875 32.03515625 C3.31191406 32.02355469 4.14335937 32.01195313 5 32 C5 31.34 5 30.68 5 30 C8.96 29.505 8.96 29.505 13 29 C13.99 25.7 14.98 22.4 16 19 C15.34 19 14.68 19 14 19 C14.03480469 18.15695313 14.06960937 17.31390625 14.10546875 16.4453125 C14.14607422 14.80175781 14.14607422 14.80175781 14.1875 13.125 C14.22230469 12.03445312 14.25710937 10.94390625 14.29296875 9.8203125 C14.14794922 8.42425781 14.14794922 8.42425781 14 7 C13.01 6.34 12.02 5.68 11 5 C10.01 5.33 9.02 5.66 8 6 C8 5.01 8 4.02 8 3 C5.0586446 1.5293223 2.39772595 1.82951001 -0.875 1.8125 C-2.10992187 1.79832031 -3.34484375 1.78414062 -4.6171875 1.76953125 C-7.74086712 1.98234545 -9.40061596 2.34762774 -12 4 Z " fill="#FAAA6A" transform="translate(184,56)"/>
<path d="M0 0 C0 0.66 0 1.32 0 2 C2.31 2.33 4.62 2.66 7 3 C7.12375 3.969375 7.2475 4.93875 7.375 5.9375 C7.58125 6.948125 7.7875 7.95875 8 9 C8.66 9.33 9.32 9.66 10 10 C7.90591102 13.76936016 6.48540017 15.66992789 2.875 18.125 C-2.61040244 19.36363926 -6.10929097 17.46995567 -11 15 C-11.50537432 9.69356959 -10.30655751 7.13319688 -7 3 C-4.34200077 0.58363706 -3.64705667 0 0 0 Z " fill="#FED2B1" transform="translate(184,64)"/>
<path d="M0 0 C3.66900829 2.63211465 4.84009531 4.08854326 5.625 8.5625 C5 12 5 12 3 14.4375 C-1.17640421 16.61271053 -3.31499507 16.66928642 -8 16 C-11.02791041 13.42627616 -11.86162709 11.84753406 -12.5 7.9375 C-11.88967138 4.35181933 -10.80986461 3.23136307 -8 1 C-5.11138291 -0.44430855 -3.20352299 -0.37688506 0 0 Z " fill="#F0F0F0" transform="translate(203,107)"/>
<path d="M0 0 C1.65 0 3.3 0 5 0 C5 0.66 5 1.32 5 2 C6.65 2 8.3 2 10 2 C10 2.99 10 3.98 10 5 C11.65 5.33 13.3 5.66 15 6 C15.33 5.34 15.66 4.68 16 4 C16.66 4 17.32 4 18 4 C19.83944626 7.95552103 21.67051553 11.91486285 23.5 15.875 C24.02464844 17.00292969 24.54929688 18.13085938 25.08984375 19.29296875 C25.58613281 20.36933594 26.08242187 21.44570312 26.59375 22.5546875 C27.05458984 23.54968262 27.51542969 24.54467773 27.99023438 25.56982422 C29 28 29 28 29 30 C27.68 29.67 26.36 29.34 25 29 C24.67 29.66 24.34 30.32 24 31 C23.34 29.68 22.68 28.36 22 27 C19.47411298 29.36292656 18.11179163 30.66462511 17 34 C16.34 34 15.68 34 15 34 C15.165 33.2575 15.33 32.515 15.5 31.75 C16.93946598 21.66594519 16.93946598 21.66594519 14.375 12.0625 C10.34232636 6.86247346 5.97079924 3.70107585 0 1 C0 0.67 0 0.34 0 0 Z " fill="#EDF3F0" transform="translate(192,50)"/>
<path d="M0 0 C0 0.66 0 1.32 0 2 C1.32 2 2.64 2 4 2 C4 2.99 4 3.98 4 5 C4.66 5 5.32 5 6 5 C7.55860349 12.94887781 7.55860349 12.94887781 5 17 C2.22701733 19.85153742 -0.39909374 21.76718847 -4.390625 22.34765625 C-10.17409306 22.41295347 -10.17409306 22.41295347 -13 21 C-13 20.34 -13 19.68 -13 19 C-13.66 19 -14.32 19 -15 19 C-15 18.34 -15 17.68 -15 17 C-13.80375 17.391875 -12.6075 17.78375 -11.375 18.1875 C-8.07275834 19.00575457 -7.07307958 19.02344062 -3.6875 17.9375 C-0.67589104 15.76634005 0.72792112 14.49821692 2 11 C1.29614601 7.24184142 1.29614601 7.24184142 0 4 C-2.31 3.67 -4.62 3.34 -7 3 C-7 2.34 -7 1.68 -7 1 C-11.81208091 3.49858047 -14.8053917 5.50388462 -18 10 C-18.66 10.66 -19.32 11.32 -20 12 C-19.38728759 4.52490866 -19.38728759 4.52490866 -17.7578125 2.31640625 C-12.90640676 -1.3167576 -5.6541949 -1.48794603 0 0 Z " fill="#FEC191" transform="translate(191,63)"/>
<path d="M0 0 C1.65 0 3.3 0 5 0 C5 0.66 5 1.32 5 2 C5.99 1.67 6.98 1.34 8 1 C9.79672348 3.07915159 11.58742527 5.16300651 13.375 7.25 C14.13683594 8.12978516 14.13683594 8.12978516 14.9140625 9.02734375 C17.35145558 11.88165933 19.55699048 14.4880973 21 18 C16.81731394 18.6901432 13.15975338 18.91423151 9 18 C4.43553213 14.04553014 0.93436865 8.86720885 0 2.8125 C0 1.884375 0 0.95625 0 0 Z " fill="#0C0C0C" transform="translate(309,77)"/>
<path d="M0 0 C7 0 7 0 9.9375 1.625 C12 4 12 4 12.5625 7 C12 10 12 10 10.5 12.375 C6.86748926 14.73613198 4.28156703 14.2854378 0 14 C0 9.38 0 4.76 0 0 Z " fill="#EDEDED" transform="translate(304,57)"/>
<path d="M0 0 C0.99 0 1.98 0 3 0 C5.2735075 4.547015 4.67428593 11.37261001 3.43359375 16.20703125 C2.08957366 19.43690151 0.36999267 22.42392101 -2 25 C-2.66 25 -3.32 25 -4 25 C-4 25.66 -4 26.32 -4 27 C-5.24735567 27.6509259 -6.49801832 28.29551669 -7.75 28.9375 C-8.44609375 29.29714844 -9.1421875 29.65679687 -9.859375 30.02734375 C-13.56004931 31.70885452 -16.70053513 32.12205095 -20.75 32.0625 C-21.54921875 32.05347656 -22.3484375 32.04445312 -23.171875 32.03515625 C-23.77515625 32.02355469 -24.3784375 32.01195312 -25 32 C-22.19923293 30.43912307 -20.00209602 29.73936931 -16.8125 29.5 C-14.9253125 29.2525 -14.9253125 29.2525 -13 29 C-12.67 28.34 -12.34 27.68 -12 27 C-11.01 26.67 -10.02 26.34 -9 26 C-8.34 26.33 -7.68 26.66 -7 27 C-6.7834375 26.071875 -6.7834375 26.071875 -6.5625 25.125 C-6 23 -6 23 -5 21 C-4.34 21 -3.68 21 -3 21 C-2.34 19.35 -1.68 17.7 -1 16 C-0.34 16 0.32 16 1 16 C0.67 10.72 0.34 5.44 0 0 Z " fill="#EA8C39" transform="translate(205,64)"/>
<path d="M0 0 C0.99 0 1.98 0 3 0 C6 6.625 6 6.625 6 10 C6.66 10 7.32 10 8 10 C8.19335938 9.36191406 8.38671875 8.72382812 8.5859375 8.06640625 C8.84632813 7.24011719 9.10671875 6.41382812 9.375 5.5625 C9.63023437 4.73878906 9.88546875 3.91507812 10.1484375 3.06640625 C11 1 11 1 13 0 C13.26554688 0.63808594 13.53109375 1.27617188 13.8046875 1.93359375 C14.15789062 2.75988281 14.51109375 3.58617188 14.875 4.4375 C15.39707031 5.67306641 15.39707031 5.67306641 15.9296875 6.93359375 C16.8244937 9.15746715 16.8244937 9.15746715 19 10 C19.66 7.03 20.32 4.06 21 1 C21.99 1 22.98 1 24 1 C23.27623543 4.49403583 21.93714794 7.51998905 20.4375 10.75 C19.98246094 11.73484375 19.52742188 12.7196875 19.05859375 13.734375 C18.70925781 14.48203125 18.35992187 15.2296875 18 16 C15.73343156 13.09382458 14.25566905 10.47723736 13 7 C10.67527795 9.85306797 9.2491742 12.54074837 8 16 C7.34 16 6.68 16 6 16 C5.18667257 13.89615302 4.37436583 11.79191143 3.5625 9.6875 C3.11003906 8.51574219 2.65757812 7.34398438 2.19140625 6.13671875 C1.42015245 4.10617185 0.68687358 2.06062074 0 0 Z " fill="#252525" transform="translate(160,107)"/>
<path d="M0 0 C1.0725 0.2475 2.145 0.495 3.25 0.75 C4.5 3.9375 4.5 3.9375 5.25 7.75 C3.8125 10.75 3.8125 10.75 1.25 12.75 C-2.375 12.75 -2.375 12.75 -5.75 11.75 C-7.91551116 8.50173326 -8.30156953 7.51905843 -7.75 3.75 C-5.34038903 0.08739132 -4.44314635 -0.29620976 0 0 Z " fill="#FEDDC6" transform="translate(184.75,67.25)"/>
<path d="M0 0 C8.93945907 -0.57222711 15.73756839 -0.63437002 23 5 C25.5625 7.3125 25.5625 7.3125 27 9 C26.67 9.99 26.34 10.98 26 12 C24.35 12 22.7 12 21 12 C20.67 11.01 20.34 10.02 20 9 C19.34 8.67 18.68 8.34 18 8 C18 7.34 18 6.68 18 6 C11.34574301 4.85768588 4.70778622 3.77397533 -2 3 C-1.34 2.67 -0.68 2.34 0 2 C0 1.34 0 0.68 0 0 Z " fill="#E59349" transform="translate(178,50)"/>
<path d="M0 0 C6 0 6 0 7.9375 1.1875 C9 3 9 3 8.6875 5.4375 C8.460625 6.283125 8.23375 7.12875 8 8 C8 11.76687864 8.23537317 12.91190305 10 16 C8.125 15.8125 8.125 15.8125 6 15 C4.75 12.4375 4.75 12.4375 4 10 C3.34 10 2.68 10 2 10 C2 11.98 2 13.96 2 16 C1.34 16 0.68 16 0 16 C0 10.72 0 5.44 0 0 Z " fill="#404040" transform="translate(216,107)"/>
<path d="M0 0 C0.99 0 1.98 0 3 0 C3 5.61 3 11.22 3 17 C-1.18185421 13.47412292 -5.19095875 9.92446674 -9 6 C-9.33 9.3 -9.66 12.6 -10 16 C-10.66 16 -11.32 16 -12 16 C-12 11.05 -12 6.1 -12 1 C-4.375 6.625 -4.375 6.625 -1 10 C-0.67 6.7 -0.34 3.4 0 0 Z " fill="#3D3D3D" transform="translate(117,107)"/>
<path d="M0 0 C1.99954746 -0.04254356 4.00041636 -0.04080783 6 0 C6.33 0.33 6.66 0.66 7 1 C7.99 0.67 8.98 0.34 10 0 C12.39870613 0.08656565 14.79537281 0.23998491 17.1875 0.4375 C19.09595703 0.59025391 19.09595703 0.59025391 21.04296875 0.74609375 C22.01878906 0.82988281 22.99460938 0.91367187 24 1 C24 1.33 24 1.66 24 2 C23.16597656 2.01417969 22.33195312 2.02835938 21.47265625 2.04296875 C12.8253295 2.40946484 6.36874676 3.62218945 0.1171875 9.88671875 C-1.3310985 11.54719548 -2.69573158 13.22517199 -4 15 C-4.625 13.1875 -4.625 13.1875 -5 11 C-4.34 10.01 -3.68 9.02 -3 8 C-2.83286431 5.37468476 -2.83286431 5.37468476 -3 3 C-2.01 2.67 -1.02 2.34 0 2 C0 1.34 0 0.68 0 0 Z " fill="#F8FBF4" transform="translate(163,48)"/>
<path d="M0 0 C2.97 0 5.94 0 9 0 C9.33 0.99 9.66 1.98 10 3 C7.69 3 5.38 3 3 3 C3 3.99 3 4.98 3 6 C4.98 6 6.96 6 9 6 C9.33 6.99 9.66 7.98 10 9 C7.69 9 5.38 9 3 9 C3 10.65 3 12.3 3 14 C4.98 14 6.96 14 9 14 C9 14.66 9 15.32 9 16 C6.03 16 3.06 16 0 16 C0 10.72 0 5.44 0 0 Z " fill="#4D4D4D" transform="translate(128,107)"/>
<path d="M0 0 C0 0.66 0 1.32 0 2 C1.32064453 2.18175781 1.32064453 2.18175781 2.66796875 2.3671875 C4.41013672 2.61855469 4.41013672 2.61855469 6.1875 2.875 C7.33605469 3.03742187 8.48460937 3.19984375 9.66796875 3.3671875 C12.68724625 3.94060245 15.20575848 4.74759043 18 6 C18 6.66 18 7.32 18 8 C18.99 8.33 19.98 8.66 21 9 C20.67 9.66 20.34 10.32 20 11 C18.7625 10.2884375 18.7625 10.2884375 17.5 9.5625 C13.43120034 7.74607158 10.42227483 7.42116903 6 7 C5.113125 6.814375 4.22625 6.62875 3.3125 6.4375 C0.82807627 5.96747389 -1.47741736 5.92792621 -4 6 C-4.33 6.99 -4.66 7.98 -5 9 C-6.65 9 -8.3 9 -10 9 C-8.68 8.67 -7.36 8.34 -6 8 C-5.67 6.35 -5.34 4.7 -5 3 C-6.65 3.33 -8.3 3.66 -10 4 C-6.83527002 0.53386716 -4.79371499 0 0 0 Z " fill="#F69B57" transform="translate(178,50)"/>
<path d="M0 0 C3.66900829 2.63211465 4.84009531 4.08854326 5.625 8.5625 C5 12 5 12 3 14.4375 C-1.17640421 16.61271053 -3.31499507 16.66928642 -8 16 C-11.02791041 13.42627616 -11.86162709 11.84753406 -12.5 7.9375 C-11.88967138 4.35181933 -10.80986461 3.23136307 -8 1 C-5.11138291 -0.44430855 -3.20352299 -0.37688506 0 0 Z M-8.25 3.125 C-10.28308178 4.9464041 -10.28308178 4.9464041 -10.4375 8 C-10.19728071 10.91581411 -10.19728071 10.91581411 -8.9375 12.875 C-5.8930714 14.64273274 -3.4368988 14.36823916 0 14 C2.14780077 13.10242444 2.14780077 13.10242444 3 11 C3.08333333 7.41666667 3.08333333 7.41666667 2 4 C-1.19880703 1.46301512 -4.55209188 1.27604594 -8.25 3.125 Z " fill="#252525" transform="translate(203,107)"/>
<path d="M0 0 C0.5775 0.37125 1.155 0.7425 1.75 1.125 C4 2.29166667 4 2.29166667 6.25 1.125 C6.8275 0.75375 7.405 0.3825 8 0 C8.33 0.33 8.66 0.66 9 1 C9.804375 0.979375 10.60875 0.95875 11.4375 0.9375 C14 1 14 1 16 3 C16 4.9375 16 4.9375 15 7 C12.175097 8.82049304 10.15586735 10.03210743 6.75 9.9375 C4.42904015 8.69412865 4.04902161 7.37778231 3 5 C2.46375 4.46375 1.9275 3.9275 1.375 3.375 C0.92125 2.92125 0.4675 2.4675 0 2 C0 1.34 0 0.68 0 0 Z " fill="#EBEBEB" transform="translate(320,50)"/>
<path d="M0 0 C0 0.66 0 1.32 0 2 C0.99 2 1.98 2 3 2 C3 4.64 3 7.28 3 10 C2.34 10 1.68 10 1 10 C0.67 8.02 0.34 6.04 0 4 C-2.31 3.67 -4.62 3.34 -7 3 C-7 2.34 -7 1.68 -7 1 C-11.81208091 3.49858047 -14.8053917 5.50388462 -18 10 C-18.66 10.66 -19.32 11.32 -20 12 C-19.38728759 4.52490866 -19.38728759 4.52490866 -17.7578125 2.31640625 C-12.90640676 -1.3167576 -5.6541949 -1.48794603 0 0 Z " fill="#FDC9A1" transform="translate(191,63)"/>
<path d="M0 0 C-1.32 0.33 -2.64 0.66 -4 1 C-4 1.99 -4 2.98 -4 4 C-2.783125 3.67 -1.56625 3.34 -0.3125 3 C2.87210604 2.19677787 5.6972843 1.79358027 9 2 C8.67 2.99 8.34 3.98 8 5 C2.80555244 6.32689849 -2.36550983 6.02603771 -7.67382812 5.87304688 C-12.26339615 5.8036934 -15.62048643 6.49395145 -20 8 C-22.375 7.625 -22.375 7.625 -24 7 C-22.90300781 6.59007812 -21.80601562 6.18015625 -20.67578125 5.7578125 C-19.22134314 5.21357114 -17.76691667 4.66929867 -16.3125 4.125 C-15.59126953 3.85558594 -14.87003906 3.58617187 -14.12695312 3.30859375 C-13.42119141 3.04433594 -12.71542969 2.78007812 -11.98828125 2.5078125 C-10.95501709 2.12351074 -10.95501709 2.12351074 -9.90087891 1.73144531 C-8.30371988 1.11686935 -6.73197178 0.43682057 -5.16796875 -0.2578125 C-3 -1 -3 -1 0 0 Z " fill="#E7832F" transform="translate(272,152)"/>
<path d="M0 0 C1.87365234 -0.00386719 1.87365234 -0.00386719 3.78515625 -0.0078125 C6.9375 0.125 6.9375 0.125 8.9375 1.125 C8.6075 2.115 8.2775 3.105 7.9375 4.125 C7.2775 3.795 6.6175 3.465 5.9375 3.125 C5.9375 2.465 5.9375 1.805 5.9375 1.125 C-1.04359318 1.15066578 -6.1999734 1.79568251 -11.59765625 6.46484375 C-13.87606931 9.04704522 -14.12855265 10.69026235 -14.0625 14.125 C-13.82121335 17.4728523 -13.49014707 20.79593206 -13.0625 24.125 C-13.3925 23.465 -13.7225 22.805 -14.0625 22.125 C-15.0525 22.455 -16.0425 22.785 -17.0625 23.125 C-17.0625 18.175 -17.0625 13.225 -17.0625 8.125 C-15.7425 7.465 -14.4225 6.805 -13.0625 6.125 C-13.0625 5.465 -13.0625 4.805 -13.0625 4.125 C-12.4025 4.125 -11.7425 4.125 -11.0625 4.125 C-10.7325 3.135 -10.4025 2.145 -10.0625 1.125 C-6.54512679 -0.04745774 -3.7049868 -0.00766285 0 0 Z " fill="#FCB378" transform="translate(183.0625,57.875)"/>
<path d="M0 0 C-36.50655022 9 -36.50655022 9 -45 9 C-45 8.34 -45 7.68 -45 7 C-41.96968967 5.48484483 -38.7013029 5.35175359 -35.375 4.9375 C-34.66859375 4.84662109 -33.9621875 4.75574219 -33.234375 4.66210938 C-31.4899959 4.43816881 -29.74504866 4.21866182 -28 4 C-28 3.67 -28 3.34 -28 3 C-24.04 2.34 -20.08 1.68 -16 1 C-16 0.67 -16 0.34 -16 0 C-14.08416353 -0.1958009 -12.16727461 -0.38132214 -10.25 -0.5625 C-8.64898437 -0.71912109 -8.64898437 -0.71912109 -7.015625 -0.87890625 C-4.31624125 -0.98730119 -2.55371901 -0.71552316 0 0 Z " fill="#FDEACE" transform="translate(163,185)"/>
<path d="M0 0 C-1.22934015 3.68802044 -2.93859378 4.72356973 -6 7 C-4.58845234 10.41124018 -2.93778777 11.8456223 0 14 C0 14.66 0 15.32 0 16 C-4.24822374 15.52797514 -6.19989709 13.03344482 -9 10 C-9 11.98 -9 13.96 -9 16 C-9.66 16 -10.32 16 -11 16 C-11 11.05 -11 6.1 -11 1 C-10.34 1 -9.68 1 -9 1 C-8.67 2.32 -8.34 3.64 -8 5 C-7.05125 4.175 -6.1025 3.35 -5.125 2.5 C-2.25 0 -2.25 0 0 0 Z " fill="#212121" transform="translate(245,107)"/>
<path d="M0 0 C0.66 0.33 1.32 0.66 2 1 C1.01 3.97 0.02 6.94 -1 10 C-3.64 10.33 -6.28 10.66 -9 11 C-9 11.66 -9 12.32 -9 13 C-10.91635217 13.05423638 -12.83314925 13.09289963 -14.75 13.125 C-16.35101563 13.15980469 -16.35101563 13.15980469 -17.984375 13.1953125 C-20.92470106 13.00487687 -22.52361878 12.52670104 -25 11 C-22.19767777 9.59883888 -19.992384 10.12806081 -16.875 10.3125 C-11.02090997 10.37084641 -7.92554966 9.46577659 -3.48828125 5.703125 C-1.91788146 3.90602708 -0.9604777 2.17645194 0 0 Z " fill="#FAB57E" transform="translate(198,75)"/>
<path d="M0 0 C1.65 0 3.3 0 5 0 C4.67 0.99 4.34 1.98 4 3 C3.34 3 2.68 3 2 3 C2 3.66 2 4.32 2 5 C0.35 5.66 -1.3 6.32 -3 7 C-3 11.95 -3 16.9 -3 22 C-3.99 21.34 -4.98 20.68 -6 20 C-6.51124691 17.01164011 -6.19721705 14.0174208 -6 11 C-5.9175 9.700625 -5.835 8.40125 -5.75 7.0625 C-5 4 -5 4 -3 2.6875 C-2.34 2.460625 -1.68 2.23375 -1 2 C-0.67 1.34 -0.34 0.68 0 0 Z " fill="#FAA45F" transform="translate(168,59)"/>
<path d="M0 0 C0.66 0 1.32 0 2 0 C2.83790789 1.78953185 3.67019396 3.58169695 4.5 5.375 C4.9640625 6.37273437 5.428125 7.37046875 5.90625 8.3984375 C7 11 7 11 7 13 C5.68 12.67 4.36 12.34 3 12 C2.67 12.66 2.34 13.32 2 14 C1.34 12.68 0.68 11.36 0 10 C-0.99 10.66 -1.98 11.32 -3 12 C-2.14285714 3.42857143 -2.14285714 3.42857143 0 0 Z " fill="#F1F1EF" transform="translate(214,67)"/>
<path d="M0 0 C-0.33 0.99 -0.66 1.98 -1 3 C-1.33 2.34 -1.66 1.68 -2 1 C-2 1.99 -2 2.98 -2 4 C-3 6.1875 -3 6.1875 -4 8 C-3.34 8 -2.68 8 -2 8 C-1.67 7.34 -1.34 6.68 -1 6 C-1 7.66666667 -1 9.33333333 -1 11 C-7.75 9.375 -7.75 9.375 -10 6 C-9.8125 3.9375 -9.8125 3.9375 -9 2 C-5.5647952 -0.29013653 -4.014669 -0.17842973 0 0 Z " fill="#EBEBEB" transform="translate(99,57)"/>
<path d="M0 0 C4.66606661 1.6849685 4.66606661 1.6849685 6.65625 3.5625 C10.0690616 5.65569112 13.379257 5.32085599 17.25 5.1875 C17.99507812 5.17396484 18.74015625 5.16042969 19.5078125 5.14648438 C21.33885416 5.11127204 23.16952169 5.05746851 25 5 C25 4.34 25 3.68 25 3 C26.98 2.67 28.96 2.34 31 2 C30.67 2.66 30.34 3.32 30 4 C29.01 4.33 28.02 4.66 27 5 C26.67 5.66 26.34 6.32 26 7 C17.65019625 8.68080465 9.20176917 8.74401252 1.9375 4 C0 2 0 2 0 0 Z " fill="#FBA156" transform="translate(167,84)"/>
<path d="M0 0 C-2.91165016 1.55786301 -5.74050371 2.60427596 -8.9140625 3.5078125 C-9.83960938 3.77207031 -10.76515625 4.03632813 -11.71875 4.30859375 C-12.6778125 4.57800781 -13.636875 4.84742188 -14.625 5.125 C-15.59179688 5.40214844 -16.55859375 5.67929688 -17.5546875 5.96484375 C-24.73287408 8 -24.73287408 8 -27 8 C-27 7.34 -27 6.68 -27 6 C-27.66 5.67 -28.32 5.34 -29 5 C-25.75864351 3.37932175 -22.21002928 3.60302447 -18.62890625 3.37890625 C-15.77355181 3.15982797 -15.77355181 3.15982797 -13 1 C-8.62710949 0.17492632 -4.44419466 -0.10839499 0 0 Z " fill="#FCE9CF" transform="translate(208,172)"/>
<path d="M0 0 C3.63 0 7.26 0 11 0 C11 0.66 11 1.32 11 2 C9.68 2 8.36 2 7 2 C7 6.29 7 10.58 7 15 C6.01 15 5.02 15 4 15 C4 10.71 4 6.42 4 2 C2.68 2 1.36 2 0 2 C0 1.34 0 0.68 0 0 Z " fill="#474747" transform="translate(144,108)"/>
<path d="M0 0 C0.33 0 0.66 0 1 0 C1 14.85 1 29.7 1 45 C0.67 45 0.34 45 0 45 C-0.33 31.8 -0.66 18.6 -1 5 C-2.65 5.33 -4.3 5.66 -6 6 C-5.67 5.01 -5.34 4.02 -5 3 C-3.35 2.67 -1.7 2.34 0 2 C0 1.34 0 0.68 0 0 Z " fill="#E8E8E8" transform="translate(259,50)"/>
<path d="M0 0 C3 1 3 1 4.6875 4.125 C7.36449642 11.07952509 5.77226171 16.41587844 3 23 C2.34 23 1.68 23 1 23 C1.165 22.2575 1.33 21.515 1.5 20.75 C2.4470454 13.64715949 3.07266471 6.6189813 0 0 Z " fill="#FEEBCF" transform="translate(206,61)"/>
<path d="M0 0 C1.32 0 2.64 0 4 0 C4 0.66 4 1.32 4 2 C3.34 2 2.68 2 2 2 C2 2.66 2 3.32 2 4 C0.75264433 4.6509259 -0.49801832 5.29551669 -1.75 5.9375 C-2.44609375 6.29714844 -3.1421875 6.65679687 -3.859375 7.02734375 C-7.56004931 8.70885452 -10.70053513 9.12205095 -14.75 9.0625 C-15.54921875 9.05347656 -16.3484375 9.04445313 -17.171875 9.03515625 C-17.77515625 9.02355469 -18.3784375 9.01195313 -19 9 C-16.19923293 7.43912307 -14.00209602 6.73936931 -10.8125 6.5 C-9.554375 6.335 -8.29625 6.17 -7 6 C-6.67 5.34 -6.34 4.68 -6 4 C-5.01 3.67 -4.02 3.34 -3 3 C-2.34 3.33 -1.68 3.66 -1 4 C-0.67 2.68 -0.34 1.36 0 0 Z " fill="#E39146" transform="translate(199,87)"/>
<path d="M0 0 C0.99 0 1.98 0 3 0 C6 6.625 6 6.625 6 10 C6.66 10 7.32 10 8 10 C8.33 9.01 8.66 8.02 9 7 C9.66 7 10.32 7 11 7 C10.01 9.97 9.02 12.94 8 16 C7.34 16 6.68 16 6 16 C5.18667257 13.89615302 4.37436583 11.79191143 3.5625 9.6875 C3.11003906 8.51574219 2.65757812 7.34398438 2.19140625 6.13671875 C1.42015245 4.10617185 0.68687358 2.06062074 0 0 Z " fill="#1E1E1E" transform="translate(160,107)"/>
<path d="M0 0 C6 0 6 0 7.875 1.25 C9 3 9 3 9 7 C8.34 7 7.68 7 7 7 C7 5.68 7 4.36 7 3 C5.35 2.67 3.7 2.34 2 2 C2 6.62 2 11.24 2 16 C1.34 16 0.68 16 0 16 C0 10.72 0 5.44 0 0 Z " fill="#2C2C2C" transform="translate(216,107)"/>
<path d="M0 0 C1.5778125 0.495 1.5778125 0.495 3.1875 1 C11.20428401 3.01132837 19.92125482 2.50302236 28 1 C28 1.99 28 2.98 28 4 C23.89589245 4.05796132 19.79188984 4.09358313 15.6875 4.125 C14.52025391 4.14175781 13.35300781 4.15851563 12.15039062 4.17578125 C10.47299805 4.18544922 10.47299805 4.18544922 8.76171875 4.1953125 C7.2142395 4.21102295 7.2142395 4.21102295 5.63549805 4.22705078 C3 4 3 4 0 2 C0 1.34 0 0.68 0 0 Z " fill="#FDEACA" transform="translate(168,93)"/>
<path d="M0 0 C-7.48664711 4.99109807 -15.28441422 4.21758744 -24 4 C-24 3.67 -24 3.34 -24 3 C-20.56489764 2.30013302 -17.12663476 1.61725071 -13.6875 0.9375 C-12.71103516 0.73833984 -11.73457031 0.53917969 -10.72851562 0.33398438 C-9.79072266 0.15029297 -8.85292969 -0.03339844 -7.88671875 -0.22265625 C-6.59060669 -0.48187866 -6.59060669 -0.48187866 -5.26831055 -0.74633789 C-3 -1 -3 -1 0 0 Z " fill="#E38C43" transform="translate(141,191)"/>
<path d="M0 0 C0.74056641 0.06574219 1.48113281 0.13148438 2.24414062 0.19921875 C4.06046459 0.36327382 5.87434686 0.55398344 7.6875 0.75 C7.6875 1.08 7.6875 1.41 7.6875 1.75 C4.93912151 2.28107314 2.18937625 2.80015881 -0.5625 3.3125 C-1.33980469 3.46396484 -2.11710937 3.61542969 -2.91796875 3.77148438 C-3.67207031 3.91005859 -4.42617187 4.04863281 -5.203125 4.19140625 C-5.89438477 4.32232666 -6.58564453 4.45324707 -7.29785156 4.58813477 C-9.52537942 4.76710362 -11.18756962 4.40206197 -13.3125 3.75 C-9.07199765 -0.56577754 -5.72225764 -0.64432928 0 0 Z " fill="#FCECD3" transform="translate(101.3125,195.25)"/>
<path d="M0 0 C-2.94588963 2.3732694 -5.8557597 3.9745361 -9.3125 5.5 C-10.27800781 5.92667969 -11.24351562 6.35335937 -12.23828125 6.79296875 C-13.14964844 7.19128906 -14.06101562 7.58960938 -15 8 C-15.71542969 8.32613281 -16.43085938 8.65226563 -17.16796875 8.98828125 C-19.97757952 10.25230656 -21.87847479 11 -25 11 C-25 10.34 -25 9.68 -25 9 C-23.97519531 8.60167969 -22.95039063 8.20335937 -21.89453125 7.79296875 C-20.53376242 7.25804583 -19.17309043 6.72287651 -17.8125 6.1875 C-17.13896484 5.92646484 -16.46542969 5.66542969 -15.77148438 5.39648438 C-12.73888395 4.19823738 -9.99333127 2.99599876 -7.1875 1.3125 C-4.59911064 -0.24053362 -2.96713718 -0.25432604 0 0 Z " fill="#FEF2D6" transform="translate(313,132)"/>
<path d="M0 0 C0.75 1.75 0.75 1.75 1 4 C-1.84251966 7.90846453 -5.49089112 9.49696371 -10 11 C-12.9375 10.6875 -12.9375 10.6875 -15 10 C-15 9.34 -15 8.68 -15 8 C-15.66 8 -16.32 8 -17 8 C-17 7.34 -17 6.68 -17 6 C-15.80375 6.391875 -14.6075 6.78375 -13.375 7.1875 C-10.07275834 8.00575457 -9.07307958 8.02344062 -5.6875 6.9375 C-2.82736627 4.87554312 -1.53076685 3.14657631 0 0 Z " fill="#FDC79F" transform="translate(193,74)"/>
<path d="M0 0 C1.32 0.33 2.64 0.66 4 1 C3.88655624 3.1464753 3.75893655 5.29220592 3.625 7.4375 C3.52058594 9.22994141 3.52058594 9.22994141 3.4140625 11.05859375 C3.27742187 12.02925781 3.14078125 12.99992187 3 14 C2.01 14.495 2.01 14.495 1 15 C-0.44207941 12.11584117 -0.09394887 9.58278472 -0.0625 6.375 C-0.05347656 5.18648438 -0.04445312 3.99796875 -0.03515625 2.7734375 C-0.02355469 1.85820313 -0.01195312 0.94296875 0 0 Z " fill="#F88D39" transform="translate(158,64)"/>
<path d="M0 0 C0.66 0.33 1.32 0.66 2 1 C1.89300781 1.82242188 1.78601563 2.64484375 1.67578125 3.4921875 C0.8607974 11.08117689 1.16036569 16.89289266 4 24 C2.68 23.67 1.36 23.34 0 23 C-0.90620536 18.36828372 -1.1343209 13.96637727 -1.125 9.25 C-1.12757813 7.93515625 -1.13015625 6.6203125 -1.1328125 5.265625 C-1 2 -1 2 0 0 Z " fill="#FEF2DF" transform="translate(156,62)"/>
<path d="M0 0 C0 0.99 0 1.98 0 3 C-1.32 3 -2.64 3 -4 3 C-4 2.34 -4 1.68 -4 1 C-7.96 1 -11.92 1 -16 1 C-11.77160069 -3.22839931 -5.13313027 -2.56656513 0 0 Z " fill="#E7883A" transform="translate(192,181)"/>
<path d="M0 0 C4.54805635 -0.17835515 7.8794254 0.00214565 12 2 C12 2.66 12 3.32 12 4 C12.99 4.33 13.98 4.66 15 5 C14.67 5.66 14.34 6.32 14 7 C13.175 6.525625 12.35 6.05125 11.5 5.5625 C7.47204099 3.76430401 4.36826421 3.3765745 0 3 C0 2.01 0 1.02 0 0 Z " fill="#F99E56" transform="translate(184,54)"/>
<path d="M0 0 C0 0.99 0 1.98 0 3 C-1.98 3.33 -3.96 3.66 -6 4 C-6 4.66 -6 5.32 -6 6 C-9.3 6.33 -12.6 6.66 -16 7 C-12.74658227 4.55993671 -10.54858018 3.24355138 -6.875 1.8125 C-5.57175781 1.29623047 -5.57175781 1.29623047 -4.2421875 0.76953125 C-2 0 -2 0 0 0 Z " fill="#E28A41" transform="translate(288,144)"/>
<path d="M0 0 C2.475 0.99 2.475 0.99 5 2 C4.01 2.495 4.01 2.495 3 3 C3.33 3.99 3.66 4.98 4 6 C3.01 6 2.02 6 1 6 C0.67 5.67 0.34 5.34 0 5 C-0.33 9.62 -0.66 14.24 -1 19 C-1.33 19 -1.66 19 -2 19 C-2.05380578 16.20807795 -2.09357669 13.4171859 -2.125 10.625 C-2.14175781 9.8309375 -2.15851563 9.036875 -2.17578125 8.21875 C-2.19335473 6.14507985 -2.10335168 4.07116759 -2 2 C-1.34 1.34 -0.68 0.68 0 0 Z " fill="#BCBCBC" transform="translate(106,104)"/>
<path d="M0 0 C0 1.32 0 2.64 0 4 C-1.6396875 4.4021875 -1.6396875 4.4021875 -3.3125 4.8125 C-6.61692663 5.87663739 -7.94960422 6.34654664 -10 9 C-11.32 8.34 -12.64 7.68 -14 7 C-12.04480616 5.82807953 -10.0857461 4.6626071 -8.125 3.5 C-7.03445313 2.8503125 -5.94390625 2.200625 -4.8203125 1.53125 C-2 0 -2 0 0 0 Z " fill="#E48C48" transform="translate(350,114)"/>
<path d="M0 0 C4.75 0.875 4.75 0.875 7 2 C7 2.66 7 3.32 7 4 C8.65 4.33 10.3 4.66 12 5 C11.67 5.99 11.34 6.98 11 8 C9.35 8 7.7 8 6 8 C5.67 7.01 5.34 6.02 5 5 C4.34 4.67 3.68 4.34 3 4 C3 3.34 3 2.68 3 2 C2.01 2 1.02 2 0 2 C0 1.34 0 0.68 0 0 Z " fill="#F58F37" transform="translate(193,54)"/>
<path d="M0 0 C0.66 0 1.32 0 2 0 C2.66 1.32 3.32 2.64 4 4 C3.01 4.495 3.01 4.495 2 5 C1.52998967 8.27555608 1.52998967 8.27555608 1.375 12.0625 C1.30023438 13.35285156 1.22546875 14.64320312 1.1484375 15.97265625 C1.09945313 16.97167969 1.05046875 17.97070312 1 19 C-2.63 19 -6.26 19 -10 19 C-10 18.67 -10 18.34 -10 18 C-6.7 18 -3.4 18 0 18 C0 12.06 0 6.12 0 0 Z " fill="#D1D1D1" transform="translate(304,77)"/>
<path d="M0 0 C0 0.66 0 1.32 0 2 C-2.64 2.99 -5.28 3.98 -8 5 C-8 5.33 -8 5.66 -8 6 C-12.62 6.33 -17.24 6.66 -22 7 C-19.44474544 5.29649696 -17.90679974 4.53986042 -15.05859375 3.7109375 C-13.93614258 3.38222656 -13.93614258 3.38222656 -12.79101562 3.046875 C-12.01435547 2.82515625 -11.23769531 2.6034375 -10.4375 2.375 C-9.65697266 2.14554688 -8.87644531 1.91609375 -8.07226562 1.6796875 C-2.27834356 0 -2.27834356 0 0 0 Z " fill="#E18A42" transform="translate(232,165)"/>
<path d="M0 0 C2.31 0 4.62 0 7 0 C6.42655063 2.86724686 6.1385485 3.8614515 4 6 C3.01 6 2.02 6 1 6 C1 5.34 1 4.68 1 4 C0.34 4 -0.32 4 -1 4 C-0.67 2.68 -0.34 1.36 0 0 Z " fill="#FEE5D7" transform="translate(181,70)"/>
<path d="M0 0 C0.66 0.33 1.32 0.66 2 1 C-0.61556432 4.92334649 -2.50755274 4.87688819 -7 6 C-8.6396875 6.5878125 -8.6396875 6.5878125 -10.3125 7.1875 C-13 8 -13 8 -15 7 C-12.54595776 5.80283341 -10.08748321 4.6170654 -7.625 3.4375 C-6.57699219 2.92413086 -6.57699219 2.92413086 -5.5078125 2.40039062 C-3.69947784 1.53969288 -1.85148044 0.76347564 0 0 Z " fill="#E59051" transform="translate(324,127)"/>
<path d="M0 0 C2.97 0.495 2.97 0.495 6 1 C1.76405345 4.82601624 -2.78407302 6.86362904 -8 9 C-8 8.34 -8 7.68 -8 7 C-7.34 7 -6.68 7 -6 7 C-6 6.34 -6 5.68 -6 5 C-5.01 4.67 -4.02 4.34 -3 4 C-2.67 3.34 -2.34 2.68 -2 2 C-1.34 2 -0.68 2 0 2 C0 1.34 0 0.68 0 0 Z " fill="#FDF3DF" transform="translate(344,112)"/>
<path d="M0 0 C0.99 0.33 1.98 0.66 3 1 C3.6875 3.0625 3.6875 3.0625 4 5 C-0.625 8 -0.625 8 -4 8 C-2.66666667 5.33333333 -1.33333333 2.66666667 0 0 Z " fill="#EFEFEB" transform="translate(147,80)"/>
<path d="M0 0 C1.65 0 3.3 0 5 0 C5 0.66 5 1.32 5 2 C6.65 2 8.3 2 10 2 C10 2.99 10 3.98 10 5 C11.32 5.33 12.64 5.66 14 6 C13.67 7.32 13.34 8.64 13 10 C12.56429687 9.60167969 12.12859375 9.20335937 11.6796875 8.79296875 C7.99005314 5.51063169 4.56922802 3.00600254 0 1 C0 0.67 0 0.34 0 0 Z " fill="#FDEFD2" transform="translate(192,50)"/>
<path d="M0 0 C1.32 0 2.64 0 4 0 C4 0.99 4 1.98 4 3 C4.680625 3.268125 5.36125 3.53625 6.0625 3.8125 C9.39710809 5.16053306 12.69743237 6.57536298 16 8 C16 8.66 16 9.32 16 10 C8.96076094 8.86869372 4.88785989 6.18685132 0 1 C0 0.67 0 0.34 0 0 Z " fill="#D99354" transform="translate(160,85)"/>
<path d="M0 0 C1 3 1 3 0.0625 5.1875 C-0.288125 5.785625 -0.63875 6.38375 -1 7 C-1.66 7 -2.32 7 -3 7 C-3 7.66 -3 8.32 -3 9 C-5.31 9.33 -7.62 9.66 -10 10 C-8.625 8.5 -8.625 8.5 -7 7 C-6.34 7 -5.68 7 -5 7 C-5 6.34 -5 5.68 -5 5 C-3.37446717 3.29319053 -1.70884005 1.62339805 0 0 Z " fill="#FCEFD6" transform="translate(206,84)"/>
<path d="M0 0 C0.66 0 1.32 0 2 0 C2 3.3 2 6.6 2 10 C1.01 9.67 0.02 9.34 -1 9 C-2.1875 6.4375 -2.1875 6.4375 -3 4 C-2.01 3.67 -1.02 3.34 0 3 C0 2.01 0 1.02 0 0 Z " fill="#2C2A26" transform="translate(151,84)"/>
<path d="M0 0 C1.25425781 0.11085937 2.50851563 0.22171875 3.80078125 0.3359375 C4.75339844 0.43132813 5.70601562 0.52671875 6.6875 0.625 C6.6875 0.955 6.6875 1.285 6.6875 1.625 C5.80707031 1.67398438 4.92664063 1.72296875 4.01953125 1.7734375 C2.27736328 1.88558594 2.27736328 1.88558594 0.5 2 C-0.64855469 2.06960937 -1.79710937 2.13921875 -2.98046875 2.2109375 C-6.11209117 2.60009574 -8.46535809 3.3059851 -11.3125 4.625 C-11.6425 3.635 -11.9725 2.645 -12.3125 1.625 C-7.99663875 -0.53705669 -4.76006775 -0.44486614 0 0 Z " fill="#F7E4CE" transform="translate(180.3125,48.375)"/>
<path d="M0 0 C2.97 0.495 2.97 0.495 6 1 C3.03653214 3.47186455 0.45958311 4.66248361 -3.25 5.6875 C-4.14203125 5.93886719 -5.0340625 6.19023437 -5.953125 6.44921875 C-6.62859375 6.63097656 -7.3040625 6.81273437 -8 7 C-8 6.01 -8 5.02 -8 4 C-5.04335481 2.5216774 -2.25770263 2.93967217 1 3 C0.67 2.01 0.34 1.02 0 0 Z " fill="#FDEBCD" transform="translate(270,147)"/>
<path d="M0 0 C0.66 0 1.32 0 2 0 C2.75612577 5.23471686 3.2063366 9.77254141 2 15 C1.34 15 0.68 15 0 15 C0 10.05 0 5.1 0 0 Z " fill="#141414" transform="translate(234,108)"/>
<path d="M0 0 C0.66 0.33 1.32 0.66 2 1 C1.34 2.32 0.68 3.64 0 5 C1.32 5.66 2.64 6.32 4 7 C3.01 7.495 3.01 7.495 2 8 C1.67 8.66 1.34 9.32 1 10 C-3.00390625 5.60546875 -3.00390625 5.60546875 -4 4 C-3.67 3.01 -3.34 2.02 -3 1 C-2.01 0.67 -1.02 0.34 0 0 Z " fill="#E9E9E9" transform="translate(320,74)"/>
<path d="M0 0 C3.63 0 7.26 0 11 0 C8.47519307 2.52480693 6.86176966 2.55738633 3.375 3.125 C2.37210938 3.29257813 1.36921875 3.46015625 0.3359375 3.6328125 C-0.43492187 3.75398437 -1.20578125 3.87515625 -2 4 C-1.34 2.68 -0.68 1.36 0 0 Z " fill="#FDEACB" transform="translate(167,180)"/>
<path d="M0 0 C-0.66 1.32 -1.32 2.64 -2 4 C-5.12290635 3.51421457 -7.99580359 3.0013988 -11 2 C-11 1.34 -11 0.68 -11 0 C-7.18243176 -1.37432457 -3.92744671 -0.67975039 0 0 Z " fill="#EC812C" transform="translate(198,178)"/>
<path d="M0 0 C-0.66 0 -1.32 0 -2 0 C-2 0.99 -2 1.98 -2 3 C-6.62 3.33 -11.24 3.66 -16 4 C-13.71185277 1.71185277 -12.19248378 1.24548839 -9.125 0.3125 C-8.26132813 0.04050781 -7.39765625 -0.23148438 -6.5078125 -0.51171875 C-3.91305068 -1.01692938 -2.469215 -0.85561171 0 0 Z " fill="#E48C49" transform="translate(248,161)"/>
<path d="M0 0 C2.375 2 2.375 2 4 4 C3.34 4.66 2.68 5.32 2 6 C1.67 5.34 1.34 4.68 1 4 C-3.29942266 3.09050674 -6.74936599 2.84073618 -11 4 C-7.45106951 0.28975449 -5.22840734 -0.52284073 0 0 Z " fill="#323232" transform="translate(203,107)"/>
<path d="M0 0 C1.98 0.495 1.98 0.495 4 1 C5.3357457 4.77371512 4.72408671 7.85831347 4.0625 11.75 C3.86785156 12.92046875 3.67320312 14.0909375 3.47265625 15.296875 C3.31667969 16.18890625 3.16070312 17.0809375 3 18 C2.67 18 2.34 18 2 18 C1.97294271 16.22925083 1.95357805 14.45838289 1.9375 12.6875 C1.92589844 11.70136719 1.91429687 10.71523437 1.90234375 9.69921875 C2 7 2 7 3 4 C1.68 3.67 0.36 3.34 -1 3 C-0.67 2.01 -0.34 1.02 0 0 Z " fill="#F09A53" transform="translate(159,61)"/>
<path d="M0 0 C-0.66 0 -1.32 0 -2 0 C-2 0.66 -2 1.32 -2 2 C-3.57914015 2.53341184 -5.16354387 3.05125763 -6.75 3.5625 C-7.63171875 3.85253906 -8.5134375 4.14257812 -9.421875 4.44140625 C-12.07834316 5.01697435 -13.47031106 4.89248371 -16 4 C-14.08959948 3.1319092 -12.17139263 2.28098217 -10.25 1.4375 C-9.18265625 0.96183594 -8.1153125 0.48617187 -7.015625 -0.00390625 C-4.01630163 -0.9946154 -2.86578759 -1.16161779 0 0 Z " fill="#DC8A47" transform="translate(264,155)"/>
<path d="M0 0 C3.13269705 3.13269705 3.05494397 5.97328423 3.0625 10.25 C3.041875 11.4875 3.02125 12.725 3 14 C2.34 14 1.68 14 1 14 C-0.20568053 9.32798795 -0.09382426 4.78503708 0 0 Z " fill="#F5A35E" transform="translate(201,64)"/>
<path d="M0 0 C2.375 -0.125 2.375 -0.125 5 0 C5.66 0.66 6.32 1.32 7 2 C6.625 4.125 6.625 4.125 6 6 C5.34 5.67 4.68 5.34 4 5 C3.67 5 3.34 5 3 5 C1.68 5 0.36 5 -1 5 C-0.67 3.35 -0.34 1.7 0 0 Z " fill="#585858" transform="translate(329,51)"/>
<path d="M0 0 C3.3 0 6.6 0 10 0 C10 0.66 10 1.32 10 2 C9.195625 2.12375 8.39125 2.2475 7.5625 2.375 C6.2940625 2.684375 6.2940625 2.684375 5 3 C4.67 3.66 4.34 4.32 4 5 C3.01 4.67 2.02 4.34 1 4 C0.67 2.68 0.34 1.36 0 0 Z " fill="#191919" transform="translate(208,50)"/>
<path d="M0 0 C0 1.32 0 2.64 0 4 C-2.64 4 -5.28 4 -8 4 C-8.33 3.01 -8.66 2.02 -9 1 C-5.94152152 0.45627049 -3.11227195 0 0 0 Z " fill="#FB7C13" transform="translate(128,196)"/>
<path d="M0 0 C0.99 0.66 1.98 1.32 3 2 C3.29296875 4.1640625 3.29296875 4.1640625 3.1875 6.625 C3.16042969 7.44226563 3.13335937 8.25953125 3.10546875 9.1015625 C3.07066406 9.72804688 3.03585938 10.35453125 3 11 C2.67 9.68 2.34 8.36 2 7 C1.34 7 0.68 7 0 7 C-0.99 5.02 -1.98 3.04 -3 1 C-2.01 0.67 -1.02 0.34 0 0 Z " fill="#FCB67A" transform="translate(195,61)"/>
<path d="M0 0 C2.64 0.33 5.28 0.66 8 1 C7.67 1.66 7.34 2.32 7 3 C4.49609375 3.4140625 4.49609375 3.4140625 1.4375 3.625 C0.42558594 3.69976562 -0.58632812 3.77453125 -1.62890625 3.8515625 C-2.41136719 3.90054688 -3.19382813 3.94953125 -4 4 C-3.67 3.34 -3.34 2.68 -3 2 C-2.01 2 -1.02 2 0 2 C0 1.34 0 0.68 0 0 Z " fill="#FB7B14" transform="translate(176,182)"/>
<path d="M0 0 C3.3 0 6.6 0 10 0 C10 0.99 10 1.98 10 3 C8.72125 3.061875 7.4425 3.12375 6.125 3.1875 C5.40570313 3.22230469 4.68640625 3.25710937 3.9453125 3.29296875 C3.30335938 3.19628906 2.66140625 3.09960938 2 3 C1.34 2.01 0.68 1.02 0 0 Z " fill="#EB842D" transform="translate(219,171)"/>
<path d="M0 0 C2.31 0.33 4.62 0.66 7 1 C6.34 1.66 5.68 2.32 5 3 C5.33 3.66 5.66 4.32 6 5 C4.02 5 2.04 5 0 5 C0 3.35 0 1.7 0 0 Z " fill="#F7F7F7" transform="translate(131,116)"/>
<path d="M0 0 C0.33 0 0.66 0 1 0 C1 4.62 1 9.24 1 14 C-3.5 11.75 -3.5 11.75 -5 8 C-4.01 8.33 -3.02 8.66 -2 9 C-2 9.66 -2 10.32 -2 11 C-1.34 11 -0.68 11 0 11 C0 7.37 0 3.74 0 0 Z " fill="#101010" transform="translate(118,108)"/>
<path d="M0 0 C2.97 0 5.94 0 9 0 C9.33 0.66 9.66 1.32 10 2 C6.0186217 3.3271261 2.14954773 3.06915913 -2 3 C-1.34 2.67 -0.68 2.34 0 2 C0 1.34 0 0.68 0 0 Z " fill="#EC873A" transform="translate(178,50)"/>
<path d="M0 0 C-1.725227 0.67679658 -3.45538939 1.34102 -5.1875 2 C-6.15042969 2.37125 -7.11335937 2.7425 -8.10546875 3.125 C-10.92182358 3.97636772 -13.08164439 4.17072647 -16 4 C-15.38125 3.71125 -14.7625 3.4225 -14.125 3.125 C-11.86674235 2.06279958 -11.86674235 2.06279958 -10 0 C-6.25591431 -0.89532484 -3.6700919 -1.05654161 0 0 Z " fill="#FEE9CC" transform="translate(250,159)"/>
<path d="M0 0 C0.99 0 1.98 0 3 0 C5.125 4.625 5.125 4.625 4 8 C3.01 7.67 2.02 7.34 1 7 C-0.1875 3.9375 -0.1875 3.9375 -1 1 C-0.67 0.67 -0.34 0.34 0 0 Z " fill="#E9EAE9" transform="translate(175,109)"/>
<path d="M0 0 C0.99 0.33 1.98 0.66 3 1 C3 2.65 3 4.3 3 6 C0.35541621 7.32229189 -1.67761301 7.09677194 -4.625 7.0625 C-5.62789063 7.05347656 -6.63078125 7.04445313 -7.6640625 7.03515625 C-8.43492188 7.02355469 -9.20578125 7.01195313 -10 7 C-10 6.67 -10 6.34 -10 6 C-6.7 6 -3.4 6 0 6 C0 4.02 0 2.04 0 0 Z " fill="#D8D8D8" transform="translate(73,89)"/>
<path d="M0 0 C0.33 0.99 0.66 1.98 1 3 C-0.98 3.66 -2.96 4.32 -5 5 C-5.66 3.68 -6.32 2.36 -7 1 C-4.53721199 -0.231394 -2.7204945 -0.07159196 0 0 Z " fill="#FA7E19" transform="translate(246,164)"/>
<path d="M0 0 C-1.63412443 1.70840281 -2.86906094 2.93453047 -5 4 C-6.99960012 4.039992 -9.00047242 4.04346799 -11 4 C-9.71264403 1.42528807 -8.71510189 1.29583343 -6.0625 0.3125 C-5.35222656 0.04050781 -4.64195312 -0.23148438 -3.91015625 -0.51171875 C-2 -1 -2 -1 0 0 Z " fill="#E48F50" transform="translate(309,136)"/>
<path d="M0 0 C3.96 0 7.92 0 12 0 C12 0.33 12 0.66 12 1 C11.32453125 1.08636719 10.6490625 1.17273437 9.953125 1.26171875 C4.05335764 2.12445803 4.05335764 2.12445803 -0.625 5.625 C-1.07875 6.40875 -1.5325 7.1925 -2 8 C-1.47731534 5.23723823 -0.89130413 2.6739124 0 0 Z " fill="#FCC198" transform="translate(173,62)"/>
<path d="M0 0 C0 0.66 0 1.32 0 2 C-1.98 2 -3.96 2 -6 2 C-6 2.66 -6 3.32 -6 4 C-8.64 4 -11.28 4 -14 4 C-9.39033958 1.51787516 -5.27072485 0 0 0 Z " fill="#E1873E" transform="translate(208,173)"/>
<path d="M0 0 C0.598125 0.20625 1.19625 0.4125 1.8125 0.625 C1.4825 0.955 1.1525 1.285 0.8125 1.625 C1.4725 2.285 2.1325 2.945 2.8125 3.625 C0.1725 3.955 -2.4675 4.285 -5.1875 4.625 C-5.1875 3.635 -5.1875 2.645 -5.1875 1.625 C-2.1875 -0.375 -2.1875 -0.375 0 0 Z " fill="#F17E1D" transform="translate(273.1875,151.375)"/>
<path d="M0 0 C2.31 0.33 4.62 0.66 7 1 C3.8745041 3.64465038 0.91211733 4.84414715 -3 6 C-3 5.34 -3 4.68 -3 4 C-2.34 4 -1.68 4 -1 4 C-0.67 2.68 -0.34 1.36 0 0 Z " fill="#FDF0DB" transform="translate(323,123)"/>
<path d="M0 0 C0 0.66 0 1.32 0 2 C-0.66 2 -1.32 2 -2 2 C-2 2.66 -2 3.32 -2 4 C-2.99 4.33 -3.98 4.66 -5 5 C-5 4.34 -5 3.68 -5 3 C-6.65 3.33 -8.3 3.66 -10 4 C-6.83527002 0.53386716 -4.79371499 0 0 0 Z " fill="#E19354" transform="translate(178,50)"/>
<path d="M0 0 C0.99 0 1.98 0 3 0 C3 0.66 3 1.32 3 2 C2.54625 2.433125 2.0925 2.86625 1.625 3.3125 C-0.34309231 5.35628817 -1.06726871 7.34530324 -2 10 C-2.66 9.67 -3.32 9.34 -4 9 C-2.25 2.25 -2.25 2.25 0 0 Z " fill="#EFEFEF" transform="translate(244,48)"/>
<path d="M0 0 C1.22589844 0.01353516 1.22589844 0.01353516 2.4765625 0.02734375 C3.41628906 0.04474609 3.41628906 0.04474609 4.375 0.0625 C4.045 0.7225 3.715 1.3825 3.375 2.0625 C1.08984375 2.4765625 1.08984375 2.4765625 -1.6875 2.6875 C-2.60660156 2.76226562 -3.52570313 2.83703125 -4.47265625 2.9140625 C-5.18292969 2.96304688 -5.89320312 3.01203125 -6.625 3.0625 C-6.625 2.4025 -6.625 1.7425 -6.625 1.0625 C-4.21954362 -0.14022819 -2.67503047 -0.03821472 0 0 Z " fill="#FEF2DC" transform="translate(124.625,190.9375)"/>
<path d="M0 0 C0.66 0.33 1.32 0.66 2 1 C1.95875 1.928125 1.9175 2.85625 1.875 3.8125 C1.72863661 7.15809719 1.72863661 7.15809719 4 10 C3.01 10 2.02 10 1 10 C-1.29404844 6.55892734 -1.26293056 5.03160191 -1 1 C-0.67 0.67 -0.34 0.34 0 0 Z " fill="#1A1A1A" transform="translate(192,111)"/>
<path d="M0 0 C2.64 1.98 5.28 3.96 8 6 C7.67 6.66 7.34 7.32 7 8 C4.08482708 6.92598892 2.22189824 6.22189824 0 4 C0 2.68 0 1.36 0 0 Z " fill="#FDEDD0" transform="translate(160,86)"/>
<path d="M0 0 C2.86724686 0.57344937 3.8614515 0.8614515 6 3 C5.625 5.125 5.625 5.125 5 7 C3.29115995 5.37660195 1.62553283 3.70680947 0 2 C0 1.34 0 0.68 0 0 Z " fill="#EAEAEA" transform="translate(95,77)"/>
<path d="M0 0 C-0.33 1.65 -0.66 3.3 -1 5 C-2.65 5.33 -4.3 5.66 -6 6 C-5.67 4.35 -5.34 2.7 -5 1 C-2 0 -2 0 0 0 Z " fill="#F88D39" transform="translate(173,53)"/>
<path d="M0 0 C0 0.99 0 1.98 0 3 C-0.66 3 -1.32 3 -2 3 C-2 3.99 -2 4.98 -2 6 C-2.66 6 -3.32 6 -4 6 C-4.33 6.99 -4.66 7.98 -5 9 C-5.66 9 -6.32 9 -7 9 C-5.64978174 4.58110387 -3.73884332 2.65654657 0 0 Z " fill="#242424" transform="translate(86,51)"/>
<path d="M0 0 C0.99 0 1.98 0 3 0 C3.99 2.97 4.98 5.94 6 9 C3 8 3 8 1.3125 5.0625 C0 2 0 2 0 0 Z " fill="#3F3F3F" transform="translate(160,107)"/>
<path d="M0 0 C0.99 0.33 1.98 0.66 3 1 C0.69 3.64 -1.62 6.28 -4 9 C-4.33 7.68 -4.66 6.36 -5 5 C-3.6875 3.25 -3.6875 3.25 -2 2 C-1.34 2 -0.68 2 0 2 C0 1.34 0 0.68 0 0 Z " fill="#FDEBD2" transform="translate(163,54)"/>
<path d="M0 0 C-1.25 2 -1.25 2 -3 4 C-4.32 4 -5.64 4 -7 4 C-7 3.01 -7 2.02 -7 1 C-4.53721199 -0.231394 -2.7204945 -0.07159196 0 0 Z " fill="#FA7C15" transform="translate(350,118)"/>
<path d="M0 0 C0.66 0 1.32 0 2 0 C1.7452486 1.31571603 1.47065859 2.62760376 1.1875 3.9375 C1.03667969 4.66839844 0.88585937 5.39929688 0.73046875 6.15234375 C0.48941406 6.76207031 0.24835938 7.37179688 0 8 C-0.99 8.33 -1.98 8.66 -3 9 C-2.01 6.03 -1.02 3.06 0 0 Z " fill="#DCDCDC" transform="translate(239,84)"/>
<path d="M0 0 C0.66 0.33 1.32 0.66 2 1 C1.34 2.98 0.68 4.96 0 7 C-1.32 7 -2.64 7 -4 7 C-3.43628586 3.73045798 -2.50037734 2.17424117 0 0 Z " fill="#E08B42" transform="translate(164,56)"/>
<path d="M0 0 C1.98 0 3.96 0 6 0 C2.63576723 2.96052484 -0.69159287 3.92289822 -5 5 C-5 4.34 -5 3.68 -5 3 C-3.35 2.67 -1.7 2.34 0 2 C0 1.34 0 0.68 0 0 Z " fill="#FEF1D9" transform="translate(282,143)"/>
<path d="M0 0 C0 0.66 0 1.32 0 2 C-5.45769231 5.10096154 -5.45769231 5.10096154 -8.203125 4.58984375 C-8.79609375 4.39519531 -9.3890625 4.20054688 -10 4 C-8.71086513 3.32845067 -7.41859796 2.66291141 -6.125 2 C-5.40570313 1.62875 -4.68640625 1.2575 -3.9453125 0.875 C-2 0 -2 0 0 0 Z " fill="#E28940" transform="translate(336,122)"/>
<path d="M0 0 C1.32 0.33 2.64 0.66 4 1 C4 2.32 4 3.64 4 5 C2.68 5 1.36 5 0 5 C0 3.35 0 1.7 0 0 Z " fill="#D2D2D2" transform="translate(218,109)"/>
<path d="M0 0 C0.66 0 1.32 0 2 0 C3.25227484 1.47704212 4.50166522 2.95827399 5.68359375 4.4921875 C7.11764091 6.26762944 7.11764091 6.26762944 10 8 C5.69385411 7.52153935 3.75119451 6.34073619 1 3 C0.67 2.01 0.34 1.02 0 0 Z " fill="#F6AE73" transform="translate(167,80)"/>
<path d="M0 0 C1.66905241 3.33810482 2.8741386 6.46157845 4 10 C2.68 9.67 1.36 9.34 0 9 C0 6.03 0 3.06 0 0 Z " fill="#FEE9CD" transform="translate(156,76)"/>
<path d="M0 0 C4.875 3.625 4.875 3.625 6 7 C5.01 7.33 4.02 7.66 3 8 C2.67 7.01 2.34 6.02 2 5 C1.34 4.67 0.68 4.34 0 4 C0 2.68 0 1.36 0 0 Z " fill="#151515" transform="translate(50,56)"/>
<path d="M0 0 C1.32 0 2.64 0 4 0 C3.34 1.98 2.68 3.96 2 6 C1.34 6 0.68 6 0 6 C-1.125 2.25 -1.125 2.25 0 0 Z " fill="#ECECEC" transform="translate(166,111)"/>
<path d="M0 0 C0.33 0.99 0.66 1.98 1 3 C2.32 2.01 3.64 1.02 5 0 C5 1.66666667 5 3.33333333 5 5 C3.35 5 1.7 5 0 5 C-0.33 4.34 -0.66 3.68 -1 3 C-0.67 2.01 -0.34 1.02 0 0 Z " fill="#ABABAB" transform="translate(329,53)"/>
<path d="M0 0 C0.66 0.33 1.32 0.66 2 1 C1.360625 1.103125 0.72125 1.20625 0.0625 1.3125 C-0.9584375 1.6528125 -0.9584375 1.6528125 -2 2 C-2.33 2.99 -2.66 3.98 -3 5 C-4.32 4.67 -5.64 4.34 -7 4 C-4.61426621 2.10786631 -2.92824652 0.97608217 0 0 Z " fill="#F77E12" transform="translate(318,133)"/>
<path d="M0 0 C0.33 0.99 0.66 1.98 1 3 C-0.9375 5.6875 -0.9375 5.6875 -3 8 C-3.33 6.02 -3.66 4.04 -4 2 C-2.68 2 -1.36 2 0 2 C0 1.34 0 0.68 0 0 Z " fill="#F9A45E" transform="translate(201,78)"/>
</svg>
