<?xml version="1.0" encoding="UTF-8"?>
<svg
  xmlns="http://www.w3.org/2000/svg"
  version="1.1"
  viewBox="0 0 527 141"
  width="527"
  height="141"
  role="img"
  aria-label="Logo"
  preserveAspectRatio="xMidYMid meet"
>
  <path
    d="M0 0 C1.0886586 -0.00938095 2.1773172 -0.0187619 3.29896545 -0.02842712 C4.47704269 -0.01719315 5.65511993 -0.00595917 6.86889648 0.00561523 C8.08391342 0.00416 9.29893036 0.00270477 10.55076599 0.00120544 C13.12729279 0.00286749 15.7038292 0.01446256 18.28027344 0.03515625 C22.20022512 0.06391722 26.11880828 0.05580859 30.03881836 0.04272461 C32.54468425 0.04896805 35.05054588 0.0573637 37.55639648 0.06811523 C38.72030411 0.0651796 39.88421173 0.06224396 41.08338928 0.05921936 C51.38537226 0.1768653 60.52628875 1.71323191 68.26733398 8.99780273 C74.58272429 15.68377829 76.28383387 23.06258507 76.02905273 32.11889648 C74.99076613 42.10952096 72.53997373 52.21514873 66.67749023 60.50170898 C66.03360352 61.43370117 66.03360352 61.43370117 65.37670898 62.38452148 C58.97114181 70.72078073 49.75289652 74.53550598 39.67749023 76.50170898 C35.17711665 76.91153509 30.6946881 77.0103106 26.17749023 77.06420898 C23.87526263 77.0985896 21.57313835 77.14116267 19.27124023 77.19311523 C18.26770508 77.20544189 17.26416992 77.21776855 16.23022461 77.23046875 C13.43592211 77.32787387 13.43592211 77.32787387 10.67749023 79.50170898 C10.00269714 82.07010019 9.51009637 84.48680739 9.10717773 87.09936523 C8.98061798 87.84882919 8.85405823 88.59829315 8.72366333 89.37046814 C8.32110657 91.76654646 7.93607142 94.16502627 7.55249023 96.56420898 C7.15872955 98.96634102 6.76136275 101.36780586 6.3598938 103.7686615 C6.11095602 105.26354522 5.86707794 106.75928161 5.62863159 108.25587463 C4.78794282 113.3912564 4.78794282 113.3912564 3.67749023 114.50170898 C1.68991996 114.60153956 -0.30118496 114.63251652 -2.29125977 114.63452148 C-3.50168945 114.63581055 -4.71211914 114.63709961 -5.95922852 114.63842773 C-7.23411133 114.63456055 -8.50899414 114.63069336 -9.82250977 114.62670898 C-11.09739258 114.63057617 -12.37227539 114.63444336 -13.68579102 114.63842773 C-14.8962207 114.63713867 -16.10665039 114.63584961 -17.35375977 114.63452148 C-18.47331055 114.63339355 -19.59286133 114.63226563 -20.74633789 114.63110352 C-23.32250977 114.50170898 -23.32250977 114.50170898 -24.32250977 113.50170898 C-24.28990029 101.76701667 -21.84530319 89.93022299 -20.04907227 78.37280273 C-19.72128558 76.24863691 -19.39359973 74.12445553 -19.06600952 72.0002594 C-18.38204678 67.57463069 -17.69384796 63.14968363 -17.00317383 58.72509766 C-16.11874775 53.05419733 -15.24973199 47.38104864 -14.38436317 41.7072134 C-13.71448293 37.33172658 -13.03418082 32.95790728 -12.35093307 28.58448982 C-12.02581899 26.49228087 -11.70450479 24.39947777 -11.38707352 22.3060894 C-10.94371223 19.38956747 -10.48580395 16.47568914 -10.02416992 13.56201172 C-9.89626572 12.69914551 -9.76836151 11.8362793 -9.63658142 10.94726562 C-8.55266511 4.2661286 -7.61345066 0.00132056 0 0 Z M18.67749023 24.50170898 C18.07320411 26.9309392 17.59201282 29.28884099 17.17749023 31.75170898 C17.05075928 32.46520508 16.92402832 33.17870117 16.79345703 33.91381836 C15.65085262 40.42644644 14.62981514 46.95867667 13.67749023 53.50170898 C26.60958485 53.97859379 26.60958485 53.97859379 38.61499023 49.81420898 C43.19751019 44.67623206 44.32349756 39.55378824 44.08764648 32.80639648 C43.79220825 30.22583002 43.79220825 30.22583002 41.61499023 27.50170898 C35.69362381 23.47014035 25.468422 21.1062431 18.67749023 24.50170898 Z"
    fill="#459BDB"
    transform="translate(316.322509765625,-0.501708984375)"
  />
  <path
    d="M0 0 C1.08227875 -0.01283524 2.1645575 -0.02567047 3.27963257 -0.03889465 C4.45659698 -0.04628159 5.6335614 -0.05366852 6.84619141 -0.0612793 C8.05787994 -0.06935104 9.26956848 -0.07742279 10.51797485 -0.08573914 C13.09204675 -0.09959668 15.66613715 -0.11031132 18.24023438 -0.11816406 C22.14701229 -0.1352758 26.0529217 -0.17913651 29.95947266 -0.22338867 C32.4633727 -0.23352442 34.96727993 -0.24203775 37.47119141 -0.2487793 C38.62791351 -0.26628738 39.78463562 -0.28379547 40.97640991 -0.30183411 C51.45603922 -0.27430775 61.47729127 1.65271934 69.20166016 9.20043945 C75.0476839 16.32836238 76.19371905 24.53965665 75.60400391 33.5012207 C74.11030455 46.55672759 69.47423502 58.25727135 59.93994141 67.50512695 C48.99873471 76.14504663 35.8487359 76.48639888 22.58251953 76.7434082 C21.50035156 76.77305664 20.41818359 76.80270508 19.30322266 76.83325195 C17.83212036 76.86128906 17.83212036 76.86128906 16.33129883 76.88989258 C13.57586995 77.0119042 13.57586995 77.0119042 10.82275391 79.17700195 C9.89131348 82.16208576 9.89131348 82.16208576 9.32275391 85.73950195 C9.2009375 86.39337891 9.07912109 87.04725586 8.95361328 87.72094727 C8.2727262 91.42043377 7.66643013 95.13062923 7.07275391 98.8449707 C6.94707031 99.6093042 6.82138672 100.3736377 6.69189453 101.16113281 C6.44960672 102.64835053 6.2187463 104.13748425 6.00048828 105.62841797 C4.98679229 111.89362234 4.98679229 111.89362234 1.82275391 114.17700195 C-0.796875 114.53344727 -0.796875 114.53344727 -3.90380859 114.50512695 C-5.01755859 114.4999707 -6.13130859 114.49481445 -7.27880859 114.48950195 C-8.44154297 114.46887695 -9.60427734 114.44825195 -10.80224609 114.42700195 C-11.97271484 114.4218457 -13.14318359 114.41668945 -14.34912109 114.41137695 C-23.02337461 114.33087344 -23.02337461 114.33087344 -24.17724609 113.17700195 C-24.41468258 106.77066608 -23.84572112 100.7696244 -22.83203125 94.45385742 C-22.68894028 93.52744446 -22.5458493 92.60103149 -22.39842224 91.64654541 C-21.9277847 88.6113333 -21.44730845 85.57777523 -20.96630859 82.54418945 C-20.63432368 80.42155211 -20.30281886 78.29883963 -19.97177124 76.17605591 C-19.27829799 71.73899559 -18.58013818 67.30270673 -17.87841797 62.86694336 C-16.98076506 57.1912108 -16.09312951 51.5139681 -15.20878029 45.83614922 C-14.52586398 41.45694752 -13.83850811 37.07845193 -13.14973068 32.70016861 C-12.82085386 30.60724227 -12.49314599 28.51413189 -12.16664505 26.42083359 C-11.70921702 23.49363232 -11.24602529 20.5673999 -10.78125 17.64135742 C-10.64817947 16.78299286 -10.51510895 15.9246283 -10.37800598 15.04025269 C-9.61746128 10.2964921 -8.74621877 5.72580319 -7.17724609 1.17700195 C-4.64103915 -0.09110152 -2.83941686 0.0292935 0 0 Z M17.82275391 25.17700195 C17.17175676 27.73795682 17.17175676 27.73795682 16.75244141 30.7355957 C16.57841797 31.84354492 16.40439453 32.95149414 16.22509766 34.09301758 C16.05107422 35.25510742 15.87705078 36.41719727 15.69775391 37.61450195 C15.51599609 38.77272461 15.33423828 39.93094727 15.14697266 41.12426758 C14.17252323 47.12429085 14.17252323 47.12429085 13.82275391 53.17700195 C26.65786316 53.77527812 26.65786316 53.77527812 38.26025391 49.05200195 C41.90573616 44.96194869 43.69866679 41.32054226 43.91650391 35.80200195 C43.6777015 32.17220536 43.23195422 29.79080243 41.19775391 26.73950195 C35.51223346 22.99902797 23.07035871 19.92939715 17.82275391 25.17700195 Z"
    fill="#273A82"
    transform="translate(24.17724609375,-0.177001953125)"
  />
  <path
    d="M0 0 C1.03179339 0.96716204 2.0426267 1.9591175 3 3 C3.28875 2.195625 3.5775 1.39125 3.875 0.5625 C5 -2 5 -2 7 -3 C10.64003111 -3.26672816 14.28878599 -3.23153718 17.9375 -3.25 C18.95263672 -3.270625 19.96777344 -3.29125 21.01367188 -3.3125 C21.98755859 -3.31765625 22.96144531 -3.3228125 23.96484375 -3.328125 C25.30470337 -3.34214355 25.30470337 -3.34214355 26.67163086 -3.35644531 C29.52323079 -2.91989966 30.25915907 -2.2600318 32 0 C32.12866211 1.95246887 32.12866211 1.95246887 31.77734375 4.20239258 C31.5908728 5.47792244 31.5908728 5.47792244 31.40063477 6.77922058 C31.17138306 8.16661186 31.17138306 8.16661186 30.9375 9.58203125 C30.79046631 10.55251907 30.64343262 11.5230069 30.49194336 12.52290344 C30.17366512 14.60807995 29.84762171 16.69208295 29.51464844 18.77496338 C29.00574745 21.9639837 28.51939494 25.15568389 28.0390625 28.34912109 C27.22710586 33.71395883 26.38192708 39.07282851 25.52050781 44.42993164 C25.16820154 46.63482031 24.8213516 48.84058659 24.47949219 51.04711914 C23.97725427 54.28731036 23.45926214 57.5246216 22.9375 60.76171875 C22.78740479 61.74903488 22.63730957 62.73635101 22.48266602 63.75358582 C22.25728149 65.11825737 22.25728149 65.11825737 22.02734375 66.51049805 C21.90093506 67.30795944 21.77452637 68.10542084 21.64428711 68.92704773 C20.88462114 71.37122405 20.00351809 72.43122698 18 74 C15.57983398 74.37231445 15.57983398 74.37231445 12.74609375 74.36328125 C11.72708984 74.36263672 10.70808594 74.36199219 9.65820312 74.36132812 C8.59537109 74.34521484 7.53253906 74.32910156 6.4375 74.3125 C5.37080078 74.31572266 4.30410156 74.31894531 3.20507812 74.32226562 C-4.73303472 74.26696528 -4.73303472 74.26696528 -7 72 C-6.625 69.375 -6.625 69.375 -6 67 C-6.61746094 67.39832031 -7.23492187 67.79664062 -7.87109375 68.20703125 C-19.62788311 75.5617351 -29.91194788 77.50319074 -43.6796875 75.63671875 C-51.04290241 73.71075328 -57.03797317 68.04783721 -61.44921875 62.01953125 C-67.14816196 51.74448494 -66.49190643 40.10751026 -64 29 C-59.90594671 14.94210619 -51.23317024 5.66269026 -38.62109375 -1.31640625 C-27.74643892 -6.20064089 -10.21655646 -6.7137371 0 0 Z M-32.48828125 24.14453125 C-36.58693265 29.17517573 -38.38353788 34.7903288 -38.0625 41.25 C-37.3020368 46.18525099 -35.63407993 48.61946053 -32 52 C-27.07923529 55.08212044 -21.59878033 54.56851368 -16 54 C-8.79871136 52.00230033 -4.34400675 46.94219318 -0.625 40.6875 C0.71463264 34.92707965 0.98012312 29.85885419 -1.8125 24.5625 C-2.534375 23.716875 -3.25625 22.87125 -4 22 C-4.433125 21.4225 -4.86625 20.845 -5.3125 20.25 C-13.81356847 13.95291225 -25.4196937 17.47138916 -32.48828125 24.14453125 Z"
    fill="#273A82"
    transform="translate(158,40)"
  />
  <path
    d="M0 0 C0.82113281 -0.020625 1.64226562 -0.04125 2.48828125 -0.0625 C10.50711979 -0.11333257 16.66363731 1.73423381 22.75 7.25 C23.20375 6.445625 23.6575 5.64125 24.125 4.8125 C25.75 2.25 25.75 2.25 27.75 1.25 C31.22381658 1.01052359 34.70633814 1.06480999 38.1875 1.0625 C39.63866211 1.04413086 39.63866211 1.04413086 41.11914062 1.02539062 C42.51229492 1.02249023 42.51229492 1.02249023 43.93359375 1.01953125 C45.21061157 1.01336792 45.21061157 1.01336792 46.51342773 1.00708008 C48.75 1.25 48.75 1.25 51.75 3.25 C51.18435733 12.18690066 50.17423439 20.96747994 48.7890625 29.8125 C48.50221085 31.66488281 48.50221085 31.66488281 48.20956421 33.5546875 C47.80711753 36.13990658 47.401945 38.72470269 46.99414062 41.30908203 C46.57923919 43.94998857 46.16871343 46.59105564 45.76660156 49.23388672 C45.18072651 53.07435939 44.58053531 56.9123368 43.9765625 60.75 C43.7983194 61.93021729 43.62007629 63.11043457 43.43643188 64.32641602 C43.2596994 65.42526123 43.08296692 66.52410645 42.90087891 67.65625 C42.75067291 68.61853516 42.60046692 69.58082031 42.44570923 70.57226562 C41.66272773 73.58590463 40.57703878 75.73359483 38.75 78.25 C36.20629883 78.81762695 36.20629883 78.81762695 33.20703125 78.73828125 C32.13388672 78.72216797 31.06074219 78.70605469 29.95507812 78.68945312 C28.83552734 78.64755859 27.71597656 78.60566406 26.5625 78.5625 C25.43134766 78.53994141 24.30019531 78.51738281 23.13476562 78.49414062 C20.33852024 78.43514811 17.54491903 78.3528824 14.75 78.25 C14.09 76.27 13.43 74.29 12.75 72.25 C12.1209375 72.65992187 11.491875 73.06984375 10.84375 73.4921875 C0.03942166 80.29370745 -10.67292214 82.24422943 -23.3828125 79.59765625 C-31.26884662 77.03853933 -37.69107778 72.6855453 -41.625 65.25 C-46.96357081 53.67478105 -46.67296692 41.13379722 -42.5078125 29.25 C-36.46488631 14.83705804 -27.33375844 7.23386288 -13.25 1.25 C-8.84841665 -0.05233906 -4.55792348 0.02809198 0 0 Z M-10 25.875 C-14.99578993 31.14833381 -17.55701611 36.09233826 -17.8125 43.4375 C-17.57717211 48.43662766 -16.84579223 51.55958166 -13.25 55.25 C-7.89289941 59.26782544 -1.6607442 58.89371984 4.75 58.25 C10.93900009 56.11198179 15.13304152 51.60192231 18.75 46.25 C20.96262774 40.26349785 21.18908844 35.09290674 18.79296875 29.16015625 C16.48465923 24.93257814 13.61400554 23.55315984 9.1875 22 C2.05248321 20.44326906 -3.82623008 22.22686323 -10 25.875 Z"
    fill="#459BDB"
    transform="translate(430.25,35.75)"
  />
  <path
    d="M0 0 C1.49756836 -0.04350586 1.49756836 -0.04350586 3.02539062 -0.08789062 C3.99283203 -0.09626953 4.96027344 -0.10464844 5.95703125 -0.11328125 C6.83979736 -0.12786377 7.72256348 -0.14244629 8.63208008 -0.1574707 C12.18948483 0.49677637 13.69381441 1.69550887 16.1875 4.3125 C17.29663285 6.94616647 18.12499687 9.30424588 18.86328125 12.03515625 C19.07816696 12.77704697 19.29305267 13.51893768 19.51445007 14.28330994 C20.19294393 16.64282372 20.84619565 19.0085413 21.5 21.375 C21.95745032 22.96984185 22.4164193 24.56424894 22.87695312 26.15820312 C23.31124299 27.67930352 23.74423114 29.2007763 24.17578125 30.72265625 C24.37883377 31.43833267 24.58188629 32.15400909 24.79109192 32.89137268 C25.59164969 35.79477705 26.1875 38.28499359 26.1875 41.3125 C30.17184256 37.73318517 32.85296089 33.5151733 35.75 29.0625 C36.81446277 27.45139896 37.87958166 25.84073125 38.9453125 24.23046875 C40.54408569 21.80644505 42.14191819 19.38182053 43.73730469 16.95556641 C45.18980348 14.75513914 46.65575269 12.56426739 48.125 10.375 C48.56078369 9.70758789 48.99656738 9.04017578 49.44555664 8.35253906 C51.92606854 4.67876686 53.91686129 1.92936733 58.1875 0.3125 C61.73969453 -0.07477356 65.24303826 -0.06078784 68.8125 0 C69.76640625 -0.00322266 70.7203125 -0.00644531 71.703125 -0.00976562 C78.78640731 0.04510487 78.78640731 0.04510487 82.1875 2.3125 C82.79081014 6.31975822 81.84746519 8.40313278 79.51171875 11.61328125 C78.93695801 12.41677002 78.36219727 13.22025879 77.77001953 14.0480957 C77.14466309 14.89847412 76.51930664 15.74885254 75.875 16.625 C74.57359484 18.43705207 73.27281993 20.24955695 71.97265625 22.0625 C71.32570801 22.95710938 70.67875977 23.85171875 70.01220703 24.7734375 C67.55838186 28.18791192 65.17970125 31.65019247 62.8125 35.125 C56.35821287 44.54763328 49.82212529 53.91331044 43.29443359 63.28515625 C41.17958442 66.32387348 39.06784384 69.36472768 36.95703125 72.40625 C33.04161916 78.04709792 29.11861376 83.68258351 25.1875 89.3125 C24.37732422 90.47386475 24.37732422 90.47386475 23.55078125 91.65869141 C22.14315714 93.67197384 20.72942802 95.68075913 19.3125 97.6875 C18.71429443 98.54420288 18.71429443 98.54420288 18.10400391 99.41821289 C15.41922289 103.19663855 15.41922289 103.19663855 13.1875 104.3125 C9.19247356 104.55446261 5.1890367 104.49769497 1.1875 104.5 C-0.49085938 104.51836914 -0.49085938 104.51836914 -2.203125 104.53710938 C-3.80414063 104.54000977 -3.80414063 104.54000977 -5.4375 104.54296875 C-6.41976562 104.54707764 -7.40203125 104.55118652 -8.4140625 104.55541992 C-10.8125 104.3125 -10.8125 104.3125 -12.8125 102.3125 C-12.48290346 98.51839886 -11.23589895 96.03858726 -9.08203125 92.94921875 C-8.24768555 91.74168945 -8.24768555 91.74168945 -7.39648438 90.50976562 C-6.81189453 89.68154297 -6.22730469 88.85332031 -5.625 88 C-5.05974609 87.18337891 -4.49449219 86.36675781 -3.91210938 85.52539062 C-3.34943359 84.71650391 -2.78675781 83.90761719 -2.20703125 83.07421875 C-1.64967285 82.27032715 -1.09231445 81.46643555 -0.51806641 80.63818359 C1.1875 78.3125 1.1875 78.3125 3.02197266 76.24072266 C3.58835449 75.59022949 4.15473633 74.93973633 4.73828125 74.26953125 C5.25688721 73.71885986 5.77549316 73.16818848 6.30981445 72.60083008 C8.65727941 66.48044371 4.15866229 57.86587956 2.10546875 51.95703125 C1.80941238 51.09293137 1.51335602 50.22883148 1.20832825 49.33854675 C0.26840656 46.59911926 -0.67826625 43.86207966 -1.625 41.125 C-2.24847213 39.30939077 -2.87152225 37.49363656 -3.49414062 35.67773438 C-4.10659678 33.8957735 -4.71922486 32.11387171 -5.33203125 30.33203125 C-5.62925079 29.46595245 -5.92647034 28.59987366 -6.23269653 27.70755005 C-7.57748441 23.80796729 -8.94429622 19.92319303 -10.41162109 16.06787109 C-10.65200607 15.42847092 -10.89239105 14.78907074 -11.14006042 14.1302948 C-11.77274151 12.46011099 -12.42027056 10.79557206 -13.0690918 9.1315918 C-13.8812162 6.05192006 -13.83997079 4.31121484 -12.8125 1.3125 C-8.95634631 -0.61557685 -4.24200167 0.04060627 0 0 Z"
    fill="#273A82"
    transform="translate(211.8125,36.6875)"
  />
  <path
    d="M0 0 C3.97915159 -0.02886984 7.95827653 -0.04675406 11.9375 -0.0625 C13.07380859 -0.07087891 14.21011719 -0.07925781 15.38085938 -0.08789062 C16.46044922 -0.09111328 17.54003906 -0.09433594 18.65234375 -0.09765625 C20.15269165 -0.10551147 20.15269165 -0.10551147 21.68334961 -0.11352539 C24 0 24 0 25 1 C25.25396498 7.58260235 24.61537966 13.75491445 23.57885742 20.24560547 C23.42761917 21.22721146 23.27638092 22.20881744 23.12055969 23.22016907 C22.62275728 26.43701547 22.1147065 29.65213295 21.60546875 32.8671875 C21.2536813 35.11154321 20.9021481 37.35593878 20.55085754 39.60037231 C19.81503632 44.28969857 19.07367864 48.97811085 18.32885742 53.66601562 C17.37419115 59.67985189 16.4372345 65.69630067 15.50481701 71.71362114 C14.78494245 76.34225615 14.05386275 80.96906894 13.31954384 85.59543228 C12.96916266 87.81403375 12.62274005 90.03326409 12.28032494 92.25310898 C11.80165836 95.34764388 11.30752387 98.43931987 10.80932617 101.53076172 C10.67050018 102.45026108 10.53167419 103.36976044 10.38864136 104.31712341 C10.2498909 105.15807053 10.11114044 105.99901764 9.96818542 106.865448 C9.79534924 107.96097898 9.79534924 107.96097898 9.61902142 109.07864189 C8.86354526 111.42353691 7.91836389 112.47678739 6 114 C3.56396484 114.35644531 3.56396484 114.35644531 0.7109375 114.328125 C-0.82433594 114.32039063 -0.82433594 114.32039063 -2.390625 114.3125 C-3.45796875 114.291875 -4.5253125 114.27125 -5.625 114.25 C-7.23761719 114.24226563 -7.23761719 114.24226563 -8.8828125 114.234375 C-16.84606186 114.15393814 -16.84606186 114.15393814 -18 113 C-17.97408789 101.26231186 -15.50461483 89.42755642 -13.69140625 77.87109375 C-13.36107919 75.74695055 -13.03100022 73.62276875 -12.70115662 71.49855042 C-12.01271305 67.07296369 -11.32050924 62.64798538 -10.62573242 58.22338867 C-9.735606 52.55200299 -8.85621474 46.87901104 -7.97972202 41.20550442 C-7.30242709 36.83051425 -6.61890699 32.45651401 -5.93354607 28.08278084 C-5.60654438 25.99030742 -5.28162588 23.89750734 -4.95883369 21.80438042 C-4.50835272 18.88863878 -4.04936454 15.97436061 -3.58813477 13.06030273 C-3.45663528 12.19743652 -3.3251358 11.33457031 -3.18965149 10.44555664 C-3.06213501 9.65108627 -2.93461853 8.85661591 -2.80323792 8.03807068 C-2.69576516 7.35070548 -2.58829241 6.66334028 -2.4775629 5.95514584 C-1.94302274 3.76673469 -1.07287008 1.97407297 0 0 Z"
    fill="#469BDB"
    transform="translate(502,0)"
  />
</svg>