<?xml version="1.0" encoding="UTF-8"?>
<svg version="1.1" xmlns="http://www.w3.org/2000/svg" viewBox="0 0 350 200" role="img" aria-label="VISA logo">
<path d="M0 0 C4.68139254 -0.02465288 9.36274759 -0.04283739 14.04418945 -0.05493164 C15.63794614 -0.05997157 17.23169819 -0.0668035 18.82543945 -0.07543945 C21.11150253 -0.08751999 23.39750467 -0.09323155 25.68359375 -0.09765625 C26.40026718 -0.10281754 27.11694061 -0.10797882 27.85533142 -0.11329651 C29.57063672 -0.11349263 31.28581266 -0.06192007 33 0 C33.495 0.495 33.495 0.495 34 1 C34.598125 1.12375 35.19625 1.2475 35.8125 1.375 C38.37619692 2.10748483 39.95463172 3.31987605 42 5 C41.67 7.64 41.34 10.28 41 13 C40.01 13 39.02 13 38 13 C36.28288757 15.44496043 36.28288757 15.44496043 35 18 C29.125 17.125 29.125 17.125 28 16 C21.1594193 14.66162552 13.23750286 13.47646924 6.8125 16.5 C6.214375 16.995 5.61625 17.49 5 18 C7.98878754 19.99252503 9.57886212 20.3324609 13 21 C14.34882408 21.63474075 15.6846659 22.29848848 17 23 C18.71184872 23.57061624 20.42824827 24.1287848 22.15625 24.6484375 C23.31640625 25.00808594 23.31640625 25.00808594 24.5 25.375 C25.2734375 25.60960938 26.046875 25.84421875 26.84375 26.0859375 C29.16586624 27.07031286 30.30972608 28.16359289 32 30 C34.09989652 31.17574711 34.09989652 31.17574711 36 32 C36 32.66 36 33.32 36 34 C36.66 34 37.32 34 38 34 C38.66 36.31 39.32 38.62 40 41 C41.18873828 39.37590562 42.37590343 37.75065981 43.5625 36.125 C44.65111328 34.63419922 44.65111328 34.63419922 45.76171875 33.11328125 C48.43616028 29.39333379 51.00794226 25.60905379 53.5546875 21.80078125 C54.03164063 21.20652344 54.50859375 20.61226562 55 20 C55.66 20 56.32 20 57 20 C57.37898438 18.93652344 57.37898438 18.93652344 57.765625 17.8515625 C59.12335651 14.71503085 60.77067011 12.15987112 62.75 9.375 C63.40484375 8.43398437 64.0596875 7.49296875 64.734375 6.5234375 C68.739374 2.06269723 73.73318735 0.18074703 79.62548828 -0.14526367 C82.79210033 -0.16967877 85.95828677 -0.18564812 89.125 -0.1875 C90.23488281 -0.19974609 91.34476563 -0.21199219 92.48828125 -0.22460938 C94.07576172 -0.22750977 94.07576172 -0.22750977 95.6953125 -0.23046875 C97.1496167 -0.23663208 97.1496167 -0.23663208 98.63330078 -0.24291992 C101 0 101 0 103 2 C103.66 2 104.32 2 105 2 C105.50660156 3.42892578 105.50660156 3.42892578 106.0234375 4.88671875 C106.47390696 6.1536641 106.92443067 7.42059016 107.375 8.6875 C107.81585938 9.92886719 108.25671875 11.17023438 108.7109375 12.44921875 C109.47549216 14.55521931 110.27898288 16.64877562 111.1640625 18.70703125 C112 21 112 21 112 25 C112.66 25 113.32 25 114 25 C114.17015625 25.52207031 114.3403125 26.04414062 114.515625 26.58203125 C114.87914062 27.68611328 114.87914062 27.68611328 115.25 28.8125 C115.51941406 29.63878906 115.78882813 30.46507813 116.06640625 31.31640625 C116.68503577 33.09464258 117.35957232 34.85446755 118.08984375 36.58984375 C121.05423678 43.77401334 121.72292051 50.24934405 121 58 C118.52401267 60.47598733 111.89139842 59.1855126 108.5625 59.1875 C106.94891602 59.20586914 106.94891602 59.20586914 105.30273438 59.22460938 C104.27599609 59.22654297 103.24925781 59.22847656 102.19140625 59.23046875 C100.77130249 59.23663208 100.77130249 59.23663208 99.32250977 59.24291992 C97 59 97 59 95 57 C94.34 57 93.68 57 93 57 C92.67 54.69 92.34 52.38 92 50 C83.75 50 75.5 50 67 50 C66.34 51.32 65.68 52.64 65 54 C62.94670929 57.07993606 62.32644256 57.76337177 59 59 C56.33032227 59.25878906 56.33032227 59.25878906 53.31640625 59.265625 C52.22392578 59.26820313 51.13144531 59.27078125 50.00585938 59.2734375 C48.86955078 59.26570313 47.73324219 59.25796875 46.5625 59.25 C45.43005859 59.25773437 44.29761719 59.26546875 43.13085938 59.2734375 C42.03708984 59.27085937 40.94332031 59.26828125 39.81640625 59.265625 C38.82068604 59.26336914 37.82496582 59.26111328 36.79907227 59.25878906 C33.8590771 58.98697093 31.67004701 58.22899661 29 57 C30 55 31 53 32 51 C31.01 51 30.02 51 29 51 C28.4225 51.639375 27.845 52.27875 27.25 52.9375 C24.28020181 55.65981501 21.93407718 55.57082794 18 56 C17.01 56.66 16.02 57.32 15 58 C12.51953125 58.4140625 12.51953125 58.4140625 9.8125 58.625 C8.91144531 58.69976562 8.01039063 58.77453125 7.08203125 58.8515625 C6.39496094 58.90054688 5.70789063 58.94953125 5 59 C5 59.33 5 59.66 5 60 C0.68751391 60.02886537 -3.62494762 60.04675255 -7.9375 60.0625 C-9.78504883 60.07506836 -9.78504883 60.07506836 -11.66992188 60.08789062 C-12.83974609 60.09111328 -14.00957031 60.09433594 -15.21484375 60.09765625 C-16.84087524 60.10551147 -16.84087524 60.10551147 -18.49975586 60.11352539 C-21 60 -21 60 -22 59 C-22.99 59 -23.98 59 -25 59 C-25.99 59 -26.98 59 -28 59 C-28.33 58.67 -28.66 58.34 -29 58 C-30.32 58 -31.64 58 -33 58 C-33 57.34 -33 56.68 -33 56 C-33.99 56 -34.98 56 -36 56 C-36 55.34 -36 54.68 -36 54 C-36.66 54 -37.32 54 -38 54 C-37.09348693 46.14355339 -37.09348693 46.14355339 -35 43 C-30.55315809 41.06924939 -25.63336434 40.45554522 -21 42 C-20.34 42.33 -19.68 42.66 -19 43 C-15.15413405 44.28195532 -11.50677403 44.18415545 -7.5 44.1875 C-6.72785156 44.19974609 -5.95570313 44.21199219 -5.16015625 44.22460938 C-1.2517352 44.23476991 0.67641928 44.21572048 4 42 C4 41.34 4 40.68 4 40 C-0.26035601 37.71395531 -4.33640011 36.24917854 -9 35 C-15.56109601 33.04563098 -23.37809322 30.21828185 -28 25 C-27.75 21.5 -27.75 21.5 -27 18 C-27.34659295 15.67841935 -27.34659295 15.67841935 -28 14 C-27.34 14 -26.68 14 -26 14 C-25.74992188 13.39542969 -25.49984375 12.79085937 -25.2421875 12.16796875 C-23.81214229 9.67213513 -22.57480307 8.77775957 -20.125 7.3125 C-19.10792969 6.68794922 -19.10792969 6.68794922 -18.0703125 6.05078125 C-16.03771394 5.0191416 -14.21299129 4.49955711 -12 4 C-11.4225 3.67 -10.845 3.34 -10.25 3 C-6.90386169 1.51282742 -3.63689196 1.3636892 0 1 C0 0.67 0 0.34 0 0 Z M104 5 C105 8 105 8 105 8 Z M67 6 C68 8 68 8 68 8 Z M105 9 C106 12 106 12 106 12 Z M107 13 C108 16 108 16 108 16 Z M-26 14 C-25 16 -25 16 -25 16 Z M2 17 C3 19 3 19 3 19 Z M108 17 C109 20 109 20 109 20 Z M82 22 C82.99 23.485 82.99 23.485 84 25 C84 24.01 84 23.02 84 22 C83.34 22 82.68 22 82 22 Z M111 25 C112 28 112 28 112 28 Z M82 26 C79.71307976 29.23764755 79.71307976 29.23764755 79 33 C78.34 33 77.68 33 77 33 C77 33.66 77 34.32 77 35 C79.97 35 82.94 35 86 35 C85.01 32.03 84.02 29.06 83 26 C82.67 26 82.34 26 82 26 Z M86 30 C87 33 87 33 87 33 Z M76 31 C77 33 77 33 77 33 Z M114 33 C115 36 115 36 115 36 Z M35 34 C36 36 36 36 36 36 Z M36 37 C36.66 38.32 37.32 39.64 38 41 C38 39.68 38 38.36 38 37 C37.34 37 36.68 37 36 37 Z M117 41 C118 44 118 44 118 44 Z M35 42 C36 45 36 45 36 45 Z M38 42 C39 44 39 44 39 44 Z M118 45 C119 48 119 48 119 48 Z M-35 47 C-34 49 -34 49 -34 49 Z M34 48 C33.67 48.66 33.34 49.32 33 50 C33.66 50 34.32 50 35 50 C34.67 49.34 34.34 48.68 34 48 Z M-36 50 C-35 52 -35 52 -35 52 Z " fill="#1233CB" transform="translate(205,70)"/>
<path d="M0 0 C6.33541445 -0.05070815 12.67077657 -0.08573696 19.00634766 -0.10986328 C21.16164099 -0.1199211 23.31692068 -0.13356899 25.47216797 -0.15087891 C28.57002124 -0.17513662 31.66769409 -0.18648532 34.765625 -0.1953125 C35.72929993 -0.20563507 36.69297485 -0.21595764 37.68585205 -0.22659302 C38.58648376 -0.22674408 39.48711548 -0.22689514 40.41503906 -0.22705078 C41.20557678 -0.231492 41.9961145 -0.23593323 42.81060791 -0.24050903 C45.28116941 0.03088701 46.82878632 0.82200838 49 2 C50.155 2.33 51.31 2.66 52.5 3 C56.02701756 4.4714869 56.98928325 6.40134131 58.4375 9.875 C59.72103487 13.38726696 60.16739383 16.26376967 60 20 C60.66 20 61.32 20 62 20 C62.18175781 20.95712891 62.18175781 20.95712891 62.3671875 21.93359375 C62.61855469 23.17302734 62.61855469 23.17302734 62.875 24.4375 C63.03742188 25.26121094 63.19984375 26.08492187 63.3671875 26.93359375 C63.68042969 27.95646484 63.68042969 27.95646484 64 29 C64.66 29.33 65.32 29.66 66 30 C66.28875 29.4225 66.5775 28.845 66.875 28.25 C67.91666667 26.16666667 68.95833333 24.08333333 70 22 C70.66 22 71.32 22 72 22 C72.226875 21.34 72.45375 20.68 72.6875 20 C74.3878815 16.11341372 76.39623084 12.36320183 79 9 C79.66 9 80.32 9 81 9 C81.226875 8.236875 81.45375 7.47375 81.6875 6.6875 C83.27006834 3.44700291 84.86793594 2.64845477 88 1 C88 0.67 88 0.34 88 0 C96.58 0 105.16 0 114 0 C114 0.66 114 1.32 114 2 C115.32 2 116.64 2 118 2 C117.34 3.65 116.68 5.3 116 7 C115.34 7 114.68 7 114 7 C113.731875 7.72574219 113.46375 8.45148438 113.1875 9.19921875 C112.01329619 11.96864024 110.6605676 14.30919434 109 16.8125 C108.484375 17.60269531 107.96875 18.39289063 107.4375 19.20703125 C106.963125 19.79871094 106.48875 20.39039062 106 21 C105.34 21 104.68 21 104 21 C103.67 22.32 103.34 23.64 103 25 C102.34 25 101.68 25 101 25 C100.67 26.32 100.34 27.64 100 29 C99.34 29 98.68 29 98 29 C97.731875 29.72574219 97.46375 30.45148438 97.1875 31.19921875 C96.01329619 33.96864024 94.6605676 36.30919434 93 38.8125 C92.484375 39.60269531 91.96875 40.39289063 91.4375 41.20703125 C90.963125 41.79871094 90.48875 42.39039063 90 43 C89.34 43 88.68 43 88 43 C87.67 44.32 87.34 45.64 87 47 C86.34 47 85.68 47 85 47 C84.67 48.32 84.34 49.64 84 51 C83.34 51 82.68 51 82 51 C81.67 52.32 81.34 53.64 81 55 C80.34 55 79.68 55 79 55 C78.505 55.99 78.505 55.99 78 57 C77.01 57 76.02 57 75 57 C75 57.66 75 58.32 75 59 C70.54172074 59.0578304 66.0835372 59.09353855 61.625 59.125 C60.35398438 59.14175781 59.08296875 59.15851563 57.7734375 59.17578125 C55.95585938 59.18544922 55.95585938 59.18544922 54.1015625 59.1953125 C52.98088379 59.20578613 51.86020508 59.21625977 50.70556641 59.22705078 C48 59 48 59 46 57 C45.525625 56.5875 45.05125 56.175 44.5625 55.75 C41.29852276 52.09434549 40 48.87313106 40 44 C39.34 44 38.68 44 38 44 C37.62488281 43.04480469 37.24976563 42.08960938 36.86328125 41.10546875 C34.09091035 34.08801875 31.21306152 27.16660359 28.03515625 20.3203125 C26.8229177 17.60306834 25.84773111 14.8514592 25 12 C24.195625 11.855625 23.39125 11.71125 22.5625 11.5625 C20 11 20 11 19 10 C17.67218122 9.79395915 16.33704105 9.6337041 15 9.5 C11.11111111 9.11111111 11.11111111 9.11111111 10 8 C9.195625 8 8.39125 8 7.5625 8 C5 8 5 8 3 7 C1.67139075 6.64830932 0.33841672 6.31229724 -1 6 C-0.67 4.02 -0.34 2.04 0 0 Z M91 1 C91 1.33 91 1.66 91 2 C97.6 2 104.2 2 111 2 C111 1.67 111 1.34 111 1 C104.4 1 97.8 1 91 1 Z M55 7 C56 10 56 10 56 10 Z M56 11 C57 15 57 15 57 15 Z M27 12 C28 15 28 15 28 15 Z M58 16 C59 20 59 20 59 20 Z M30 19 C31 21 31 21 31 21 Z M103 19 C104 21 104 21 104 21 Z M59 20 C60 24 60 24 60 24 Z M31 22 C32 24 32 24 32 24 Z M100 23 C101 25 101 25 101 25 Z M33 26 C34 28 34 28 34 28 Z M69 26 C70 28 70 28 70 28 Z M34 29 C35 31 35 31 35 31 Z M62 29 C63 33 63 33 63 33 Z M36 32 C37 34 37 34 37 34 Z M37 35 C38 37 38 37 38 37 Z M90 37 C91 39 91 39 91 39 Z M40 41 C41 44 41 44 41 44 Z M43 48 C44 50 44 50 44 50 Z " fill="#1132CA" transform="translate(25,70)"/>
<path d="M0 0 C4.12494151 -0.05784708 8.24977944 -0.09354407 12.375 -0.125 C13.550625 -0.14175781 14.72625 -0.15851563 15.9375 -0.17578125 C17.61972656 -0.18544922 17.61972656 -0.18544922 19.3359375 -0.1953125 C20.37282715 -0.20578613 21.4097168 -0.21625977 22.47802734 -0.22705078 C25 0 25 0 27 2 C27.33 2 27.66 2 28 2 C27.45018084 8.04801071 26.09570426 13.30601106 24 19 C23.34 19 22.68 19 22 19 C21.89300781 19.99515625 21.78601563 20.9903125 21.67578125 22.015625 C21.07889756 26.1760402 19.7302617 29.85749356 18.1875 33.75 C17.64667282 35.15086316 17.10631063 36.55190593 16.56640625 37.953125 C16.30102051 38.63568359 16.03563477 39.31824219 15.76220703 40.02148438 C14.67867466 42.83408729 13.64941652 45.66541378 12.625 48.5 C12.14933594 49.81484375 12.14933594 49.81484375 11.6640625 51.15625 C11.33535156 52.06890625 11.33535156 52.06890625 11 53 C10.34 53 9.68 53 9 53 C8.896875 53.61875 8.79375 54.2375 8.6875 54.875 C8 57 8 57 5 59 C2.53564453 59.25878906 2.53564453 59.25878906 -0.3671875 59.265625 C-1.94306641 59.26949219 -1.94306641 59.26949219 -3.55078125 59.2734375 C-4.64777344 59.26570313 -5.74476563 59.25796875 -6.875 59.25 C-8.50888672 59.26160156 -8.50888672 59.26160156 -10.17578125 59.2734375 C-11.22894531 59.27085937 -12.28210938 59.26828125 -13.3671875 59.265625 C-14.32737793 59.26336914 -15.28756836 59.26111328 -16.27685547 59.25878906 C-19.17839905 58.98304617 -21.36131833 58.20807112 -24 57 C-23.32929676 54.98789028 -22.65793702 52.97599828 -21.984375 50.96484375 C-21.25649589 48.77254119 -20.53937247 46.57666092 -19.828125 44.37890625 C-17.84033836 38.26628741 -15.78542035 32.2976769 -13.046875 26.47265625 C-10.64517623 20.79998715 -8.88405569 14.86064865 -7 9 C-6.34 9 -5.68 9 -5 9 C-4.67 6.69 -4.34 4.38 -4 2 C-2.68 1.67 -1.36 1.34 0 1 C0 0.67 0 0.34 0 0 Z M3 1 C3 1.33 3 1.66 3 2 C9.27 2 15.54 2 22 2 C22 1.67 22 1.34 22 1 C15.73 1 9.46 1 3 1 Z M-4 5 C-3 9 -3 9 -3 9 Z M24 7 C25 10 25 10 25 10 Z M-5 10 C-4 12 -4 12 -4 12 Z M23 11 C24 14 24 14 24 14 Z M-7 14 C-6 17 -6 17 -6 17 Z M21 15 C22 18 22 18 22 18 Z M-8 17 C-7 20 -7 20 -7 20 Z M20 19 C21 22 21 22 21 22 Z M18 24 C19 26 19 26 19 26 Z M-11 25 C-10 28 -10 28 -10 28 Z M17 26 C18 30 18 30 18 30 Z M-14 33 C-13 36 -13 36 -13 36 Z M14 34 C15 38 15 38 15 38 Z M-17 41 C-16 44 -16 44 -16 44 Z M11 43 C12 46 12 46 12 46 Z M-18 44 C-17 47 -17 47 -17 47 Z M-20 48 C-19 51 -19 51 -19 51 Z M8 50 C9 53 9 53 9 53 Z M-21 52 C-20 55 -20 55 -20 55 Z " fill="#1132CB" transform="translate(149,70)"/>
<path d="M0 0 C-3.55525104 7.36444859 -3.55525104 7.36444859 -8 9 C-10.74902344 9.22705078 -10.74902344 9.22705078 -13.859375 9.1953125 C-14.97441406 9.18886719 -16.08945313 9.18242187 -17.23828125 9.17578125 C-18.39714844 9.15902344 -19.55601562 9.14226562 -20.75 9.125 C-21.92433594 9.11597656 -23.09867188 9.10695312 -24.30859375 9.09765625 C-27.20593536 9.07410063 -30.10286441 9.04120652 -33 9 C-30.0068237 7.28430519 -27.81263185 6.74494429 -24.375 6.69140625 C-23.06789062 6.65370117 -23.06789062 6.65370117 -21.734375 6.61523438 C-19.91152946 6.5800795 -18.08860443 6.54882907 -16.265625 6.52148438 C-15.39421875 6.49505859 -14.5228125 6.46863281 -13.625 6.44140625 C-12.43777344 6.42122437 -12.43777344 6.42122437 -11.2265625 6.40063477 C-7.75213644 5.77546666 -5.76758512 3.79710763 -3.375 1.3125 C-2 0 -2 0 0 0 Z " fill="#0829C9" transform="translate(272,120)"/>
<path d="M0 0 C0.66 0 1.32 0 2 0 C-0.79995453 8.39986358 -3.85499441 16.72366949 -7 25 C-7.66 25 -8.32 25 -9 25 C-8.33020901 19.80705258 -6.81583685 15.15261575 -5.0625 10.25 C-4.79759766 9.48300781 -4.53269531 8.71601562 -4.25976562 7.92578125 C-2.24969175 2.24969175 -2.24969175 2.24969175 0 0 Z " fill="#0527C6" transform="translate(138,93)"/>
<path d="M0 0 C3.05906926 2.51066469 3.75191278 4.90059933 4.6875 8.6875 C5.06455078 10.17830078 5.06455078 10.17830078 5.44921875 11.69921875 C5.63097656 12.45847656 5.81273437 13.21773437 6 14 C5.34 14 4.68 14 4 14 C3.32471777 12.42032193 2.66010306 10.83608097 2 9.25 C1.62875 8.36828125 1.2575 7.4865625 0.875 6.578125 C0 4 0 4 0 0 Z " fill="#022CCD" transform="translate(320,103)"/>
<path d="M0 0 C0.66 0 1.32 0 2 0 C2.33 0.99 2.66 1.98 3 3 C3.99 3.66 4.98 4.32 6 5 C6.1875 8.125 6.1875 8.125 6 11 C5.34 11 4.68 11 4 11 C2.68 7.37 1.36 3.74 0 0 Z " fill="#0523CA" transform="translate(59,103)"/>
<path d="M0 0 C0.33 0.66 0.66 1.32 1 2 C3.97 2 6.94 2 10 2 C10 2.66 10 3.32 10 4 C6.7 4 3.4 4 0 4 C0 2.68 0 1.36 0 0 Z " fill="#1327B6" transform="translate(281,103)"/>
<path d="M0 0 C-1.20381448 2.49361571 -2.45428722 4.68143083 -4 7 C-6.625 7.1875 -6.625 7.1875 -9 7 C-7.66666667 5.66666667 -6.33333333 4.33333333 -5 3 C-4.46375 2.4225 -3.9275 1.845 -3.375 1.25 C-2 0 -2 0 0 0 Z " fill="#092BC9" transform="translate(272,120)"/>
<path d="M0 0 C0.99 0 1.98 0 3 0 C3 0.99 3 1.98 3 3 C3.66 3 4.32 3 5 3 C5.33 5.31 5.66 7.62 6 10 C2.63408573 7.27521226 1.55773724 3.93143208 0 0 Z " fill="#0426BF" transform="translate(65,117)"/>
<path d="M0 0 C5.94 0 11.88 0 18 0 C18 0.33 18 0.66 18 1 C12.06 1 6.12 1 0 1 C0 0.67 0 0.34 0 0 Z " fill="#032DC7" transform="translate(212,69)"/>
<path d="M0 0 C0.66 0 1.32 0 2 0 C1.67 2.64 1.34 5.28 1 8 C0.34 8 -0.32 8 -1 8 C-0.67 5.36 -0.34 2.72 0 0 Z " fill="#042AC1" transform="translate(245,75)"/>
<path d="M0 0 C2.62386487 3.06117568 3 3.73173127 3 8 C2.34 8 1.68 8 1 8 C0.67 5.36 0.34 2.72 0 0 Z " fill="#072FD4" transform="translate(326,119)"/>
<path d="M0 0 C3.63 0 7.26 0 11 0 C11 0.33 11 0.66 11 1 C7.37 1 3.74 1 0 1 C0 0.67 0 0.34 0 0 Z " fill="#0131D4" transform="translate(215,85)"/>
<path d="M0 0 C1.98 0 3.96 0 6 0 C6 0.33 6 0.66 6 1 C4.02 1 2.04 1 0 1 C0 0.67 0 0.34 0 0 Z " fill="#0023C2" transform="translate(189,113)"/>
<path d="M0 0 C0.66 0 1.32 0 2 0 C2 0.99 2 1.98 2 3 C1.34 3 0.68 3 0 3 C0 2.01 0 1.02 0 0 Z " fill="#082EE8" transform="translate(21,72)"/>
<path d="M0 0 C0.33 0 0.66 0 1 0 C1 1.65 1 3.3 1 5 C0.67 5 0.34 5 0 5 C0 3.35 0 1.7 0 0 Z " fill="#002CD8" transform="translate(176,87)"/>
<path d="M0 0 C4 1 4 1 4 1 Z " fill="#0322C9" transform="translate(202,113)"/>
<path d="" fill="#052AC0" transform="translate(0,0)"/>
<path d="M0 0 C2 1 2 1 2 1 Z " fill="#0026CE" transform="translate(223,126)"/>
<path d="M0 0 C2 1 2 1 2 1 Z " fill="#0025B5" transform="translate(226,94)"/>
<path d="M0 0 C2 1 2 1 2 1 Z " fill="#0528C8" transform="translate(231,86)"/>
<path d="" fill="#0000D8" transform="translate(0,0)"/>
<path d="" fill="#000EBD" transform="translate(0,0)"/>
<path d="" fill="#001CAA" transform="translate(0,0)"/>
<path d="" fill="#0033CB" transform="translate(0,0)"/>
<path d="" fill="#002DCD" transform="translate(0,0)"/>
<path d="" fill="#0032DE" transform="translate(0,0)"/>
<path d="" fill="#0000C3" transform="translate(0,0)"/>
<path d="" fill="#0027C2" transform="translate(0,0)"/>
</svg>
